<svg version="1.2" xmlns="http://www.w3.org/2000/svg" viewBox="0 0 59 68" width="59" height="68">
	<title>image</title>
	<style>
		.s0 { fill: #f2eee7 } 
	</style>
	<path class="s0" d="m46.3 27.8c1 0.7 2 1.2 3.1 1.5q1.2 0.4 2.5 0.3c1.5-0.1 3-0.6 4.3-1.6 0.9-0.6 1.5-1.4 2-2.4 0.5-0.9 0.8-2 0.8-3.1 0-1.1-0.2-2.3-0.6-3.5-0.4-1.1-1.1-2.1-1.9-2.9-1-1-2.2-1.6-3.5-2-1.3-0.3-2.6-0.3-3.9 0q-1.2 0.3-2.2 0.9c-0.5-0.4-1.2-0.8-1.9-1.3-1.5-1-3.2-2.2-4.7-3.1 0.3-1.2 0.3-2.6 0-3.8-0.4-1.6-1.1-3-2.2-4.1q-0.8-1-1.9-1.6c-1.4-0.8-2.9-1.2-4.5-1.1-1 0.1-2 0.4-3 0.9-0.9 0.6-1.6 1.3-2.2 2.2-0.7 1-1.2 2.1-1.4 3.3-0.2 1.2-0.2 2.4 0.1 3.5 0.3 1.4 1 2.6 1.9 3.6 0.9 1 2 1.7 3.3 2.2l0.5 0.1q-0.1 3 0.1 5.9c0 0.6 0.1 1.2 0.1 1.7q-1.1 0.2-2.1 0.7-1.2 0.4-2.1 1.2-2-2.4-4.3-4.6-1.4-1.4-2.9-2.7 0.1-0.6 0.2-1.3 0-1.2-0.4-2.4-0.5-1.1-1.3-2c-0.7-0.7-1.5-1.1-2.4-1.3-0.9-0.3-1.9-0.3-2.8-0.1-0.9 0.3-1.8 0.7-2.4 1.4-0.7 0.7-1.2 1.5-1.5 2.5-0.3 0.9-0.3 1.9 0 2.9 0.3 0.8 0.8 1.6 1.5 2.2q0.1 0.2 0.4 0.3-1.2 2.2-2 4.4c-0.3 0.7-0.5 1.2-0.7 1.7q-1 0-2 0.2c-1.3 0.4-2.4 1-3.4 1.8-1.2 1.1-2 2.5-2.5 4q-0.4 1.2-0.4 2.5c0 1.6 0.4 3.1 1.3 4.5 0.5 0.9 1.3 1.6 2.2 2.2 0.9 0.6 1.9 0.9 2.9 1 1.2 0.2 2.4 0.1 3.6-0.3 1.1-0.4 2.1-1 3-1.8 1.1-1 1.9-2.3 2.2-3.7h2.3c1.7 0 3.5 0 5-0.2q0.3 1.8 1.2 3.4c0.7 1.6 1.9 3 3.3 4q1.8 1.1 3.8 1.6-0.3 2.6-0.3 5.2 0 1.1 0 1.9c-1.2 0.3-2.3 0.9-3.3 1.8-1 0.9-1.8 2.2-2.1 3.5-0.4 1.4-0.4 2.9 0 4.3 0.5 1.2 1.2 2.3 2.1 3.3 1.1 1 2.5 1.8 4 2.2q1.2 0.4 2.4 0.3c1.6-0.1 3.1-0.6 4.4-1.6 0.8-0.6 1.5-1.5 2-2.4 0.5-1 0.7-2 0.8-3.1 0-1.2-0.2-2.4-0.6-3.5-0.5-1.1-1.1-2.1-1.9-2.9-0.9-0.9-2-1.5-3.1-1.8v-2c0-1.7 0-3.4 0-4.9 1.4-0.2 2.7-0.7 3.9-1.5q2.1 2.5 4.6 4.6c0.9 0.8 1.6 1.5 2.2 2-0.3 1-0.3 2 0 2.9 0.3 0.9 0.8 1.6 1.5 2.2 0.7 0.7 1.5 1.2 2.4 1.4q0.9 0.4 2 0.4c1-0.1 2-0.5 2.9-1.1q0.8-0.7 1.3-1.7 0.5-1 0.5-2.1 0-1.3-0.4-2.4-0.5-1.2-1.3-2c-0.7-0.7-1.5-1.1-2.4-1.3-0.9-0.2-1.8-0.2-2.6 0q-0.5 0.1-1 0.3c-0.5-0.6-1.2-1.2-2.1-2-1.5-1.4-3.2-3-4.6-4.1l0.2-0.2q0.6-1 0.9-2.2c0.5-1.3 0.7-2.7 0.7-4.2 0-1.5-0.3-3.1-0.9-4.6l0.6-0.4c1-0.7 2-1.3 2.7-2zm5.6 23.6c0.3 0.4 0.5 0.8 0.5 1.3q0 0.2-0.1 0.3 0 0.2-0.2 0.3-0.4 0.3-0.9 0.4-0.2 0-0.3 0-0.5-0.2-0.9-0.6-0.3-0.3-0.4-0.6-0.1-0.3 0-0.5 0.2-0.4 0.4-0.6 0.3-0.2 0.7-0.2 0.3-0.1 0.7-0.1 0.3 0.1 0.6 0.4zm-1.8-32.8q0.9-0.2 1.7 0 0.8 0.2 1.5 0.8 0.5 0.6 0.8 1.4 0.3 0.7 0.3 1.6 0 0.5-0.2 1-0.3 0.4-0.7 0.8c-0.5 0.4-1.2 0.7-1.9 0.8q-0.5 0.1-0.9 0c-0.8-0.2-1.5-0.6-2-1.2q-0.6-0.6-0.9-1.5c-0.1-0.5-0.1-1 0-1.5q0.3-0.8 0.9-1.3 0.6-0.6 1.4-0.9zm-6.4-0.2q-0.2 0.5-0.4 1.1c-0.4 1.4-0.4 2.9 0.1 4.2 0 0.2 0.1 0.3 0.2 0.5q-1.3 0.7-2.6 1.6l-0.4 0.3q-0.8-0.8-1.7-1.4-1.4-0.9-2.9-1.3h-0.3c0-0.6-0.1-1.3-0.1-2-0.1-1.9-0.2-3.9-0.4-5.6 1-0.3 1.9-0.8 2.7-1.4q2.2 1.8 4.6 3.2zm-14.1-9.6q-0.2-0.7 0-1.5 0.1-0.8 0.6-1.5 0.3-0.4 0.7-0.7 0.5-0.3 1-0.4 1.1 0 2.1 0.4 0.5 0.2 0.8 0.5c0.5 0.6 0.9 1.3 1 2.1q0.2 0.9 0 1.8c-0.1 0.5-0.4 0.9-0.7 1.2q-0.7 0.6-1.5 0.7c-0.6 0.1-1.2 0-1.8-0.2q-0.8-0.3-1.4-0.9-0.6-0.6-0.8-1.5zm-16.7 7q0.2-0.3 0.4-0.5 0.3-0.3 0.6-0.3 0.4-0.1 0.7-0.1 0.4 0.1 0.7 0.4c0.3 0.3 0.4 0.8 0.4 1.2 0 0.4-0.1 0.6-0.2 0.7q-0.4 0.3-0.9 0.4-0.2 0-0.4 0-0.5-0.2-0.9-0.6-0.2-0.3-0.4-0.6 0-0.3 0-0.6zm-3.1 21.1q-0.6 0.5-1.4 0.8-0.7 0.2-1.5 0.1-0.5 0-1-0.3-0.5-0.3-0.8-0.7-0.6-1-0.7-2.1-0.1-0.5 0-1c0.3-0.8 0.7-1.4 1.3-1.9q0.7-0.6 1.6-0.8c0.5-0.2 1-0.1 1.4 0.1q0.8 0.3 1.4 1 0.5 0.7 0.6 1.6 0.2 0.9 0 1.7-0.3 0.9-0.9 1.5zm7.5-5h-2.2c-0.5-1.5-1.4-2.9-2.6-3.9q0.3-0.7 0.7-1.7c0.6-1.6 1.3-3.3 1.8-4.8q0.7 0 1.4-0.3 1.3 1.6 2.8 3c1.5 1.4 3.1 3.1 4.6 4.4q-0.6 0.9-0.9 1.9-0.4 0.8-0.5 1.7-2.6-0.4-5.1-0.3zm17.8 30.7q-0.8 0.6-1.9 0.8-0.4 0-0.9 0c-0.7-0.2-1.4-0.6-2-1.2q-0.6-0.6-0.8-1.5c-0.2-0.5-0.2-1 0-1.5 0.1-0.5 0.4-1 0.8-1.3 0.7-0.6 1.5-0.9 2.4-0.9 0.8 0 1.7 0.3 2.3 0.9q0.6 0.5 0.9 1.3 0.2 0.8 0.2 1.6 0 0.5-0.3 1-0.2 0.5-0.7 0.8zm-2.7-22.2q-1.4-0.3-2.6-1.1c-0.7-0.5-1.2-1.1-1.6-1.9q-0.6-1.2-0.7-2.7c-0.1-0.8 0-1.7 0.3-2.5q0.4-1.1 1.2-2 0.8-0.8 1.9-1.3c1.2-0.5 2.5-0.6 3.8-0.3q0.8 0.2 1.5 0.5c0.3 0.4 0.8 0.5 1 0.9q0.2 0.3 0.5 0.5l0.3 0.6 0.3 0.5 0.2 0.6q0.1 0.2 0.2 0.4 0.2 1.1 0.1 2.1 0 1.3-0.5 2.5c-0.2 0.7-0.7 1.4-1.2 1.9-0.7 0.6-1.4 1-2.2 1.2-0.8 0.2-1.7 0.3-2.5 0.1z"/>
</svg>