<svg version="1.2" xmlns="http://www.w3.org/2000/svg" viewBox="0 0 99 100" width="99" height="100">
	<title>image</title>
	<style>
		.s0 { fill: #f2eee7 } 
	</style>
	<path class="s0" d="m92.4 25.3c-3.6-6.2-8.5-11.5-14.3-15.7-7.1-5-15.4-8.2-24.1-9.1-4.7-0.4-9.5-0.2-14.1 0.7-4.9 0.9-9.5 2.5-13.9 4.7l-3.3 1.8-3 2.2q-3.1 2.2-5.7 4.9-1.3 1.3-2.4 2.8-1.2 1.5-2.3 3-2.2 3.1-3.9 6.5c-4.2 8.7-5.8 18.5-4.6 28.1 1.1 8.6 4.2 16.8 9.1 23.9 4 5.8 9.3 10.6 15.4 14 4 2.4 8.3 4.1 12.8 5.1 3.1 0.8 6.4 1.1 9.7 1.1q4.5-0.1 8.9-1c5.3-1.1 10.4-2.9 15.2-5.5 7.7-4.1 14.4-10 19.4-17.2 3.6-5.4 6.1-11.5 7.1-17.9q0.4-2.7 0.4-5.4c0.7-9.5-1.5-18.9-6.4-27zm-3.4 30.5c-1.2 5-3.4 9.6-6.4 13.7-6.9 9.1-16.9 15.3-28.1 17.6-4.6 1-9.3 1-13.9 0-3.3-0.8-6.4-1.9-9.4-3.5-4.7-2.5-8.9-6-12.2-10.3-4.1-5.6-6.8-12.1-7.9-19l-0.3-1.4v-1.4l-0.2-2.8c0-2 0.2-3.9 0.3-5.8q0.2-1.5 0.5-3l0.2-1.4 0.4-1.4 0.8-2.9c0.3-1 0.8-1.9 1.2-2.8q1.2-2.8 2.8-5.4 0.8-1.3 1.8-2.4 0.9-1.3 1.9-2.4 2.1-2.2 4.5-4.1l2.4-1.8 2.8-1.6c3.6-2 7.5-3.4 11.5-4.2 3.9-0.9 7.9-1.1 11.8-0.7q2.9 0.3 5.7 0.9 2.8 0.7 5.4 1.7c3.3 1.3 6.4 3 9.3 5.1 4.9 3.5 8.9 8.1 11.8 13.4 2.2 4.2 3.8 8.7 4.4 13.4 0 0.6 0 1.1 0 1.8 0.1 3.6-0.3 7.2-1.1 10.7z"/>
	<path class="s0" d="m55.8 38.4c-3.7-2.2-9.3-6.7-12-6.7-5.9 0-5.3 7.1-5.5 10.9q0 2.1 0 4.2c0 4 0.2 8.1 0.4 12.1 0.4 6.8 2.9 9.4 8.2 7q5-2.6 9.6-6c3.3-2.1 6.3-4.5 8.9-7.4q0.7-0.7 1.1-1.7 0.4-0.9 0.3-2 0-0.1 0-0.2c-0.3-4.4-7.3-8-11-10.2z"/>
</svg>