<svg version="1.2" xmlns="http://www.w3.org/2000/svg" viewBox="0 0 33 34" width="33" height="34">
	<title>image</title>
	<style>
		.s0 { fill: #0599b7 } 
	</style>
	<path class="s0" d="m20.2 16.6c2.7-2.7 5.3-5.3 7.4-7.6q2.4-2.6 4.3-5.5c0.9-1.5 1.2-2.8 0.6-3.2-0.6-0.4-1.5 0-2.9 0.9q-2.8 2.1-5.3 4.5c-2.3 2.1-5 4.7-7.6 7.4l-2.3-2.3c-4.4-4.5-7.2-7.5-9.1-9.2q-1-1-2.3-1.5-0.4-0.1-0.9-0.1-0.4 0.1-0.8 0.3-0.4 0.2-0.6 0.7-0.2 0.4-0.1 0.9c0.3 1 0.8 1.9 1.4 2.7 1.6 2.2 4.6 5.1 9 9.6l2.2 2.3-2.5 2.5c-8.9 8.7-12 11.5-10.2 13.4 1.8 1.8 4.7-1.2 13.7-10l2.5-2.4c2.6 2.7 5.3 5.4 7.6 7.7 4.1 3.8 7 6.4 8.2 5.4 1.1-0.9-1.1-4.5-4.8-8.7-2.2-2.4-4.8-5.1-7.5-7.8z"/>
</svg>