<svg width="230" height="225" viewBox="0 0 230 225" fill="none" xmlns="http://www.w3.org/2000/svg">
<path d="M121.44 35.6619C118.389 37.0695 113.772 35.6192 110.803 34.7924C107.833 33.9656 103.522 31.7114 102.462 31.2455C100.648 30.4482 98.3082 29.2801 93.7902 30.6287C92.6254 30.878 89.5674 31.2258 90.2695 29.9692C90.975 28.7125 106.35 23.8827 116.177 26.8783C123.11 28.9914 124.492 34.2608 121.44 35.6652V35.6619Z" fill="#F2EEE7"/>
<path d="M28.2852 118.835C28.2852 102.17 48.09 66.5205 72.1799 66.5205C76.6947 66.5172 77.4002 69.1159 77.2656 71.0583C77.1311 73.0007 75.0771 74.4969 72.5474 75.0219C70.0177 75.5469 65.8474 76.5935 63.8951 78.7952C61.4835 81.5185 62.3103 84.5962 65.8375 85.6986C73.9812 87.9724 81.8133 73.2862 92.1127 72.5906C104.919 71.9442 112.62 82.47 111.084 86.3745C109.549 90.2791 104.177 84.9013 94.3143 84.9013C84.4513 84.9013 74.8704 90.2692 70.1391 91.5718C61.7919 94.6462 49.8946 90.8893 39.8445 103.443C38.8536 105.008 37.8168 107.292 38.1351 109.201C38.5386 111.616 40.2448 112.286 42.394 110.875C44.5431 109.464 47.1549 102.012 54.37 98.5245C56.8079 97.1103 64.3249 95.6601 66.4412 97.7764C68.5116 99.9485 65.0205 102.754 63.8262 103.633C59.8987 106.514 50.0061 107.308 45.5209 116.708C41.0356 126.109 41.8132 137.832 36.5634 137.832C31.3136 137.832 28.7215 133.209 28.2884 118.838L28.2852 118.835Z" fill="#F2EEE7"/>
<path d="M123.238 77.3643C118.618 79.6118 112.794 75.9272 110.337 73.4893C106.399 69.588 94.5938 61.8577 86.9193 60.519C79.2448 59.1803 67.6657 61.5723 61.5071 62.5796C57.8191 63.18 51.9295 64.9682 48.2448 64.4137C47.0242 64.23 45.5313 63.2391 45.2327 61.674C44.9473 60.1876 54.5708 46.5415 71.9837 45.6982C77.7256 45.6982 78.7165 47.68 81.9517 47.68C85.1869 47.68 86.3878 46.4529 93.3044 46.7351C100.224 47.0205 101.494 50.1868 104.066 50.8463C106.639 51.5058 110.327 50.679 113.962 52.2539C117.598 53.8288 123.477 58.9014 126.772 67.0058C127.694 71.1761 127.858 75.1167 123.238 77.3643Z" fill="#F2EEE7"/>
<path d="M124.019 50.1216C121.728 51.1584 119.461 49.0421 115.931 47.8674C112.4 46.6928 111.252 48.0118 106.242 46.5222C101.235 45.0358 100.024 42.4011 95.0793 41.9352C90.1346 41.4693 86.7879 43.7201 82.2567 43.4642C77.7222 43.2083 77.0824 40.1863 68.7319 42.5816C65.5197 43.264 64.2598 42.8441 64.2598 41.8925C64.2598 40.941 75.9438 34.0244 79.4087 34.0244C82.8735 34.0244 82.6734 35.2023 85.4459 35.3336C88.2185 35.4648 91.4832 33.8374 97.7534 34.0441C102.872 34.2114 105.471 37.6894 108.991 38.8444C112.512 40.0026 113.923 39.4153 119.028 40.7048C124.137 41.9975 126.302 49.0847 124.015 50.1216H124.019Z" fill="#F2EEE7"/>
<path d="M42.7544 77.0198C41.6027 78.3192 39.0434 78.247 37.7572 77.6564C36.5432 77.0986 36.5826 75.7566 36.9534 74.4999C37.5571 72.4624 40.0901 69.0959 41.7471 69.3256C43.404 69.5553 44.1718 75.4219 42.7511 77.0198H42.7544Z" fill="#F2EEE7"/>
<path d="M96.0566 92.0218C110.293 92.0218 115.251 99.5389 112.377 103.44C109.503 107.341 102.832 101.12 94.2586 101.376C69.2302 101.376 53.4316 133.183 51.4695 141.248C49.5041 149.313 50.8199 155.859 54.8917 155.859C59.272 155.859 60.7026 150.183 62.0413 143.178C63.1602 137.957 65.3585 132.665 67.5503 127.75C69.4336 123.524 72.2554 119.255 75.7367 116.148C81.2391 111.236 87.1287 108.089 94.0945 108.089C103.721 108.089 107.563 111.978 107.563 116.637C107.563 120.643 101.615 122.517 98.5273 123.156C95.489 123.786 85.3536 123.924 78.46 130.821C67.6487 141.632 68.7184 154.091 67.4486 159.862C66.1755 165.634 60.3089 172.032 54.6949 172.032C44.4414 172.032 40.6517 158.845 40.2383 153.152C40.2383 124.593 73.7713 92.0186 96.0566 92.0186V92.0218Z" fill="#F2EEE7"/>
<path d="M111.339 191.921C114.391 190.514 119.007 191.964 121.977 192.791C124.946 193.618 129.257 195.872 130.317 196.338C132.132 197.135 134.471 198.303 138.989 196.954C140.154 196.705 143.212 196.357 142.51 197.614C141.808 198.871 126.429 203.7 116.602 200.705C109.669 198.592 108.288 193.322 111.339 191.918V191.921Z" fill="#F2EEE7"/>
<path d="M204.493 108.749C204.493 125.413 184.688 161.063 160.598 161.063C156.083 161.066 155.378 158.467 155.512 156.525C155.647 154.583 157.701 153.086 160.231 152.561C162.76 152.036 166.931 150.99 168.883 148.788C171.295 146.065 170.468 142.987 166.94 141.885C158.797 139.611 150.965 154.297 140.665 154.993C127.859 155.639 120.158 145.113 121.694 141.209C123.229 137.304 128.601 142.682 138.464 142.682C148.327 142.682 157.908 137.314 162.639 136.011C170.986 132.937 182.883 136.694 192.933 124.14C193.924 122.575 194.961 120.292 194.643 118.382C194.239 115.967 192.533 115.298 190.384 116.709C188.235 118.12 185.623 125.571 178.408 129.059C175.97 130.473 168.453 131.923 166.337 129.807C164.266 127.635 167.757 124.829 168.952 123.95C172.879 121.069 182.772 120.275 187.257 110.875C191.742 101.474 190.965 89.751 196.215 89.751C201.464 89.751 204.056 94.3741 204.49 108.745L204.493 108.749Z" fill="#F2EEE7"/>
<path d="M109.541 150.215C114.16 147.968 119.984 151.652 122.442 154.09C126.379 157.991 138.185 165.722 145.859 167.06C153.534 168.399 165.113 166.007 171.272 165C174.96 164.399 180.849 162.611 184.534 163.166C185.754 163.349 187.247 164.34 187.546 165.905C187.831 167.392 178.208 181.038 160.795 181.881C155.053 181.881 154.062 179.899 150.827 179.899C147.592 179.899 146.391 181.126 139.474 180.844C132.554 180.559 131.285 177.393 128.712 176.733C126.14 176.074 122.452 176.9 118.816 175.325C115.181 173.751 109.301 168.678 106.007 160.574C105.085 156.403 104.921 152.463 109.541 150.215Z" fill="#F2EEE7"/>
<path d="M108.761 177.458C111.051 176.421 113.318 178.538 116.849 179.712C120.379 180.887 121.527 179.568 126.538 181.058C131.545 182.544 132.755 185.179 137.7 185.645C142.645 186.111 145.991 183.86 150.523 184.116C155.057 184.372 155.697 187.394 164.047 184.998C167.26 184.316 168.52 184.736 168.52 185.687C168.52 186.639 156.835 193.555 153.371 193.555C149.906 193.555 150.106 192.378 147.333 192.246C144.561 192.115 141.296 193.742 135.026 193.536C129.907 193.368 127.309 189.89 123.788 188.736C120.267 187.577 118.857 188.165 113.751 186.875C108.642 185.582 106.477 178.495 108.764 177.458H108.761Z" fill="#F2EEE7"/>
<path d="M190.026 150.56C191.178 149.26 193.737 149.333 195.023 149.923C196.237 150.481 196.198 151.823 195.827 153.08C195.223 155.117 192.69 158.484 191.033 158.254C189.376 158.024 188.609 152.158 190.029 150.56H190.026Z" fill="#F2EEE7"/>
<path d="M136.726 135.561C122.489 135.561 117.531 128.044 120.405 124.143C123.283 120.242 129.95 126.463 138.524 126.207C163.552 126.207 179.351 94.3997 181.313 86.3347C183.278 78.2697 181.962 71.7239 177.891 71.7239C173.51 71.7239 172.08 77.4002 170.741 84.4054C169.622 89.6257 167.424 94.9181 165.232 99.8332C163.349 104.059 160.527 108.328 157.046 111.435C151.543 116.347 145.654 119.494 138.688 119.494C129.061 119.494 125.219 115.606 125.219 110.946C125.219 106.94 131.167 105.067 134.255 104.427C137.293 103.797 147.429 103.659 154.322 96.7621C165.134 85.9508 164.064 73.4924 165.334 67.7209C166.607 61.9494 172.473 55.5513 178.087 55.5513C188.341 55.5513 192.131 68.7381 192.544 74.4308C192.544 102.99 159.011 135.565 136.726 135.565V135.561Z" fill="#F2EEE7"/>
<path d="M147.577 49.0848C146.189 48.0119 146.412 43.7792 147.499 40.6917C148.05 39.1233 148.913 37.7059 149.838 36.3048C150.852 34.766 152.286 33.844 154.015 33.9031C155.947 33.9687 157.263 35.104 157.844 36.8725C158.635 39.2775 157.975 41.7252 157.106 44.1172C156.312 46.3024 155.281 48.3695 153.296 49.9051C151.183 51.5423 148.965 50.1577 147.577 49.0815V49.0848Z" fill="#F2EEE7"/>
<path d="M122.04 92.3561C122.04 103.627 152.029 97.5501 152.029 83.2773C152.029 76.0227 148.801 72.653 153.283 65.9267C157.765 59.1971 171.427 53.9539 172.667 49.9149C173.911 45.8758 171.473 42.3847 167.021 42.9425C162.568 43.5003 153.758 61.7958 147.895 59.2628C142.028 56.7298 140.588 51.4308 140.499 44.8291C140.883 36.6657 142.038 28.0856 136.765 27.3933C134.39 27.2489 132.986 28.1578 132.49 28.604C122.831 38.2636 139.896 61.5891 139.896 70.2348C139.896 81.5809 122.033 78.664 122.033 92.3627L122.04 92.3561Z" fill="#F2EEE7"/>
<path d="M85.5428 178.584C86.9307 179.657 86.7076 183.889 85.6215 186.977C85.0703 188.545 84.2074 189.963 83.2821 191.364C82.2683 192.903 80.8344 193.825 79.1053 193.766C77.1727 193.7 75.857 192.565 75.2762 190.796C74.4854 188.391 75.1449 185.943 76.0144 183.551C76.8085 181.366 77.8387 179.299 79.8238 177.764C81.9369 176.126 84.1549 177.511 85.5428 178.587V178.584Z" fill="#F2EEE7"/>
<path d="M111.082 135.313C111.082 124.042 81.0926 130.119 81.0926 144.392C81.0926 151.646 84.3213 155.016 79.8393 161.742C75.3573 168.472 61.6947 173.715 60.4544 177.754C59.2109 181.793 61.6488 185.284 66.1012 184.726C70.5537 184.168 79.3635 165.873 85.2269 168.406C91.0935 170.939 92.5339 176.238 92.6225 182.84C92.2386 191.003 91.0836 199.583 96.3564 200.275C98.7319 200.42 100.136 199.511 100.632 199.065C110.291 189.405 93.2262 166.08 93.2262 157.434C93.2262 146.088 111.089 149.005 111.089 135.306L111.082 135.313Z" fill="#F2EEE7"/>
<path d="M12.3068 90.2007C13.3896 90.3746 14.328 90.7519 15.1286 91.3294C15.9259 91.9069 16.5067 92.6812 16.8676 93.6458C17.2285 94.6105 17.2974 95.7687 17.0776 97.1205C16.7659 99.0367 15.9981 100.412 14.7742 101.242C13.5504 102.072 12.0706 102.347 10.3316 102.065L0.242188 100.444L0.740917 97.3863L10.3251 98.9252C11.6113 99.1319 12.5562 99.0334 13.1632 98.6331C13.7702 98.2328 14.1508 97.5504 14.305 96.5923C14.4691 95.5915 14.3018 94.8205 13.803 94.2758C13.3076 93.7311 12.4512 93.3637 11.2372 93.1668L1.67603 91.6312L2.17476 88.5732L12.3068 90.2007Z" fill="#F2EEE7"/>
<path d="M8.62977 78.6477C8.98742 77.496 9.61083 76.679 10.4967 76.1934C11.3826 75.7078 12.5704 75.6914 14.0567 76.1474L21.6131 78.4672L20.7043 81.3874L13.9321 79.3104C13.0987 79.0545 12.4293 78.9987 11.9273 79.1464C11.4253 79.294 11.0808 79.6681 10.8937 80.2685C10.6181 81.1577 10.7559 81.8664 11.3137 82.3947C11.8715 82.9229 12.764 83.3757 13.9944 83.7531L19.4509 85.4264L18.542 88.3466L6.95312 84.7899L7.64872 82.5555L9.25647 82.6178L9.30568 82.4603C8.8168 81.9386 8.53134 81.3382 8.44603 80.6623C8.364 79.9863 8.42306 79.3137 8.62977 78.6477Z" fill="#F2EEE7"/>
<path d="M16.447 60.1624C16.5126 60.0279 16.6012 59.8704 16.7062 59.6932C16.8112 59.516 16.9064 59.3782 16.9851 59.2798L19.6691 60.8547C19.6002 60.9269 19.5148 61.0417 19.4098 61.196C19.3081 61.3502 19.2261 61.4913 19.1638 61.6127C18.9308 62.0786 18.7963 62.5707 18.7635 63.0859C18.7274 63.6043 18.8422 64.0932 19.1113 64.5525C19.377 65.0119 19.8561 65.4122 20.5451 65.7534L26.0771 68.48L24.7088 71.2198L13.8418 65.865L14.8786 63.788L16.9129 64.2868L16.9753 64.1588C16.5651 63.5912 16.2895 62.9514 16.1484 62.2394C16.0073 61.5274 16.1058 60.835 16.4437 60.1624H16.447Z" fill="#F2EEE7"/>
<path d="M17.4705 49.6459C17.5492 49.9149 17.6378 50.2594 17.7297 50.6827C17.8215 51.1027 17.9167 51.5522 18.0119 52.028C18.107 52.5037 18.189 52.9664 18.2579 53.4126C18.3268 53.8588 18.3793 54.2427 18.4121 54.5643L17.3688 56.3131L17.1194 56.1654C16.9881 55.8341 16.8372 55.4469 16.6633 55.0039C16.4894 54.561 16.3024 54.1115 16.099 53.6587C15.8955 53.2059 15.7052 52.8154 15.5215 52.484L17.2802 49.5376L17.4705 49.6492V49.6459ZM30.4735 60.572L28.9052 63.2034L18.4712 57.0612L20.0396 54.4297L30.4735 60.572Z" fill="#F2EEE7"/>
<path d="M33.0048 46.2961C34.6388 47.4674 35.61 48.77 35.9217 50.2006C36.2334 51.6312 35.8922 53.0289 34.9013 54.3939C34.2877 55.2371 33.5429 55.8474 32.6669 56.2214C31.7908 56.5955 30.836 56.7005 29.7992 56.5299C28.7623 56.3592 27.6992 55.8835 26.6066 55.0993C24.9759 53.9279 24.0047 52.6352 23.7029 51.2177C23.401 49.8003 23.7488 48.4058 24.7462 47.031C25.3664 46.1779 26.1145 45.5644 26.9872 45.1969C27.86 44.8261 28.8083 44.7244 29.832 44.8852C30.8557 45.046 31.9155 45.5184 33.0081 46.3026L33.0048 46.2961ZM28.4441 52.5663C29.4153 53.2652 30.2585 53.6458 30.9705 53.7081C31.6825 53.7737 32.2797 53.4719 32.7653 52.8058C33.2411 52.1529 33.3362 51.4999 33.054 50.847C32.7686 50.1973 32.1419 49.5214 31.1674 48.8225C30.1962 48.1237 29.3595 47.7496 28.6606 47.6938C27.9617 47.638 27.3679 47.9432 26.8855 48.6093C26.4098 49.2655 26.3081 49.9119 26.5804 50.555C26.8527 51.1981 27.4761 51.8674 28.4473 52.5663H28.4441Z" fill="#F2EEE7"/>
<path d="M38.1179 30.4417C37.2582 31.2718 36.94 32.2496 37.1565 33.3717C37.3731 34.4971 38.0654 35.6521 39.2335 36.8431C40.4114 38.044 41.5335 38.7724 42.5966 39.0251C43.663 39.2777 44.6571 38.9562 45.5857 38.0604C46.0188 37.6404 46.3994 37.1712 46.7275 36.6495C47.0524 36.1278 47.3739 35.5307 47.6922 34.8548L49.6608 36.8628C49.3918 37.5125 49.0801 38.1031 48.7192 38.6379C48.3582 39.1727 47.8956 39.7108 47.3345 40.2555C46.2485 41.3054 45.1198 41.9321 43.9419 42.1356C42.7672 42.339 41.5827 42.1684 40.3983 41.6204C39.2105 41.0758 38.049 40.2227 36.9104 39.0644C35.7949 37.9259 35.0008 36.7348 34.5283 35.4847C34.0559 34.2379 33.9443 33.0108 34.1937 31.8033C34.443 30.5959 35.1025 29.477 36.1656 28.4467C36.6873 27.9415 37.2845 27.5051 37.9505 27.1343C38.6166 26.7668 39.3122 26.4682 40.0341 26.2451L41.2153 28.893C40.6247 29.0734 40.057 29.2834 39.5124 29.523C38.9677 29.7625 38.5051 30.0676 38.1179 30.4384V30.4417Z" fill="#F2EEE7"/>
<path d="M48.1196 23.1836C49.3237 22.2714 50.4623 21.8515 51.5286 21.9204C52.595 21.9893 53.5695 22.5996 54.4488 23.7479L59.3508 30.1363L57.6414 31.429L56.1681 30.4906L56.1025 30.5399C56.1124 31.3437 55.9942 32.0262 55.7482 32.584C55.4988 33.1418 55.0034 33.7029 54.2585 34.2672C53.4579 34.8709 52.6049 35.1269 51.6993 35.0251C50.7904 34.9267 49.9439 34.3624 49.1531 33.3321C48.3722 32.3149 48.1294 31.3109 48.4247 30.3167C48.72 29.3258 49.5173 28.3021 50.8199 27.2423L52.3391 26.0086L52.0143 25.5887C51.6271 25.0866 51.2235 24.811 50.797 24.7618C50.3704 24.7126 49.9373 24.857 49.5009 25.1884C49.0613 25.5198 48.6872 25.9102 48.3755 26.3597C48.0638 26.8092 47.7751 27.2916 47.5093 27.8067L45.3438 26.6419C45.6194 26.0086 45.9901 25.3918 46.4593 24.7979C46.9285 24.204 47.4798 23.6626 48.1163 23.1836H48.1196ZM52.5852 28.2923C51.8141 28.9124 51.3843 29.4801 51.2924 29.9919C51.2005 30.5038 51.3318 30.9894 51.6796 31.4454C51.9847 31.8425 52.3128 32.0459 52.6606 32.0492C53.0084 32.0525 53.3595 31.9212 53.7106 31.6554C54.2356 31.2584 54.5506 30.7564 54.6588 30.1494C54.7638 29.5424 54.5834 28.9354 54.1174 28.3251L53.5104 27.5344L52.5852 28.2923Z" fill="#F2EEE7"/>
<path d="M64.431 13.0254L70.5372 23.4364L68.5029 24.6143L67.3644 23.4856L67.22 23.5676C67.2233 24.2796 67.0264 24.9162 66.6261 25.4707C66.2258 26.0252 65.7238 26.478 65.1168 26.829C64.0701 27.436 63.053 27.6198 62.0686 27.3803C61.0843 27.1407 60.1984 26.3533 59.4175 25.0211L55.4375 18.2325L58.0985 16.6937L61.6651 22.7769C62.0982 23.5151 62.551 24.0007 63.0234 24.237C63.4959 24.4732 64.0078 24.4338 64.5557 24.1156C65.3662 23.6464 65.7468 23.0328 65.6943 22.2683C65.645 21.5038 65.2972 20.572 64.6476 19.4662L61.7733 14.5675L64.4343 13.0287L64.431 13.0254Z" fill="#F2EEE7"/>
<path d="M77.3494 20.6341C75.8105 21.3035 74.4193 21.3658 73.1791 20.8212C71.9388 20.2765 70.8888 19.0264 70.0292 17.0709C69.4353 15.7223 69.1662 14.5313 69.222 13.4944C69.2778 12.4576 69.5961 11.5717 70.1834 10.8367C70.7674 10.1018 71.5615 9.51773 72.5556 9.08134C73.2611 8.77292 73.9107 8.58261 74.4981 8.50059C75.0854 8.42184 75.6202 8.39887 76.1025 8.4284L76.2928 11.1156C75.7679 11.1189 75.2855 11.1419 74.8491 11.1911C74.4095 11.237 74.0026 11.342 73.6253 11.5061C72.1619 12.1426 71.9191 13.5732 72.8969 15.7945C73.3825 16.9002 73.9337 17.6319 74.5506 17.9896C75.1674 18.3472 75.8236 18.3767 76.516 18.0749C77.1098 17.8157 77.5954 17.5072 77.976 17.1398C78.3567 16.7756 78.6946 16.349 78.9932 15.8667L80.1252 18.4325C79.8266 18.9148 79.469 19.325 79.0523 19.6564C78.6355 19.9911 78.0679 20.3126 77.3494 20.6243V20.6341Z" fill="#F2EEE7"/>
<path d="M83.1765 5.19037C84.6235 4.74414 85.8342 4.73429 86.8152 5.16084C87.793 5.59066 88.4985 6.49297 88.9316 7.86776L91.3366 15.5357L89.2859 16.1723L88.2261 14.7909L88.1474 14.8139C87.8816 15.5751 87.5371 16.1755 87.1105 16.6152C86.6873 17.0549 86.0278 17.4125 85.132 17.6914C84.1707 17.99 83.2815 17.9375 82.4645 17.5339C81.6475 17.1336 81.0438 16.3133 80.6533 15.0796C80.2694 13.8591 80.3875 12.8321 81.0077 11.9987C81.6278 11.1686 82.7303 10.4762 84.315 9.92174L86.1689 9.27864L86.0114 8.77335C85.8211 8.16962 85.5356 7.77261 85.1517 7.5823C84.7678 7.392 84.3118 7.37887 83.7868 7.54293C83.2618 7.70698 82.7729 7.9465 82.3234 8.26149C81.8739 8.57648 81.4375 8.93412 81.011 9.32457L79.377 7.49699C79.8527 6.99498 80.4171 6.54547 81.0635 6.14189C81.7098 5.74159 82.4153 5.42333 83.1765 5.18709V5.19037ZM85.6144 11.5098C84.676 11.8313 84.0755 12.2185 83.813 12.668C83.5505 13.1208 83.5046 13.6196 83.6785 14.1675C83.8294 14.6465 84.0657 14.9451 84.3938 15.0665C84.7219 15.1879 85.0927 15.1846 85.5159 15.0534C86.1459 14.8565 86.6184 14.4923 86.9235 13.9575C87.2319 13.4227 87.2713 12.7894 87.0416 12.061L86.7431 11.1128L85.6111 11.5098H85.6144Z" fill="#F2EEE7"/>
<path d="M96.5585 12.0612C96.5519 12.8618 96.483 13.7477 96.3616 14.7222C96.2369 15.6967 96.0926 16.6154 95.9318 17.4816L93.7728 17.9475C93.7728 17.0583 93.7662 16.1134 93.7433 15.1094C93.7203 14.1053 93.6744 13.2194 93.6055 12.4517L96.3714 11.8545L96.565 12.0612H96.5585Z" fill="#F2EEE7"/>
<path d="M117.251 0.00567667C118.531 -0.0468212 119.512 0.264885 120.195 0.937513C120.877 1.61014 121.248 2.71588 121.31 4.26128L121.629 12.1097L118.554 12.2344L118.269 5.19968C118.196 3.46397 117.599 2.62073 116.471 2.66666C115.66 2.69947 115.093 3.03087 114.774 3.66084C114.456 4.29081 114.318 5.18984 114.367 6.34807L114.613 12.3886L111.539 12.5133L111.254 5.47858C111.181 3.74287 110.584 2.89962 109.456 2.94556C108.602 2.97837 108.028 3.34585 107.733 4.04145C107.438 4.73705 107.316 5.72466 107.369 7.0043L107.598 12.6708L104.524 12.7955L104.035 0.757052L106.388 0.6619L106.863 2.18762L107.028 2.18106C107.346 1.55108 107.799 1.08188 108.386 0.78002C108.973 0.478157 109.59 0.31082 110.236 0.287853C111.063 0.255041 111.769 0.36988 112.359 0.63237C112.95 0.894859 113.406 1.3214 113.734 1.912L114.003 1.90216C114.321 1.27219 114.784 0.802988 115.385 0.501125C115.985 0.199262 116.608 0.0319256 117.255 0.00567667H117.251Z" fill="#F2EEE7"/>
<path d="M135.914 1.74507L134.47 13.708L132.131 13.4291L131.904 11.8476L131.74 11.8279C131.31 12.3988 130.769 12.786 130.113 12.9894C129.457 13.1929 128.781 13.2519 128.082 13.1699C126.878 13.0255 125.956 12.5662 125.316 11.7853C124.676 11.0044 124.446 9.84942 124.633 8.31386L125.575 0.514648L128.63 0.878852L127.786 7.86763C127.685 8.71416 127.75 9.37366 127.983 9.84614C128.22 10.3186 128.649 10.591 129.279 10.6664C130.208 10.778 130.887 10.5122 131.31 9.87567C131.734 9.23585 132.022 8.28433 132.177 7.01126L132.856 1.38086L135.914 1.74507Z" fill="#F2EEE7"/>
<path d="M141.608 15.552C139.974 15.1649 138.826 14.3807 138.17 13.2028C137.51 12.0248 137.431 10.4007 137.93 8.32373C138.275 6.89317 138.783 5.78087 139.456 4.98684C140.129 4.19281 140.923 3.67767 141.835 3.44143C142.747 3.20519 143.734 3.21176 144.791 3.46112C145.542 3.6383 146.176 3.87126 146.694 4.16328C147.212 4.45202 147.652 4.75388 148.016 5.06559L146.54 7.32299C146.12 7.01129 145.72 6.74224 145.342 6.51584C144.965 6.28944 144.574 6.12867 144.174 6.03352C142.619 5.66603 141.559 6.66021 140.991 9.02261C140.709 10.1973 140.706 11.1094 140.982 11.7656C141.254 12.4218 141.763 12.8353 142.498 13.0092C143.127 13.1568 143.705 13.2028 144.23 13.1371C144.755 13.0715 145.283 12.937 145.815 12.7303L145.158 15.4569C144.627 15.6636 144.095 15.7751 143.561 15.7916C143.026 15.808 142.376 15.7259 141.612 15.5455L141.608 15.552Z" fill="#F2EEE7"/>
<path d="M154.596 5.21285C154.392 5.76408 154.182 6.29234 153.959 6.79107C153.739 7.2898 153.579 7.64088 153.477 7.83774L153.631 7.89352C154.179 7.43417 154.77 7.17168 155.396 7.09949C156.023 7.03059 156.66 7.11262 157.306 7.34558C158.458 7.76228 159.258 8.42506 159.708 9.33393C160.157 10.2428 160.118 11.4207 159.583 12.871L156.87 20.2502L153.979 19.2002L156.41 12.5888C157.011 10.9581 156.742 9.93766 155.603 9.52424C154.737 9.20925 154.018 9.31425 153.454 9.83594C152.886 10.3576 152.384 11.2206 151.941 12.4247L149.982 17.7533L147.092 16.7033L152.886 0.950684L155.777 2.00064L154.596 5.21285Z" fill="#F2EEE7"/>
<path d="M171.211 20.6344C170.289 22.4128 169.138 23.5612 167.76 24.0829C166.381 24.6013 164.941 24.4766 163.435 23.7055C162.503 23.2298 161.788 22.59 161.283 21.7861C160.777 20.9822 160.531 20.0569 160.548 19.0136C160.561 17.9702 160.879 16.8546 161.496 15.6635C162.418 13.8852 163.563 12.7401 164.928 12.2315C166.293 11.7229 167.733 11.8542 169.252 12.6318C170.194 13.1141 170.916 13.7572 171.415 14.5578C171.913 15.3584 172.16 16.2738 172.15 17.3041C172.143 18.3344 171.828 19.4434 171.211 20.6344ZM164.288 17.0908C163.74 18.1506 163.484 19.0332 163.53 19.742C163.573 20.4507 163.96 20.9921 164.695 21.3694C165.417 21.7402 166.08 21.7369 166.687 21.3596C167.294 20.9822 167.871 20.2637 168.419 19.2071C168.967 18.1473 169.22 17.2713 169.17 16.5757C169.121 15.8801 168.727 15.3453 167.992 14.9679C167.271 14.5972 166.608 14.5939 166.011 14.9581C165.41 15.3223 164.836 16.0343 164.288 17.0908Z" fill="#F2EEE7"/>
<path d="M178.759 28.5125C178.08 29.5296 177.224 30.0907 176.187 30.1957C175.15 30.3007 173.969 29.9135 172.637 29.0342C171.984 28.6043 171.449 28.1876 171.042 27.7841C170.632 27.3838 170.261 26.9211 169.93 26.4027L171.439 24.142C171.78 24.7195 172.19 25.2806 172.669 25.8252C173.148 26.3699 173.611 26.7899 174.061 27.0852C174.566 27.4166 174.976 27.5741 175.298 27.5544C175.616 27.5347 175.862 27.3969 176.033 27.1377C176.147 26.9671 176.206 26.7833 176.21 26.593C176.213 26.4027 176.131 26.1271 175.957 25.7662C175.783 25.4052 175.485 24.8901 175.055 24.2208C174.648 23.5645 174.346 22.9805 174.143 22.4686C173.939 21.9568 173.87 21.4515 173.936 20.956C174.002 20.4606 174.225 19.9323 174.599 19.368C175.222 18.4362 176.026 17.9604 177.014 17.9407C178.001 17.921 179.058 18.2819 180.183 19.0235C180.767 19.4074 181.286 19.8372 181.732 20.3064C182.178 20.7756 182.588 21.3367 182.962 21.9896L180.876 23.4464C180.554 22.9346 180.236 22.4752 179.917 22.0618C179.599 21.6484 179.225 21.3006 178.802 21.0217C178.044 20.5229 177.519 20.4934 177.224 20.9364C177.119 21.0971 177.069 21.271 177.083 21.4646C177.092 21.6582 177.191 21.9207 177.375 22.2521C177.558 22.5835 177.844 23.056 178.231 23.663C178.615 24.2503 178.92 24.7982 179.14 25.3068C179.363 25.8154 179.455 26.3272 179.419 26.8391C179.383 27.3542 179.163 27.912 178.762 28.5125H178.759Z" fill="#F2EEE7"/>
<path d="M200.59 36.1308C201.499 37.0266 201.942 37.9519 201.909 38.9034C201.88 39.8582 201.319 40.8819 200.223 41.9811L194.658 47.5622L192.469 45.4098L197.457 40.4061C198.687 39.1724 198.9 38.1618 198.097 37.3711C197.519 36.8035 196.889 36.6197 196.207 36.8166C195.524 37.0135 194.773 37.5286 193.949 38.3522L189.667 42.6471L187.479 40.4947L192.466 35.491C193.697 34.2573 193.91 33.2467 193.106 32.456C192.499 31.8588 191.839 31.6915 191.124 31.9507C190.409 32.2099 189.598 32.7939 188.693 33.7061L184.677 37.7353L182.488 35.5829L191.022 27.0225L192.696 28.6696L191.895 30.0575L192.013 30.1723C192.696 29.9722 193.349 29.9853 193.972 30.2051C194.596 30.425 195.137 30.7597 195.596 31.2124C196.184 31.7899 196.581 32.3838 196.791 32.9908C196.997 33.5978 196.997 34.2245 196.784 34.8643L196.974 35.0514C197.657 34.8512 198.316 34.8676 198.95 35.0973C199.583 35.327 200.131 35.6682 200.59 36.121V36.1308Z" fill="#F2EEE7"/>
<path d="M212.039 50.8861L202.242 57.9897L200.854 56.0998L201.868 54.8562L201.77 54.725C201.058 54.8005 200.401 54.6725 199.804 54.3345C199.207 53.9966 198.702 53.5471 198.288 52.9827C197.573 52.0115 197.284 51.0239 197.422 50.0264C197.56 49.029 198.255 48.0742 199.512 47.1653L205.9 42.5356L207.715 45.0063L201.989 49.1569C201.297 49.6589 200.854 50.1577 200.667 50.6498C200.48 51.142 200.572 51.644 200.946 52.1493C201.497 52.9007 202.153 53.2124 202.915 53.0877C203.673 52.9597 204.575 52.5201 205.615 51.7654L210.225 48.422L212.039 50.8926V50.8861Z" fill="#F2EEE7"/>
<path d="M217.625 59.9649C218.209 61.0214 218.366 62.0353 218.101 63.0065C217.835 63.9777 217.021 64.834 215.656 65.5789L208.723 69.3587L207.243 66.678L213.455 63.2919C214.219 62.8752 214.724 62.4356 214.97 61.9762C215.213 61.5168 215.184 61.0083 214.879 60.457C214.429 59.64 213.819 59.2496 213.048 59.2791C212.277 59.3086 211.328 59.6302 210.2 60.247L205.193 62.9737L203.713 60.293L214.347 54.4985L215.479 56.5492L214.314 57.6517L214.393 57.7961C215.111 57.8092 215.741 58.0225 216.293 58.4359C216.841 58.846 217.284 59.3579 217.622 59.9714L217.625 59.9649Z" fill="#F2EEE7"/>
<path d="M210.946 75.1602C210.487 74.002 210.605 72.8634 211.3 71.7478C211.996 70.6323 213.302 69.6972 215.218 68.9491C217.147 68.1944 218.755 67.9943 220.041 68.3453C221.324 68.6964 222.203 69.4708 222.679 70.6651C222.978 71.4165 223.063 72.0956 222.938 72.7027C222.814 73.3097 222.571 73.8445 222.213 74.3104L222.253 74.4056C222.459 74.2809 222.761 74.1103 223.162 73.897C223.562 73.6804 223.982 73.4868 224.425 73.3162L228.044 71.9021L229.169 74.7468L213.459 80.8858L212.596 78.7071L213.843 77.5784L213.797 77.4635C213.216 77.3651 212.672 77.1453 212.163 76.8008C211.651 76.4563 211.248 75.9083 210.952 75.1569L210.946 75.1602ZM213.8 75.193C214.112 75.9838 214.585 76.4366 215.211 76.558C215.841 76.6794 216.662 76.5514 217.672 76.1708L218.004 76.0428C219.106 75.613 219.884 75.1274 220.34 74.5893C220.796 74.0512 220.855 73.3622 220.523 72.5222C220.277 71.8988 219.789 71.5214 219.063 71.3935C218.335 71.2655 217.423 71.4165 216.32 71.8496C215.218 72.2794 214.457 72.7814 214.04 73.3589C213.623 73.9331 213.545 74.5466 213.8 75.1963V75.193Z" fill="#F2EEE7"/>
<path d="M222.736 91.8478C220.783 92.3465 219.156 92.2546 217.85 91.5787C216.544 90.9028 215.681 89.7478 215.258 88.1171C214.999 87.1098 215.002 86.1517 215.271 85.2429C215.54 84.334 216.072 83.5367 216.866 82.8542C217.66 82.1718 218.71 81.6632 220.016 81.3318C221.965 80.8331 223.585 80.9216 224.878 81.5976C226.168 82.2702 227.027 83.4284 227.451 85.0723C227.713 86.0927 227.71 87.0541 227.441 87.9564C227.168 88.8587 226.643 89.6494 225.863 90.3286C225.082 91.0078 224.038 91.5131 222.736 91.8478ZM220.8 84.3537C219.638 84.649 218.805 85.0493 218.3 85.5513C217.794 86.0533 217.647 86.703 217.85 87.497C218.054 88.2779 218.496 88.7701 219.182 88.9702C219.868 89.1704 220.793 89.1212 221.955 88.8259C223.116 88.5306 223.943 88.1303 224.432 87.6315C224.921 87.1328 225.065 86.4864 224.859 85.6891C224.655 84.9082 224.219 84.416 223.546 84.2126C222.873 84.0092 221.958 84.0551 220.797 84.3537H220.8Z" fill="#F2EEE7"/>
<path d="M221.82 102.676C220.602 102.846 219.612 102.584 218.844 101.882C218.079 101.183 217.584 100.044 217.357 98.4759C217.246 97.7048 217.206 97.0322 217.236 96.4613C217.266 95.8904 217.367 95.3096 217.538 94.719L220.242 94.3351C220.035 94.9717 219.884 95.6509 219.792 96.3694C219.7 97.088 219.694 97.7114 219.769 98.2397C219.854 98.8368 220.012 99.2437 220.238 99.4701C220.465 99.6932 220.73 99.7851 221.039 99.7391C221.246 99.7096 221.419 99.6341 221.567 99.5094C221.715 99.3848 221.866 99.1387 222.023 98.7712C222.181 98.4037 222.368 97.8394 222.588 97.0749C222.811 96.3399 223.047 95.7263 223.3 95.2342C223.549 94.742 223.884 94.3581 224.3 94.0759C224.717 93.797 225.262 93.6067 225.938 93.5116C227.053 93.3541 227.946 93.6363 228.615 94.3548C229.288 95.0767 229.717 96.1004 229.908 97.4259C230.006 98.1183 230.026 98.7843 229.97 99.4274C229.914 100.071 229.763 100.75 229.521 101.462L227.037 100.881C227.207 100.303 227.345 99.7588 227.444 99.247C227.542 98.7351 227.555 98.2298 227.486 97.7278C227.358 96.8353 227.03 96.4252 226.502 96.4974C226.312 96.5236 226.148 96.6057 226.01 96.7435C225.872 96.8813 225.741 97.1274 225.609 97.485C225.481 97.8426 225.317 98.3643 225.117 99.0567C224.93 99.7326 224.717 100.323 224.484 100.825C224.248 101.327 223.926 101.737 223.516 102.049C223.106 102.364 222.542 102.571 221.823 102.672L221.82 102.676Z" fill="#F2EEE7"/>
<path d="M7.71374 132.711L7.35938 130.778L16.2742 129.049L15.7065 125.952L17.2946 125.644L18.7875 133.771L17.1994 134.079L16.6318 130.982L7.71702 132.711H7.71374Z" fill="#F2EEE7"/>
<path d="M17.7005 139.21C17.7333 139.338 17.7628 139.483 17.7924 139.637C17.8219 139.795 17.835 139.929 17.835 140.047L16.0993 140.336C16.0927 140.231 16.0796 140.11 16.0599 139.965C16.0402 139.821 16.014 139.696 15.9877 139.588C15.886 139.191 15.7154 138.84 15.466 138.535C15.22 138.229 14.9017 138.016 14.5145 137.891C14.1274 137.767 13.6811 137.77 13.1791 137.905L9.10725 138.987L8.63477 137.111L16.4898 135.021L16.854 136.464L15.5579 137.094L15.5809 137.183C16.0566 137.311 16.493 137.544 16.8933 137.882C17.2936 138.22 17.5627 138.663 17.7005 139.207V139.21Z" fill="#F2EEE7"/>
<path d="M19.3001 144.421C19.6348 145.441 19.6741 146.291 19.4149 146.97C19.1557 147.649 18.5717 148.148 17.6628 148.463L12.5016 150.258L12.0751 148.962L13.0167 148.227L12.9971 148.168C12.4688 147.974 12.0455 147.718 11.7273 147.41C11.409 147.098 11.1432 146.619 10.9267 145.966C10.6937 145.258 10.6937 144.601 10.9267 144.001C11.1596 143.4 11.6846 142.957 12.4983 142.675C13.2924 142.4 13.9847 142.492 14.5786 142.951C15.1724 143.41 15.6941 144.237 16.1404 145.435L16.6358 146.79L17.0197 146.655C17.502 146.488 17.8105 146.245 17.9417 145.93C18.0729 145.615 18.0697 145.238 17.9253 144.798C17.794 144.401 17.6103 144.04 17.3773 143.715C17.1444 143.391 16.8917 143.076 16.6227 142.767L17.6792 141.75C18.004 142.068 18.3125 142.459 18.6012 142.915C18.8899 143.371 19.1229 143.873 19.3001 144.418V144.421ZM15.1856 146.225C14.8903 145.428 14.572 144.92 14.2308 144.69C13.8862 144.463 13.5122 144.421 13.1053 144.562C12.7378 144.69 12.5115 144.89 12.4261 145.162C12.3408 145.435 12.3605 145.75 12.4786 146.111C12.6558 146.645 12.9511 147.046 13.3711 147.308C13.7911 147.574 14.2931 147.604 14.8804 147.4L15.5334 147.174L15.1888 146.222L15.1856 146.225Z" fill="#F2EEE7"/>
<path d="M22.9635 153.973C23.331 154.826 23.4065 155.59 23.1834 156.269C22.9635 156.949 22.3729 157.503 21.4148 157.939L16.585 160.141L15.8205 158.369L20.3091 156.325C21.4214 155.82 21.7758 155.095 21.3722 154.16C21.0638 153.448 20.6339 153.06 20.0827 152.998C19.5315 152.936 18.849 153.09 18.0386 153.457L14.4129 155.108L13.6484 153.336L21.0638 149.957L21.6544 151.321L20.7914 152.017L20.8341 152.116C21.323 152.184 21.7462 152.391 22.1104 152.739C22.4714 153.083 22.7568 153.497 22.9635 153.973Z" fill="#F2EEE7"/>
<path d="M22.7359 166.819C22.0173 167.222 21.3316 167.265 20.6819 166.946C20.029 166.628 19.4417 165.982 18.92 165.001C18.6476 164.489 18.4475 164.03 18.3261 163.626C18.2014 163.222 18.1227 162.809 18.0898 162.382L19.4942 161.592C19.5204 162.045 19.5893 162.52 19.7107 163.022C19.8288 163.521 19.9929 163.967 20.1963 164.351C20.4457 164.817 20.695 165.116 20.9444 165.244C21.1938 165.372 21.4366 165.368 21.6761 165.237C21.8172 165.158 21.9189 165.047 21.9845 164.906C22.0502 164.765 22.0862 164.535 22.0895 164.223C22.0928 163.911 22.0666 163.469 22.0108 162.891C21.9353 162.327 21.9123 161.835 21.9353 161.418C21.9583 161.001 22.0534 160.643 22.224 160.345C22.3947 160.046 22.6801 159.781 23.0837 159.554C23.7235 159.196 24.3436 159.18 24.9474 159.515C25.5511 159.846 26.0826 160.447 26.542 161.31C26.7815 161.759 26.9653 162.209 27.0899 162.658C27.2146 163.108 27.2999 163.583 27.3393 164.085L25.83 164.233C25.7873 163.813 25.7283 163.413 25.6528 163.035C25.5773 162.658 25.4461 162.297 25.2656 161.956C24.8686 161.208 24.4618 160.952 24.0516 161.185C23.904 161.27 23.8023 161.388 23.7465 161.539C23.6907 161.693 23.6677 161.923 23.6776 162.225C23.6874 162.527 23.7235 162.95 23.7924 163.482C23.8548 164.007 23.881 164.476 23.8712 164.893C23.858 165.309 23.7662 165.673 23.5956 165.995C23.4249 166.313 23.1362 166.586 22.7326 166.812L22.7359 166.819Z" fill="#F2EEE7"/>
<path d="M29.7719 167.231L22.8881 171.641L21.8906 169.997L28.7744 165.588L29.7719 167.231ZM31.9276 164.708C32.0818 164.961 32.1507 165.214 32.1343 165.473C32.1211 165.729 31.9571 165.958 31.6421 166.158C31.3271 166.359 31.0548 166.411 30.8185 166.313C30.5823 166.214 30.3887 166.04 30.2345 165.788C30.0803 165.535 30.0147 165.279 30.0344 165.02C30.054 164.761 30.2181 164.531 30.5331 164.331C30.8481 164.131 31.1171 164.078 31.3501 164.18C31.5798 164.278 31.7733 164.456 31.9276 164.708Z" fill="#F2EEE7"/>
<path d="M27.3683 175.966C27.4995 176.16 27.6472 176.337 27.8112 176.501C27.9753 176.665 28.1361 176.806 28.2936 176.934L27.1386 177.761C26.9516 177.646 26.7383 177.472 26.5021 177.239C26.2658 177.01 26.0493 176.744 25.8491 176.452C25.5866 176.065 25.4095 175.668 25.3209 175.254C25.2323 174.844 25.2782 174.434 25.4652 174.027C25.6523 173.62 26.023 173.217 26.5808 172.82L30.0457 170.342L29.4223 169.42L30.0982 168.938L31.322 169.561L33.0774 169.056L33.7533 170.054L32.29 171.1L33.609 173.043L32.4409 173.876L31.1219 171.934L27.6701 174.401C27.3584 174.624 27.1845 174.874 27.1484 175.149C27.1124 175.425 27.1845 175.697 27.365 175.969L27.3683 175.966Z" fill="#F2EEE7"/>
<path d="M36.8107 177C37.4702 177.836 37.7917 178.62 37.7786 179.349C37.7655 180.081 37.3849 180.756 36.6401 181.373L32.4074 184.897L31.5675 183.834L32.204 182.81L32.1679 182.761C31.6068 182.768 31.1245 182.679 30.7209 182.502C30.3174 182.325 29.9039 181.967 29.484 181.432C29.0246 180.852 28.8048 180.238 28.8212 179.588C28.8376 178.942 29.1788 178.342 29.8449 177.787C30.4978 177.246 31.177 177.085 31.889 177.301C32.601 177.521 33.3688 178.112 34.1924 179.077L35.1143 180.169L35.4293 179.907C35.8263 179.579 36.0298 179.241 36.0495 178.896C36.0659 178.552 35.9346 178.201 35.6524 177.843C35.3932 177.515 35.1012 177.242 34.7731 177.019C34.445 176.799 34.1005 176.593 33.7461 176.399L34.3925 175.07C34.8059 175.254 35.2259 175.507 35.6492 175.835C36.0724 176.16 36.4629 176.547 36.814 176.993L36.8107 177ZM33.5624 180.159C33.0177 179.516 32.5452 179.152 32.1482 179.06C31.7512 178.968 31.3837 179.063 31.049 179.342C30.7472 179.595 30.6028 179.864 30.6159 180.149C30.6291 180.435 30.7537 180.727 30.9834 181.019C31.3279 181.455 31.7414 181.724 32.227 181.826C32.7093 181.925 33.1916 181.777 33.6739 181.377L34.2088 180.93L33.5624 180.163V180.159Z" fill="#F2EEE7"/>
<path d="M43.4646 184.648C44.0978 185.318 44.4226 186.01 44.4456 186.725C44.4653 187.44 44.1011 188.172 43.3497 188.92L39.5567 192.7L38.2443 191.309L41.7682 187.795C42.641 186.925 42.7296 186.121 42.0373 185.383C41.509 184.825 40.9742 184.612 40.4361 184.75C39.898 184.888 39.3107 185.272 38.6741 185.908L35.8261 188.746L34.5137 187.355L40.3377 181.551L41.3482 182.62L40.774 183.579L40.8462 183.657C41.3285 183.549 41.7945 183.592 42.2505 183.789C42.7066 183.982 43.1102 184.268 43.4646 184.645V184.648Z" fill="#F2EEE7"/>
<path d="M43.8457 196.86C43.1271 196.227 42.776 195.439 42.7957 194.501C42.8154 193.563 43.2747 192.555 44.1705 191.479C45.0794 190.39 45.9882 189.763 46.8971 189.606C47.806 189.445 48.623 189.684 49.3514 190.324C49.8074 190.724 50.106 191.141 50.2471 191.578C50.3882 192.014 50.4407 192.437 50.4013 192.847L50.4702 192.906C50.5391 192.778 50.654 192.591 50.8213 192.345C50.9854 192.099 51.1494 191.879 51.3135 191.686L53.164 189.468L54.5979 190.728L47.199 199.606L46.0834 198.625L46.5132 197.566L46.4574 197.516C46.0637 197.628 45.6437 197.648 45.204 197.579C44.7644 197.506 44.3116 197.27 43.8489 196.863L43.8457 196.86ZM45.2697 196.05C45.8012 196.516 46.3032 196.69 46.779 196.568C47.2547 196.447 47.76 196.073 48.2916 195.449L48.4458 195.262C49.0101 194.583 49.3382 193.973 49.4334 193.428C49.5253 192.883 49.289 192.362 48.7214 191.86C48.2817 191.473 47.7928 191.364 47.2515 191.528C46.7101 191.696 46.1621 192.112 45.6043 192.782C45.0466 193.451 44.7381 194.065 44.6823 194.622C44.6266 195.18 44.8202 195.656 45.2664 196.046L45.2697 196.05Z" fill="#F2EEE7"/>
<path d="M58.0119 202.543C57.231 203.672 56.3451 204.335 55.3509 204.535C54.3567 204.735 53.3724 204.476 52.3946 203.764C51.7909 203.324 51.3512 202.796 51.0691 202.176C50.7869 201.556 50.695 200.883 50.7902 200.161C50.8853 199.439 51.1937 198.701 51.7122 197.95C52.4931 196.821 53.3757 196.161 54.36 195.968C55.3443 195.774 56.3254 196.033 57.3032 196.745C57.9135 197.192 58.3597 197.72 58.6452 198.337C58.9273 198.954 59.0258 199.62 58.9339 200.338C58.842 201.057 58.5336 201.792 58.0152 202.543H58.0119ZM53.2871 199.098C52.7916 199.817 52.5291 200.463 52.5062 201.037C52.4832 201.611 52.749 202.1 53.3002 202.504C53.8547 202.907 54.3895 203.003 54.908 202.793C55.4264 202.579 55.9349 202.117 56.4337 201.398C56.9291 200.68 57.1883 200.036 57.2047 199.472C57.2211 198.908 56.9488 198.419 56.3877 198.009C55.8431 197.612 55.3115 197.513 54.7997 197.717C54.2878 197.92 53.7793 198.383 53.2838 199.101L53.2871 199.098Z" fill="#F2EEE7"/>
<path d="M63.1282 210.516L61.4844 209.565L67.0688 199.383L68.7127 200.335L63.1282 210.516Z" fill="#F2EEE7"/>
<path d="M72.234 205.791C73.179 206.257 73.7958 206.825 74.0846 207.494C74.3766 208.16 74.3143 208.938 73.8976 209.824L71.5319 214.867L70.331 214.273L70.4819 213.065L70.4294 213.039C69.9241 213.288 69.4516 213.423 69.012 213.439C68.5723 213.456 68.0506 213.315 67.4502 213.016C66.7939 212.691 66.3379 212.232 66.0852 211.641C65.8326 211.051 65.8916 210.355 66.2624 209.561C66.6266 208.787 67.1746 208.341 67.9095 208.226C68.6445 208.111 69.5862 208.311 70.7313 208.82L72.0175 209.407L72.1914 209.033C72.4112 208.56 72.4604 208.167 72.3325 207.848C72.2045 207.53 71.9387 207.271 71.5352 207.071C71.1677 206.887 70.7871 206.769 70.3999 206.713C70.0127 206.657 69.6157 206.621 69.2121 206.605L69.2449 205.118C69.6944 205.102 70.1801 205.148 70.6985 205.26C71.2169 205.368 71.7287 205.548 72.234 205.798V205.791ZM70.6066 210.073C69.8487 209.732 69.2679 209.607 68.8709 209.699C68.4739 209.791 68.1819 210.037 67.9948 210.434C67.8275 210.795 67.8078 211.1 67.9391 211.353C68.0703 211.605 68.3 211.815 68.6346 211.979C69.1301 212.225 69.6157 212.284 70.0947 212.163C70.5738 212.042 70.9446 211.694 71.2136 211.123L71.5122 210.486L70.6099 210.073H70.6066Z" fill="#F2EEE7"/>
<path d="M85.0895 211.084C85.9885 211.393 86.6021 211.983 86.9302 212.856C87.2583 213.729 87.2026 214.841 86.7662 216.193C86.3298 217.545 85.7162 218.473 84.9255 218.975C84.138 219.477 83.2915 219.576 82.3924 219.271C81.8248 219.077 81.3983 218.811 81.1194 218.48C80.8372 218.145 80.6371 217.804 80.5222 217.45L80.4074 217.41C80.3746 217.604 80.3385 217.817 80.2893 218.043C80.24 218.27 80.1875 218.476 80.1285 218.66L79.0884 221.869L77.2969 221.259L80.9881 209.847L82.4384 210.343L82.3531 211.481L82.4384 211.511C82.7534 211.251 83.1274 211.064 83.5638 210.956C84.0002 210.845 84.5055 210.887 85.083 211.087L85.0895 211.084ZM84.0953 212.397C83.4621 212.18 82.9502 212.223 82.5631 212.521C82.1759 212.82 81.8511 213.365 81.5886 214.149L81.5131 214.382C81.2408 215.228 81.1555 215.921 81.2605 216.459C81.3655 216.997 81.7592 217.381 82.4417 217.614C82.9995 217.804 83.4916 217.709 83.9149 217.331C84.3381 216.951 84.6827 216.354 84.9452 215.537C85.2109 214.72 85.2798 214.04 85.1551 213.502C85.0305 212.964 84.6794 212.593 84.1019 212.397H84.0953Z" fill="#F2EEE7"/>
<path d="M93.1828 213.4C94.2032 213.646 94.925 214.063 95.3483 214.65C95.7716 215.237 95.8733 216.008 95.6535 216.967L94.4034 222.413L93.1073 222.098L93.0023 220.887L92.9432 220.874C92.5036 221.232 92.0705 221.465 91.6439 221.58C91.2174 221.691 90.6793 221.672 90.0296 221.514C89.3209 221.344 88.7795 220.996 88.4055 220.474C88.0347 219.952 87.9461 219.263 88.143 218.404C88.3366 217.567 88.7795 217.009 89.4718 216.734C90.1641 216.458 91.1255 216.445 92.3494 216.688L93.7307 216.973L93.8226 216.569C93.9407 216.061 93.9013 215.664 93.711 215.382C93.5207 215.1 93.2057 214.903 92.7694 214.798C92.3723 214.703 91.9753 214.67 91.5849 214.699C91.1911 214.732 90.7974 214.785 90.4037 214.857L90.1215 213.4C90.5579 213.285 91.0402 213.223 91.5717 213.213C92.1033 213.203 92.6381 213.265 93.1828 213.397V213.4ZM92.4937 217.941C91.68 217.777 91.0894 217.784 90.7187 217.961C90.3479 218.141 90.1149 218.443 90.0165 218.873C89.9279 219.263 89.9738 219.565 90.1543 219.782C90.3348 219.998 90.6038 220.152 90.9647 220.238C91.4996 220.366 91.9852 220.32 92.4281 220.093C92.8678 219.87 93.1598 219.447 93.3042 218.827L93.4617 218.138L92.4937 217.934V217.941Z" fill="#F2EEE7"/>
<path d="M102.876 223.844L96.7207 222.873L96.8946 221.701L101.669 216.714L97.9544 216.127L98.1742 214.667L103.988 215.585L103.795 216.878L99.1126 221.741L103.093 222.371L102.873 223.844H102.876Z" fill="#F2EEE7"/>
<path d="M112.599 223.218C112.829 223.231 113.055 223.218 113.281 223.185C113.508 223.149 113.718 223.106 113.908 223.057L113.839 224.501C113.636 224.583 113.373 224.648 113.052 224.698C112.73 224.747 112.395 224.763 112.044 224.747C111.585 224.724 111.172 224.622 110.801 224.445C110.43 224.268 110.145 223.979 109.944 223.579C109.744 223.178 109.662 222.63 109.695 221.935L109.905 217.604L108.812 217.548L108.852 216.705L110.082 216.091L110.765 214.355L111.946 214.415L111.857 216.242L114.161 216.36L114.092 217.82L111.788 217.702L111.578 222.017C111.559 222.407 111.644 222.699 111.834 222.9C112.025 223.1 112.277 223.208 112.599 223.224V223.218Z" fill="#F2EEE7"/>
<path d="M119.205 216.176C120.291 216.153 121.16 216.465 121.806 217.118C122.453 217.771 122.791 218.689 122.814 219.88L122.833 220.865L117.475 220.983C117.511 221.741 117.728 222.322 118.125 222.728C118.522 223.135 119.067 223.329 119.756 223.316C120.274 223.303 120.743 223.24 121.16 223.122C121.577 223.004 122.003 222.84 122.436 222.627L122.469 224.179C122.072 224.382 121.662 224.536 121.236 224.638C120.809 224.74 120.297 224.795 119.697 224.809C118.909 224.825 118.204 224.684 117.584 224.385C116.964 224.087 116.475 223.624 116.117 222.994C115.759 222.367 115.572 221.58 115.553 220.638C115.523 219.214 115.845 218.118 116.517 217.357C117.19 216.593 118.086 216.199 119.201 216.176H119.205ZM119.234 217.607C118.725 217.616 118.315 217.794 118.01 218.135C117.702 218.476 117.531 218.975 117.495 219.631L120.983 219.556C120.96 218.981 120.809 218.512 120.527 218.145C120.245 217.777 119.815 217.6 119.234 217.61V217.607Z" fill="#F2EEE7"/>
<path d="M128.918 215.507C129.046 215.494 129.19 215.487 129.345 215.481C129.499 215.477 129.633 215.481 129.745 215.504V217.311C129.646 217.302 129.525 217.295 129.384 217.292C129.243 217.292 129.118 217.292 129.01 217.305C128.613 217.344 128.249 217.466 127.917 217.666C127.586 217.869 127.33 218.155 127.15 218.529C126.969 218.903 126.903 219.352 126.953 219.884L127.353 224.185L125.476 224.369L124.705 216.074L126.152 215.933L126.556 217.344L126.644 217.334C126.841 216.872 127.136 216.465 127.524 216.114C127.911 215.763 128.38 215.559 128.925 215.504L128.918 215.507Z" fill="#F2EEE7"/>
<path d="M135.461 214.503C135.589 214.483 135.73 214.463 135.885 214.447C136.039 214.43 136.173 214.43 136.285 214.444L136.4 216.245C136.298 216.242 136.177 216.245 136.036 216.251C135.894 216.258 135.77 216.271 135.662 216.291C135.268 216.356 134.91 216.501 134.592 216.724C134.274 216.947 134.034 217.252 133.877 217.636C133.719 218.02 133.683 218.476 133.765 219.001L134.434 223.266L132.571 223.575L131.281 215.346L132.715 215.11L133.204 216.494L133.293 216.481C133.46 216.009 133.729 215.582 134.093 215.205C134.461 214.827 134.913 214.594 135.455 214.506L135.461 214.503Z" fill="#F2EEE7"/>
<path d="M138.099 210.818C138.381 210.756 138.637 210.775 138.87 210.874C139.1 210.975 139.254 211.212 139.333 211.582C139.412 211.953 139.366 212.235 139.198 212.429C139.031 212.623 138.805 212.754 138.522 212.816C138.24 212.878 137.981 212.859 137.751 212.751C137.518 212.646 137.364 212.406 137.285 212.035C137.207 211.664 137.253 211.386 137.423 211.195C137.594 211.005 137.82 210.88 138.102 210.815L138.099 210.818ZM139.684 213.755L141.4 221.898L139.556 222.308L137.84 214.165L139.684 213.755Z" fill="#F2EEE7"/>
<path d="M146.873 219.031C147.093 218.968 147.309 218.886 147.513 218.781C147.72 218.676 147.903 218.568 148.071 218.46L148.438 219.854C148.268 219.998 148.038 220.143 147.746 220.294C147.454 220.445 147.139 220.566 146.804 220.658C146.361 220.779 145.938 220.815 145.531 220.766C145.124 220.714 144.767 220.53 144.455 220.212C144.143 219.893 143.9 219.401 143.723 218.725L142.621 214.539L141.564 214.831L141.348 214.014L142.332 213.039L142.46 211.172L143.602 210.854L144.068 212.619L146.292 211.999L146.663 213.41L144.438 214.03L145.538 218.2C145.636 218.578 145.807 218.83 146.046 218.958C146.289 219.086 146.561 219.109 146.87 219.024L146.873 219.031Z" fill="#F2EEE7"/>
<path d="M156.168 212.934C156.617 214.24 156.634 215.366 156.22 216.317C155.807 217.266 155.032 217.945 153.904 218.355C153.208 218.608 152.532 218.673 151.876 218.552C151.22 218.43 150.632 218.122 150.114 217.626C149.592 217.131 149.185 216.449 148.884 215.576C148.434 214.27 148.418 213.151 148.831 212.213C149.244 211.274 150.016 210.602 151.144 210.191C151.85 209.936 152.529 209.867 153.185 209.981C153.838 210.096 154.425 210.401 154.944 210.894C155.462 211.386 155.872 212.065 156.171 212.934H156.168ZM150.705 214.916C150.99 215.746 151.354 216.337 151.797 216.688C152.24 217.039 152.782 217.098 153.421 216.865C154.061 216.632 154.445 216.239 154.576 215.681C154.708 215.123 154.629 214.427 154.343 213.597C154.058 212.767 153.694 212.18 153.254 211.839C152.814 211.497 152.27 211.445 151.62 211.681C150.99 211.911 150.606 212.298 150.472 212.846C150.337 213.394 150.413 214.086 150.698 214.916H150.705Z" fill="#F2EEE7"/>
<path d="M160.527 206.264C160.645 206.212 160.776 206.156 160.924 206.1C161.068 206.044 161.196 206.008 161.311 205.992L161.869 207.704C161.77 207.727 161.652 207.76 161.518 207.806C161.383 207.849 161.265 207.895 161.167 207.941C160.803 208.108 160.494 208.341 160.241 208.64C159.989 208.938 159.835 209.296 159.779 209.709C159.723 210.123 159.799 210.572 160.009 211.058L161.715 215.008L159.989 215.792L156.701 208.174L158.03 207.57L158.847 208.777L158.929 208.741C158.975 208.239 159.126 207.757 159.385 207.298C159.644 206.838 160.025 206.494 160.527 206.264Z" fill="#F2EEE7"/>
<path d="M162.13 202.028C162.386 201.894 162.642 201.845 162.888 201.881C163.137 201.917 163.344 202.104 163.511 202.442C163.679 202.78 163.705 203.065 163.59 203.298C163.475 203.531 163.288 203.715 163.032 203.849C162.773 203.984 162.52 204.03 162.271 203.99C162.022 203.948 161.812 203.757 161.644 203.419C161.477 203.081 161.451 202.799 161.569 202.57C161.687 202.343 161.874 202.159 162.13 202.025V202.028ZM164.391 204.453L168.069 211.881L166.389 212.761L162.711 205.332L164.391 204.453Z" fill="#F2EEE7"/>
<path d="M169.307 201.46C170.209 200.912 171.01 200.699 171.712 200.817C172.414 200.939 173.008 201.421 173.497 202.267L176.276 207.081L175.131 207.78L174.235 206.982L174.183 207.015C174.107 207.586 173.953 208.065 173.723 208.449C173.494 208.833 173.09 209.2 172.516 209.552C171.889 209.932 171.266 210.07 170.646 209.958C170.026 209.847 169.497 209.414 169.058 208.656C168.631 207.914 168.572 207.199 168.887 206.507C169.202 205.814 169.881 205.122 170.931 204.423L172.119 203.646L171.912 203.288C171.653 202.838 171.358 202.579 171.03 202.51C170.702 202.441 170.344 202.527 169.957 202.763C169.606 202.976 169.297 203.235 169.038 203.537C168.779 203.839 168.529 204.157 168.293 204.492L167.105 203.642C167.342 203.249 167.65 202.858 168.024 202.474C168.402 202.09 168.828 201.752 169.31 201.46H169.307ZM171.876 205.22C171.177 205.68 170.757 206.106 170.613 206.5C170.469 206.894 170.505 207.278 170.725 207.658C170.921 208.003 171.161 208.19 171.437 208.216C171.715 208.242 172.011 208.16 172.329 207.967C172.801 207.678 173.12 207.297 173.287 206.822C173.454 206.346 173.379 205.834 173.064 205.286L172.713 204.679L171.879 205.224L171.876 205.22Z" fill="#F2EEE7"/>
<path d="M180.272 204.308L178.713 205.401L172.299 195.751L173.857 194.659L180.272 204.308Z" fill="#F2EEE7"/>
<path d="M184.037 190.58C184.759 189.95 185.57 189.717 186.465 189.885C187.361 190.052 188.26 190.675 189.156 191.765C190.055 192.851 190.508 193.871 190.514 194.826C190.524 195.781 190.166 196.571 189.445 197.201C188.989 197.598 188.549 197.835 188.126 197.91C187.702 197.986 187.312 197.979 186.957 197.9L186.866 197.979C187.01 198.107 187.164 198.251 187.332 198.412C187.496 198.573 187.64 198.724 187.761 198.875L189.894 201.454L188.457 202.707L180.881 193.54L182.046 192.526L182.948 193.192L183.017 193.133C182.964 192.723 183.004 192.296 183.138 191.856C183.273 191.417 183.571 190.994 184.034 190.59L184.037 190.58ZM184.615 192.135C184.106 192.578 183.873 193.051 183.922 193.543C183.972 194.038 184.254 194.606 184.769 195.246L184.923 195.433C185.484 196.112 186.016 196.545 186.518 196.735C187.02 196.923 187.545 196.778 188.093 196.299C188.542 195.909 188.719 195.43 188.621 194.859C188.526 194.291 188.204 193.678 187.663 193.021C187.122 192.365 186.593 191.952 186.078 191.781C185.566 191.61 185.074 191.729 184.611 192.132L184.615 192.135Z" fill="#F2EEE7"/>
<path d="M194.957 191.781L193.602 193.129L185.682 184.74L187.037 183.391L194.957 191.781Z" fill="#F2EEE7"/>
<path d="M195.918 178.522L201.949 184.097L200.958 185.229L200.009 184.704L199.95 184.772C200.082 185.265 200.065 185.75 199.904 186.229C199.74 186.705 199.491 187.138 199.15 187.529C198.543 188.221 197.893 188.605 197.201 188.674C196.508 188.743 195.777 188.421 195.006 187.709L191.068 184.067L192.332 182.627L195.993 186.009C196.889 186.84 197.673 186.872 198.339 186.111C198.848 185.534 199.018 184.973 198.858 184.428C198.697 183.887 198.28 183.306 197.614 182.689L194.664 179.962L195.928 178.522H195.918Z" fill="#F2EEE7"/>
<path d="M199.929 172.961C200.008 172.856 200.1 172.741 200.201 172.623C200.303 172.505 200.398 172.406 200.49 172.337L201.779 173.568C201.704 173.637 201.615 173.722 201.52 173.827C201.422 173.932 201.34 174.027 201.274 174.119C201.031 174.444 200.871 174.802 200.789 175.189C200.707 175.576 200.736 175.966 200.88 176.353C201.025 176.744 201.3 177.102 201.711 177.426L205.051 180.055L203.902 181.593L197.465 176.524L198.347 175.34L199.627 175.999L199.683 175.927C199.489 175.464 199.397 174.966 199.411 174.434C199.424 173.902 199.598 173.414 199.932 172.964L199.929 172.961Z" fill="#F2EEE7"/>
<path d="M199.373 168.433C199.537 168.187 199.737 168.019 199.97 167.931C200.206 167.842 200.476 167.904 200.781 168.118C201.086 168.331 201.24 168.57 201.25 168.83C201.256 169.089 201.181 169.341 201.017 169.588C200.853 169.834 200.653 169.998 200.413 170.086C200.174 170.172 199.901 170.109 199.599 169.893C199.294 169.679 199.14 169.443 199.137 169.184C199.134 168.928 199.212 168.675 199.376 168.429L199.373 168.433ZM202.487 169.45L209.18 174.161L208.114 175.759L201.42 171.048L202.487 169.45Z" fill="#F2EEE7"/>
<path d="M211.79 169.988L203.246 168.419L204.27 166.664L209.119 167.714C209.418 167.78 209.739 167.865 210.084 167.976C210.428 168.085 210.707 168.196 210.924 168.304L210.953 168.252C210.757 168.094 210.53 167.885 210.281 167.622C210.031 167.36 209.808 167.11 209.611 166.871L206.422 162.973L207.446 161.217L212.82 168.219L211.79 169.988Z" fill="#F2EEE7"/>
<path d="M209.341 156.952C209.82 155.948 210.492 155.301 211.355 155.013C212.218 154.724 213.166 154.839 214.206 155.364L215.066 155.797L212.7 160.735C213.373 161.05 213.974 161.122 214.508 160.945C215.043 160.768 215.463 160.364 215.765 159.731C215.995 159.252 216.155 158.796 216.244 158.363C216.336 157.929 216.388 157.464 216.402 156.968L217.757 157.654C217.75 158.107 217.694 158.553 217.586 158.989C217.478 159.426 217.291 159.921 217.025 160.472C216.677 161.197 216.231 161.775 215.686 162.205C215.142 162.631 214.518 162.864 213.809 162.9C213.101 162.936 212.336 162.746 211.513 162.329C210.269 161.699 209.472 160.902 209.121 159.937C208.77 158.973 208.842 157.975 209.337 156.945L209.341 156.952ZM210.591 157.582C210.364 158.051 210.328 158.504 210.482 158.94C210.637 159.376 210.988 159.764 211.539 160.098L213.078 156.883C212.572 156.64 212.097 156.561 211.647 156.647C211.198 156.735 210.847 157.044 210.591 157.578V157.582Z" fill="#F2EEE7"/>
<path d="M213.237 147.762C213.286 147.637 213.342 147.506 213.411 147.362C213.476 147.217 213.545 147.099 213.614 147.007L215.179 147.834C215.123 147.923 215.061 148.028 214.995 148.156C214.93 148.284 214.877 148.399 214.835 148.504C214.687 148.884 214.621 149.271 214.644 149.668C214.667 150.065 214.798 150.43 215.038 150.767C215.278 151.105 215.638 151.371 216.121 151.571L220.025 153.182L219.323 154.98L211.793 151.873L212.334 150.489L213.739 150.771L213.771 150.685C213.463 150.292 213.243 149.839 213.119 149.324C212.994 148.809 213.033 148.287 213.237 147.765V147.762Z" fill="#F2EEE7"/>
<path d="M221.381 141.941C222.159 142.2 222.661 142.683 222.884 143.388C223.107 144.094 223.052 144.976 222.717 146.039C222.543 146.594 222.353 147.056 222.153 147.427C221.952 147.798 221.713 148.139 221.434 148.457L219.912 147.952C220.217 147.621 220.502 147.24 220.774 146.81C221.047 146.377 221.25 145.954 221.381 145.534C221.542 145.029 221.582 144.635 221.5 144.363C221.418 144.087 221.25 143.907 220.994 143.821C220.843 143.772 220.692 143.769 220.548 143.818C220.4 143.867 220.217 143.995 219.994 144.208C219.77 144.418 219.472 144.743 219.104 145.18C218.753 145.623 218.425 145.98 218.114 146.249C217.802 146.518 217.484 146.692 217.155 146.771C216.827 146.85 216.443 146.817 216.007 146.673C215.315 146.443 214.878 145.987 214.698 145.308C214.517 144.628 214.576 143.821 214.872 142.883C215.026 142.394 215.22 141.951 215.449 141.547C215.682 141.144 215.961 140.757 216.289 140.379L217.428 141.406C217.159 141.728 216.916 142.043 216.703 142.361C216.486 142.676 216.322 143.021 216.204 143.391C215.948 144.202 216.043 144.681 216.489 144.829C216.65 144.881 216.804 144.878 216.952 144.812C217.1 144.747 217.277 144.609 217.487 144.392C217.697 144.176 217.966 143.861 218.297 143.441C218.625 143.034 218.94 142.689 219.242 142.414C219.544 142.138 219.866 141.954 220.21 141.862C220.555 141.771 220.942 141.8 221.381 141.944V141.941Z" fill="#F2EEE7"/>
<path d="M217.016 134.995C217.259 133.948 217.666 133.207 218.24 132.774C218.814 132.34 219.566 132.235 220.498 132.465L225.797 133.761L225.488 135.093L224.31 135.202L224.297 135.261C224.642 135.713 224.871 136.16 224.98 136.596C225.088 137.032 225.065 137.587 224.911 138.253C224.743 138.981 224.402 139.536 223.893 139.917C223.385 140.297 222.712 140.386 221.879 140.182C221.065 139.982 220.524 139.526 220.258 138.814C219.992 138.102 219.979 137.115 220.222 135.858L220.504 134.44L220.11 134.345C219.615 134.224 219.231 134.263 218.952 134.457C218.676 134.654 218.486 134.975 218.381 135.425C218.286 135.835 218.253 136.238 218.283 136.642C218.312 137.046 218.361 137.449 218.43 137.856L217.01 138.141C216.898 137.692 216.839 137.197 216.833 136.652C216.826 136.107 216.888 135.556 217.016 134.998V134.995ZM221.436 135.713C221.272 136.547 221.278 137.154 221.452 137.534C221.626 137.915 221.922 138.155 222.338 138.256C222.716 138.348 223.011 138.302 223.224 138.119C223.437 137.935 223.585 137.656 223.67 137.288C223.798 136.74 223.752 136.238 223.536 135.786C223.319 135.333 222.909 135.031 222.305 134.883L221.636 134.719L221.436 135.713Z" fill="#F2EEE7"/>
<path d="M226.635 128.849L226.316 130.759L215.102 128.79L215.42 126.88L226.635 128.849Z" fill="#F2EEE7"/>
</svg>
