<svg xmlns="http://www.w3.org/2000/svg" viewBox="0 0 37.05 21.79"><defs><style>.cls-1{fill:#fff;}</style></defs><g id="Capa_2" data-name="Capa 2"><g id="Línea"><path class="cls-1" d="M.57,21.32C-1.48,19.42,2,16,11.81,5.38l1.88-2,1-1A9.71,9.71,0,0,1,16.34.72a4.48,4.48,0,0,1,5.07.14,5.91,5.91,0,0,1,1,.94l.57.62,1,1.06c2.57,2.83,5,5.62,7.13,8.12,4.19,5,6.84,8.86,5.74,9.72s-4.74-2.15-9.3-6.66C25.22,12.4,22.71,9.76,20.16,7l-1-1-.41-.44s0,0,0,0h0L15.62,8.92C5.77,19.53,2.61,23.21.57,21.32Z"/></g></g></svg>