<svg xmlns="http://www.w3.org/2000/svg" viewBox="0 0 39.12 35.52"><defs><style>.cls-1{fill:#fff;}</style></defs><g id="Capa_2" data-name="Capa 2"><g id="Línea"><path class="cls-1" d="M25,15.51c-6.09-.07-13.16-.21-18.11.16C9.11,13.36,11.3,11.1,13.17,9c4-4.38,6.61-7.85,5.78-8.83s-4.28,1.61-8.73,5.66C8,7.89,5.52,10.28,3,12.75l-.94.93-.47.47a6.27,6.27,0,0,0-.82.91,4.35,4.35,0,0,0-.12,4.79,6,6,0,0,0,.83,1l.51.5.91.92L4.7,24.07C14.1,33.55,17.12,36.86,19,35S17.51,30.17,8.11,20.69l-.93-.93c4.92.45,11.78.48,17.7.55,10.62.12,14.17.34,14.24-2.24S35.61,15.63,25,15.51Z"/></g></g></svg>