<svg xmlns="http://www.w3.org/2000/svg" viewBox="0 0 30.93 43.68"><defs><style>.cls-1{fill:#fff;}</style></defs><g id="Capa_2" data-name="Capa 2"><g id="Línea"><path class="cls-1" d="M18,21.35c-2.82,0-2,7.77-2,11.9,0,3,1.7,3,2,3s2,0,2-3C20,29.12,20.6,21.35,18,21.35Z"/><circle class="cls-1" cx="17.93" cy="16.57" r="2"/><path class="cls-1" d="M30.77,22.32c0-2.51-.06-5.07-.08-7.64l0-3.95c0-.56,0-1.15,0-1.69a2.67,2.67,0,0,0-.19-.69,1.69,1.69,0,0,0-.35-.56,1.83,1.83,0,0,0-.59-.42.52.52,0,0,0-.33,0l-.36,0-1.45.09-.72,0-.36,0-.25,0-.94.15L23.19,8l-3.69.58-7,1.08-3.3.48-3,.41-.63.08-.43,0a.64.64,0,0,1-.25-.12C5.71,9.86,6.6,9.24,7.41,8.7c1.88-1.24,3.47-2.21,4.75-3l.15-.09c1.23-.68,2.38-1.32,3.43-1.93l.62-.37.25-.16a.23.23,0,0,1,.27,0l.16.23.13.16a4.4,4.4,0,0,0,.35.39,6.59,6.59,0,0,0,.74.67,8,8,0,0,0,1.53,1,9.46,9.46,0,0,0,2.73.81,12.23,12.23,0,0,0,3.54,0c1.59-.25,1.89-.6,1.87-.9s-.44-.66-1.95-.89A25.22,25.22,0,0,1,22.93,4a8.19,8.19,0,0,1-2-.8,5.28,5.28,0,0,1-1-.7,3.19,3.19,0,0,1-.45-.45,1.33,1.33,0,0,1-.21-.26,4,4,0,0,1-.39-.57c-.14-.19-.29-.34-.43-.51S18.19.37,18,.28A1.9,1.9,0,0,0,16.71,0a8.94,8.94,0,0,0-1.38.59c-.34.19-.69.38-1,.59L10.51,3.27l-1.45.8c-1,.51-2.12,1.1-3.39,1.82A30.39,30.39,0,0,0,2.32,8.08a8.79,8.79,0,0,0-1,.85,4.37,4.37,0,0,0-1,1.62c0,.17-.06.35-.09.52a3.41,3.41,0,0,0,0,.42c0,.21,0,.42,0,.62L.1,13.34C0,16.62,0,20.37,0,24.71c0,2.17.05,4.49.11,7q.06,1.86.12,3.84c.06,1.34.11,2.66.25,4.19,0,.21.06.43.12.77A1.75,1.75,0,0,0,.84,41c0,.13.18.19.14.38l.29.38.54.48.59.42a5.58,5.58,0,0,0,1.23.58,6.82,6.82,0,0,0,1.42.33,11.32,11.32,0,0,0,1.43.08,38.48,38.48,0,0,0,6.34-.77c2.36-.43,5-1,7.94-1.65l4.62-1,2.47-.58,1.08-.24a2.83,2.83,0,0,0,1-.5,2.49,2.49,0,0,0,.72-.89,2.77,2.77,0,0,0,.25-1.14C30.88,32.46,30.82,27.5,30.77,22.32ZM27.63,11l0,3.83c0,2.56-.05,5.1-.07,7.59-.05,4.83-.1,9.45-.15,13.57,0,.06,0,.12-.06.14l-.23,0-2.44.53-4.55,1c-2.89.6-5.49,1.1-7.77,1.48a37.88,37.88,0,0,1-5.71.64A5,5,0,0,1,5,39.53a1.91,1.91,0,0,1-.43-.19l-.08-.07h0c-.12-1.25-.18-2.64-.24-3.92s-.09-2.56-.13-3.79c-.06-2.45-.12-4.76-.18-6.91-.08-4.26-.15-7.95-.15-11.12a3.22,3.22,0,0,0,.81,0l1.22-.13.87-.11,6.47-.9,13.88-2c.24,0,.57-.16.61.05A5.26,5.26,0,0,1,27.63,11Z"/></g></g></svg>