<svg xmlns="http://www.w3.org/2000/svg" viewBox="0 0 32.29 32.79"><defs><style>.cls-1{fill:#fff;}</style></defs><g id="Capa_2" data-name="Capa 2"><g id="Línea"><path class="cls-1" d="M19.87,16.28c2.62-2.58,5.17-5.15,7.27-7.47A37.78,37.78,0,0,0,31.4,3.4C32.29,1.92,32.59.65,32,.29s-1.53,0-2.93.92a52,52,0,0,0-5.16,4.36C21.59,7.7,19,10.24,16.43,12.84l-2.24-2.25c-4.32-4.37-7.14-7.33-9-9A7.29,7.29,0,0,0,2.92.08a2.14,2.14,0,0,0-1.64.2A1.3,1.3,0,0,0,.6,1.85,6.8,6.8,0,0,0,2,4.51C3.53,6.65,6.45,9.59,10.78,14L13,16.24l-2.44,2.42C1.79,27.26-1.3,30,.48,31.83s4.66-1.13,13.46-9.75l2.45-2.39c2.62,2.68,5.22,5.32,7.5,7.52,4,3.77,6.94,6.32,8.06,5.38S30.9,28.17,27.23,24C25.11,21.62,22.52,19,19.87,16.28Z"/></g></g></svg>