<svg xmlns="http://www.w3.org/2000/svg" viewBox="0 0 44.45 44.19"><defs><style>.cls-1{fill:#fff;}</style></defs><g id="Capa_2" data-name="Capa 2"><g id="Línea"><path class="cls-1" d="M43.6,15.3A20.54,20.54,0,0,0,39,6.7,20,20,0,0,0,28.79.76,21.77,21.77,0,0,0,25.68.21L24.08,0,22.41,0a22.38,22.38,0,0,0-6.57,1.18A24.86,24.86,0,0,0,4.72,8.61a17.81,17.81,0,0,0-2,2.85c-.28.51-.52,1.06-.77,1.59l-.55,1.53A26.27,26.27,0,0,0,.1,20.81,22.4,22.4,0,0,0,2.05,32.36a20.08,20.08,0,0,0,6,7.47,13.24,13.24,0,0,0,1.57,1.1,15.74,15.74,0,0,0,1.48.87,16.29,16.29,0,0,0,2.51,1.06,26.41,26.41,0,0,0,8.19,1.33A27.15,27.15,0,0,0,29,43.32a21.36,21.36,0,0,0,10.4-6,18.82,18.82,0,0,0,4.23-7.77,20.1,20.1,0,0,0,.72-4.87l0-.26A27.08,27.08,0,0,0,43.6,15.3ZM27.74,38.38a22.57,22.57,0,0,1-5.91.63,21.6,21.6,0,0,1-6.58-1.07,14.26,14.26,0,0,1-1.73-.7,11,11,0,0,1-1.07-.6,9,9,0,0,1-1.19-.78,15.5,15.5,0,0,1-4.7-5.42,16.85,16.85,0,0,1-1.5-4.17,20,20,0,0,1-.39-4.9,22.75,22.75,0,0,1,.93-5.24c.15-.44.29-.88.44-1.32s.33-.78.49-1.18.41-.76.65-1.13.48-.75.78-1.1a20.64,20.64,0,0,1,9.17-6.46,18.48,18.48,0,0,1,5.48-1.1c.45,0,.9,0,1.36,0L25.36,4a18.46,18.46,0,0,1,2.71.45,16,16,0,0,1,8.45,4.88,16.74,16.74,0,0,1,3.61,7.23A24.65,24.65,0,0,1,40.61,24a22.6,22.6,0,0,1-1.09,4.28A16,16,0,0,1,35.91,34,17.19,17.19,0,0,1,27.74,38.38Z"/><path class="cls-1" d="M31.65,26.89a1.81,1.81,0,0,0-2.48.12c-.48.33-1,.78-1.78,1.28a9.81,9.81,0,0,1-2.9,1.34,9.26,9.26,0,0,1-1.93.28,9,9,0,0,1-2-.13,12.06,12.06,0,0,1-3.54-1.36C15,27.27,13.74,26,12.78,26.48c-.46.26-.56.93-.2,1.86A8,8,0,0,0,15,31.39a11.74,11.74,0,0,0,4.8,2.29,12,12,0,0,0,2.9.23,13.61,13.61,0,0,0,2.8-.41,12.55,12.55,0,0,0,4.15-1.94,8.89,8.89,0,0,0,2.1-2C32.6,28.29,32.49,27.52,31.65,26.89Z"/><path class="cls-1" d="M27.53,18.88a2.3,2.3,0,0,0,1.33.68A2.2,2.2,0,0,0,30.64,19l.14-.13,0,0a2.56,2.56,0,0,0,.83-1.32,2.43,2.43,0,0,0,0-1.06,2.29,2.29,0,0,0-.87-1.4,3,3,0,0,0-.55-.32,2.28,2.28,0,0,0-.66-.16,2.48,2.48,0,0,0-1.36.24,2.57,2.57,0,0,0-1.32,1.71,2.48,2.48,0,0,0,0,1.18A2.39,2.39,0,0,0,27.53,18.88Z"/><path class="cls-1" d="M14.23,18.87l0,0,.14.13a2.24,2.24,0,0,0,1.79.53,2.3,2.3,0,0,0,1.33-.68,2.47,2.47,0,0,0,.62-1.14,2.61,2.61,0,0,0,0-1.18,2.55,2.55,0,0,0-1.33-1.71,2.44,2.44,0,0,0-1.35-.24,2.28,2.28,0,0,0-.66.16,2.73,2.73,0,0,0-.56.32,2.32,2.32,0,0,0-.86,1.4,2.43,2.43,0,0,0,0,1.06A2.5,2.5,0,0,0,14.23,18.87Z"/></g></g></svg>