<svg xmlns="http://www.w3.org/2000/svg" viewBox="0 0 35.89 35.86"><defs><style>.cls-1{fill:#fff;}</style></defs><g id="Capa_2" data-name="Capa 2"><g id="Línea"><path class="cls-1" d="M13.46,22.09l1.12,1.12,1,.94a3.81,3.81,0,0,0,1.24.86A3.61,3.61,0,0,0,19.66,25,3.85,3.85,0,0,0,20.89,24l.89-.9c1.54-1.58,3-3.14,4.25-4.57,2.46-2.87,3.92-5.17,2.93-6s-3.31.65-6.09,3c-.83.71-1.7,1.51-2.59,2.35.16-2.8.09-6.16.06-9.14-.08-6.65.07-8.88-2.51-8.82s-2.37,2.28-2.29,8.88c0,2.84,0,6,.23,8.75-5.07-5-6.81-6.78-8.51-5.06S7.55,16.24,13.46,22.09Z"/><path class="cls-1" d="M35.6,27.39c-.42-1.72-.92-2.56-1.54-2.59S33,25.88,32.74,27.48a19.48,19.48,0,0,1-.56,2.57,2.85,2.85,0,0,1-.48,1,.53.53,0,0,1-.4.23,4.4,4.4,0,0,0-.58,0h-1l-2.3-.06-5-.12c-3.42-.08-7-.05-10.23,0-1.62,0-3.1,0-4.41-.05-.65,0-1.27-.05-1.81-.09-.28,0-.51-.05-.73-.08l-.26,0c-.06,0,0,0,0,0s0,.12-.14-.2a4.91,4.91,0,0,1-.29-1.2c-.13-.9-.18-1.76-.31-2.44C4,25.56,3.41,24.77,2.45,24.8s-1.54.43-2,1.84a9.86,9.86,0,0,0-.43,3,7.78,7.78,0,0,0,.37,2.48,4.91,4.91,0,0,0,2.71,3,6,6,0,0,0,.77.24l.6.12a10.2,10.2,0,0,0,1.06.13c.69.07,1.37.1,2.08.13,1.42,0,2.93,0,4.58,0,3.3,0,6.75,0,10.16,0,1.7,0,3.39,0,5,0,.82,0,1.62,0,2.43-.09L31,35.66a8.56,8.56,0,0,0,1.59-.3,4.65,4.65,0,0,0,2.57-2.24,6.28,6.28,0,0,0,.69-2.39A10.34,10.34,0,0,0,35.6,27.39Z"/></g></g></svg>