<svg xmlns="http://www.w3.org/2000/svg" viewBox="0 0 46.43 19.43"><defs><style>.cls-1{fill:#fff;}</style></defs><g id="Capa_2" data-name="Capa 2"><g id="Línea"><path class="cls-1" d="M43.28,3.56l-.51-.51a6.25,6.25,0,0,0,.58-1.84A1.9,1.9,0,0,0,43.3.44.41.41,0,0,0,43,.13a.93.93,0,0,0-.46.07A1.63,1.63,0,0,0,42,.5,18.58,18.58,0,0,0,40.4,1.91l-.11.1a3.47,3.47,0,0,0-.44.38c-.07.07-.11.13-.17.2a43.51,43.51,0,0,1-4.75,3.93,23.72,23.72,0,0,1-8.43,3.73,20.93,20.93,0,0,1-3.54.36h-.2A18.59,18.59,0,0,1,17,9.76a21.58,21.58,0,0,1-6.83-3.83A37.82,37.82,0,0,1,6.4,2.31a15.1,15.1,0,0,0-2.07-2A3.72,3.72,0,0,0,3.94.11,2.33,2.33,0,0,0,3.58,0a2,2,0,0,0-.81,0,1,1,0,0,0-.66.46A1.38,1.38,0,0,0,2,1a1.9,1.9,0,0,0,0,.54,6.86,6.86,0,0,0,1.19,3C1.41,6.24-.87,8.37.34,9.57s3.09-.81,4.75-2.48a25.61,25.61,0,0,0,2.28,2.2,26,26,0,0,0,2.92,2.12c-1.06,1.93-2.08,4-.78,4.73s2.52-1.27,3.59-3.2a23.57,23.57,0,0,0,2.54,1,22.77,22.77,0,0,0,5.63,1c0,2.18.14,4.46,1.6,4.46s1.59-2.29,1.6-4.48a24.2,24.2,0,0,0,2.94-.42,23.16,23.16,0,0,0,5.48-2c1.12,2,2.42,4.34,3.8,3.58s.09-3.16-1-5.21c.59-.41,1.16-.82,1.68-1.25A23.94,23.94,0,0,0,41,5.85c1.72,1.72,3.84,4,5.05,2.78S45,5.29,43.28,3.56Z"/></g></g></svg>