<svg width="41" height="41" viewBox="0 0 41 41" fill="none" xmlns="http://www.w3.org/2000/svg">
<path d="M34.9342 10.82C33.6342 9.60003 31.9342 7.82003 29.9342 5.96003C28.9342 5.02003 27.8442 4.05003 26.6942 3.12003C26.1242 2.64003 25.5242 2.19003 24.9242 1.74003L23.9942 1.07003C23.5601 0.766091 23.0898 0.517504 22.5942 0.330028C22.0128 0.109797 21.3959 -0.00204939 20.7742 2.84265e-05C20.164 0.0352616 19.5632 0.166891 18.9942 0.390028C18.535 0.570235 18.0959 0.79815 17.6842 1.07003C17.2142 1.39003 17.0242 1.55003 16.7342 1.76003C15.6742 2.55003 14.6742 3.31003 13.7842 4.00003C11.9942 5.38003 10.6642 6.49003 9.99422 7.07003C4.45422 12 1.90422 14.92 0.754218 16.64C-0.395782 18.36 -0.00578228 19 0.454218 19.48C0.914218 19.96 1.50422 20.32 3.28422 19.28L3.69422 19C3.61422 20.22 3.54422 21.55 3.47422 23.06C3.37422 25.42 3.26422 28.16 3.17422 31.32C3.17422 32.11 3.12422 32.93 3.10422 33.78C3.03204 34.7787 3.03204 35.7813 3.10422 36.78C3.12692 37.6508 3.36391 38.5026 3.79422 39.26C4.04043 39.6317 4.36489 39.9452 4.74491 40.1783C5.12492 40.4115 5.55131 40.5589 5.99422 40.61C6.46037 40.6992 6.93109 40.7626 7.40422 40.8H7.88422H8.29422H9.13422H11.9042H13.5642C13.7842 40.8 14.5142 40.8 15.2042 40.7C15.4123 40.6805 15.6192 40.6505 15.8242 40.61C16.2675 40.5308 16.6895 40.3601 17.0631 40.1087C17.4367 39.8573 17.7538 39.5308 17.9942 39.15C18.0469 39.0495 18.0936 38.946 18.1342 38.84C18.3497 38.1945 18.4677 37.5204 18.4842 36.84V36.32V36C18.4842 35.79 18.4842 35.58 18.4842 35.37V34.07C18.4842 32.33 18.4242 30.34 18.3842 28.19V26.62C18.3842 26.17 18.3842 25.71 18.3842 25.25C18.3745 25.177 18.3745 25.103 18.3842 25.03C18.4498 24.9969 18.521 24.9765 18.5942 24.97H18.8142H19.2442H20.1142H21.8742H23.4742C23.5833 24.9504 23.6951 24.9504 23.8042 24.97C23.8345 25.0261 23.8548 25.087 23.8642 25.15C23.8692 25.2333 23.8692 25.3168 23.8642 25.4C23.8642 25.95 23.9242 26.68 23.9442 27.33C23.9442 28.68 23.9442 30 23.9942 31.33C24.0442 32.66 23.9942 33.93 24.0742 35.22C24.0742 35.54 24.0742 35.86 24.0742 36.22C24.0742 36.58 24.0742 36.8 24.1642 37.41C24.2058 37.9158 24.303 38.4155 24.4542 38.9C24.4906 39.0109 24.5375 39.1181 24.5942 39.22C24.7699 39.5336 25.0077 39.8079 25.2932 40.0263C25.5786 40.2447 25.9056 40.4025 26.2542 40.49C26.7448 40.6158 27.2479 40.6863 27.7542 40.7H28.3042H29.4742C30.5442 40.7 31.6142 40.7 32.6842 40.7C33.6574 40.7053 34.6287 40.6149 35.5842 40.43C36.2106 40.3897 36.7977 40.1105 37.2242 39.65C37.5834 38.934 37.7619 38.1409 37.7442 37.34C37.7442 36.87 37.7442 36.44 37.7442 36.03C37.7442 35.41 37.7442 34.86 37.7442 34.36C37.7442 33.36 37.7442 32.6 37.7442 31.88C37.8342 26.99 37.8342 23.2 37.7442 20.26C37.7442 19.79 37.7442 19.35 37.7442 18.93C39.1642 19.93 39.7442 19.78 40.2242 19.31C41.5642 18.1 41.3142 16.91 34.9342 10.82ZM34.7742 16.14V16.54C34.7242 17.62 34.6842 18.89 34.6642 20.37C34.6642 23.37 34.6642 27.12 34.6642 31.98C34.6642 32.67 34.6642 33.41 34.6642 34.35C34.6642 35.02 34.6642 35.83 34.6642 36.9C34.6642 36.95 34.6642 37.01 34.6642 37.06C34.6272 37.099 34.5776 37.1238 34.5242 37.13H34.1942H32.2742H29.6242H28.9142H28.3442C28.1811 37.1197 28.0199 37.0895 27.8642 37.04C27.7242 36.93 27.7642 36.71 27.7442 36.54V35.89C27.7442 35.6 27.7442 35.3 27.7442 35C27.7442 33.79 27.7442 32.51 27.7442 31.21C27.7442 29.91 27.7442 28.54 27.8042 27.21C27.8042 26.5 27.8042 25.86 27.8042 25.04C27.7948 24.4531 27.738 23.8678 27.6342 23.29C27.5889 23.0077 27.5083 22.7322 27.3942 22.47C27.231 22.1345 26.9913 21.842 26.6942 21.6161C26.3972 21.3903 26.0512 21.2375 25.6842 21.17C25.1465 21.0689 24.6013 21.012 24.0542 21L22.9942 20.9H22.0642H20.2142H19.2842H18.2142C17.2023 20.8347 16.1981 21.1131 15.3642 21.69C14.6998 22.4342 14.3424 23.4027 14.3642 24.4L14.3042 25.13V25.58C14.3042 25.87 14.3042 26.16 14.3042 26.45L14.2442 28.12C14.2442 30.25 14.1642 32.23 14.1342 33.98C14.1342 34.4 14.1342 34.81 14.0842 35.2V35.77V36.03C14.0842 36.03 14.0842 36.03 14.0342 36.03H10.0942H8.46422H7.86422C7.86422 35.71 7.86422 34.61 7.86422 33.82C7.86422 33.03 7.86422 32.16 7.86422 31.38C7.86422 28.23 7.86422 25.51 7.86422 23.16C7.86422 20.81 7.81422 18.82 7.75422 17.16C7.75422 16.73 7.75422 16.33 7.75422 15.95C9.27422 14.67 11.1442 13.05 13.4642 10.95L16.9242 7.79003C17.7442 7.05003 18.6642 6.24003 19.6342 5.36003C19.9682 5.01981 20.3446 4.72404 20.7542 4.48003C20.8992 4.39978 21.0644 4.36365 21.2297 4.37609C21.3949 4.38853 21.5529 4.44899 21.6842 4.55003L22.5642 5.10003C23.1442 5.47003 23.7242 5.85003 24.2842 6.26003C25.4042 7.05003 26.4842 7.91003 27.4842 8.76003C29.2104 10.2374 30.8593 11.8028 32.4242 13.45C33.3342 14.45 34.1142 15.22 34.8142 15.92C34.7942 15.94 34.7842 16 34.7742 16.14Z" fill="white"/>
</svg>
