<svg xmlns="http://www.w3.org/2000/svg" viewBox="0 0 41.62 43.42"><defs><style>.cls-1{fill:#fff;}</style></defs><g id="Capa_2" data-name="Capa 2"><g id="Línea"><path class="cls-1" d="M.85,18.76a6.27,6.27,0,0,0,.72.93l.41.45.29.3c.7.67,1.41,1.26,2.14,1.84,1.46,1.16,3,2.27,4.69,3.43C9.83,26.21,11,27,12.45,28a57.09,57.09,0,0,0,5.72,3.41c.32.15.65.3,1,.45a8.4,8.4,0,0,0,1.45.41,5.45,5.45,0,0,0,1.78-.07,7.22,7.22,0,0,0,1.38-.43A12.78,12.78,0,0,0,26,30.57c.66-.42,1.28-.86,1.89-1.32,2.42-1.82,4.66-3.84,7.09-5.7,1.23-1,2.5-1.95,3.77-3.12q.48-.45,1-1l.24-.28c.1-.12.23-.25.33-.39.19-.3.4-.58.57-.88A4.45,4.45,0,0,0,41.38,16a6.29,6.29,0,0,0-.19-1,4.07,4.07,0,0,0-.47-.9,7,7,0,0,0-.62-.84c-.21-.26-.32-.37-.48-.55s-.59-.62-.88-.91c-.59-.59-1.19-1.13-1.79-1.66q-1.79-1.58-3.57-3c-2.38-1.86-4.69-3.54-6.94-5A21.18,21.18,0,0,0,22.91.34a3,3,0,0,0-.66-.2A3.22,3.22,0,0,0,21.56,0a2.23,2.23,0,0,0-.68,0c-.22,0-.46.06-.67.11-.4.13-.69.23-1,.35l-.78.37a30.81,30.81,0,0,0-3.11,1.85L14.85,3A59,59,0,0,0,6.46,8.91c-.92.76-1.89,1.59-2.93,2.57-.52.49-1,1-1.61,1.63l-.28.32c-.12.14-.23.29-.34.43a6.09,6.09,0,0,0-.61.89,4.44,4.44,0,0,0-.42.95,4.92,4.92,0,0,0-.13,1c0,.35.11.7.19,1.05A4.89,4.89,0,0,0,.85,18.76ZM20.29,4.06a6.44,6.44,0,0,1,.9-.39.49.49,0,0,1,.24,0l.38.13a20.42,20.42,0,0,1,2.87,1.59,73.4,73.4,0,0,1,6.45,4.78c1.1.92,2.21,1.88,3.29,2.88.53.5,1.06,1,1.56,1.54.24.26.49.52.71.78a3.63,3.63,0,0,1,.28.34,1,1,0,0,1,.08.11.44.44,0,0,1,.1.26.48.48,0,0,1-.12.26l-.09.11,0,0-.15.16c-.23.23-.46.46-.73.69-1.06.92-2.31,1.82-3.55,2.73-2.55,1.82-4.92,3.8-7.15,5.35a16.5,16.5,0,0,1-3.11,1.82,3.09,3.09,0,0,1-.58.18.74.74,0,0,1-.19,0c-.06,0,0,0,0,0h0a1.49,1.49,0,0,1-.23-.09,5.49,5.49,0,0,1-.62-.29,52.82,52.82,0,0,1-5.08-3.24l-3.38-2.38c-1.62-1.12-3.13-2.19-4.46-3.22-.66-.51-1.27-1-1.78-1.49l-.15-.13h0a0,0,0,0,1,0,0s0,0,0,0v0h0l.07-.08C6.11,16,6.56,15.48,7,15c.9-.91,1.79-1.74,2.61-2.51C12.2,10.12,14.23,8.37,15.76,7c.59-.44,1.2-.89,1.86-1.35A25,25,0,0,1,20.29,4.06Z"/><path class="cls-1" d="M41.37,26.28c-1.13-1-4.44,2-9.19,5.78a53.35,53.35,0,0,1-8,5.55,11.71,11.71,0,0,1-2.06.85,2.67,2.67,0,0,1-.79.11c-.11,0-.21,0-.35,0l-.46-.09a16.14,16.14,0,0,1-4.22-1.89,63.56,63.56,0,0,1-6.91-4.92C7.5,30.2,6.06,29,4.9,28.15,2.57,26.43,1.33,26,.44,27S0,29.17,2,31.37a44.44,44.44,0,0,0,4.34,4,61.47,61.47,0,0,0,7.46,5.34,20.74,20.74,0,0,0,5.63,2.48l.89.18a8.53,8.53,0,0,0,1,0,7.07,7.07,0,0,0,1.94-.24,15.66,15.66,0,0,0,3-1.21,41.82,41.82,0,0,0,8.84-6.4C39.91,31.15,42.45,27.22,41.37,26.28Z"/></g></g></svg>