<svg xmlns="http://www.w3.org/2000/svg" viewBox="0 0 35.7 34.89"><defs><style>.cls-1{fill:#fff;}</style></defs><g id="Capa_2" data-name="Capa 2"><g id="Línea"><path class="cls-1" d="M3.64,20.28A31,31,0,0,0,6,17.13l1.5-2.19c.27-.39.55-.8.85-1.17.15-.21.28-.36.43-.54l.06-.06h0a2.82,2.82,0,0,1,.35-.05C10.25,13,11.6,13,12.91,13s2.69,0,4.16,0l.57-.05a4.17,4.17,0,0,0,.63-.08A3.58,3.58,0,0,0,20,12.15a8,8,0,0,0,1-.92c.25-.27.46-.52.68-.78.86-1,1.61-2,2.29-2.94C26.65,3.77,28.17.68,27.23.08s-3.09,1.78-6.11,5.17c-.74.84-1.54,1.75-2.36,2.64l-.62.65c-.17.18-.49.47-.45.43s0,0-.06,0a2.6,2.6,0,0,1-.36,0l-.42,0c-1.21.05-2.57,0-3.91,0s-2.66,0-4.17.1A7,7,0,0,0,8,9.25a6.53,6.53,0,0,0-1,.3c-.24.15-.48.32-.71.48s-.22.21-.32.31l-.23.23c-.21.26-.44.52-.61.75-.36.48-.67.92-1,1.34-.58.84-1.07,1.6-1.52,2.28-.87,1.37-1.52,2.46-2,3.31-.9,1.72-1,2.44-.24,3.2S2.3,21.82,3.64,20.28Zm5.2-7.11Z"/><path class="cls-1" d="M35.66,7.84a3.82,3.82,0,0,0-.52-2.24A4.9,4.9,0,0,0,34.76,5a2,2,0,0,0-.17-.23,1.2,1.2,0,0,0-.41-.24,1.51,1.51,0,0,0-.51-.11,1,1,0,0,0-.33.07,3.86,3.86,0,0,0-.61.22,5.39,5.39,0,0,0-1.57,1.12L26.7,11.59C25.73,12.83,24.83,14,24,15c-.41.5-.82,1-1.19,1.38l-.14.16-.06.06-.11.1a.36.36,0,0,1-.24.09h-.17l-.36,0H19.55l-1.65,0c-.77-.06-1.67-.11-2.72-.11-.53,0-1.11,0-1.76.05-.33,0-.66.06-1.06.13a4.82,4.82,0,0,0-.75.19,4.89,4.89,0,0,0-.82.34,8.43,8.43,0,0,0-1,.86c-.26.25-.48.49-.69.73-.44.5-.83,1-1.24,1.53C7,21.55,6.2,22.71,5.33,24c-.43.64-.87,1.31-1.34,2-.22.35-.45.71-.69,1.07L2.24,28.73.84,31a2.2,2.2,0,0,0-.36,1l-.09.49.06.36a2.06,2.06,0,0,0,.18.62,1.66,1.66,0,0,0,.2.32,2.19,2.19,0,0,0,.2.25,2.48,2.48,0,0,0,1.82.8h9.21l8-.09,6.06-.09,3.38-.06,2,0h.85a2,2,0,0,0,.79-.09l.67-.23c.22-.09.48-.09.65-.29a4.55,4.55,0,0,0,1-2.94l.07-.76,0-.49,0-1c.06-1.28.08-2.56.11-3.85,0-2.57.05-5.17.05-7.73C35.68,14.07,35.67,10.9,35.66,7.84ZM32.11,11c0,.17,0,.35,0,.53l0,.51v.12a.93.93,0,0,0,0,.24l0,.93c0,1.24-.06,2.5-.09,3.76-.07,2.53-.15,5.08-.27,7.59-.06,1.26-.12,2.5-.21,3.72l-.07.91-.07.79a2.06,2.06,0,0,1-.07.25l-11-.16-8.21-.09H7s-.06,0,0,0,0,0,0,0c.11-.18.21-.36.32-.53l.65-1.07c.43-.69.85-1.35,1.24-2,.8-1.27,1.54-2.42,2.23-3.43.34-.5.68-1,1-1.39.16-.22.31-.4.44-.55a1.79,1.79,0,0,0,.19-.24l.06-.05s0,0,.15,0a5.86,5.86,0,0,1,.71-.15c.5-.09,1-.16,1.5-.22l1.8-.2,2.64,0,1.49,0,.83,0,.55,0c.23,0,.44-.1.66-.15a3,3,0,0,0,.65-.23,3.9,3.9,0,0,0,.56-.42c.17-.15.35-.32.5-.48l.33-.35c.43-.48.84-1,1.27-1.48.85-1,1.75-2.14,2.73-3.37l2-2.48.31-.37.15-.18a.16.16,0,0,1,.2-.08c.09,0,.09.15.08.24Z"/></g></g></svg>