<svg xmlns="http://www.w3.org/2000/svg" viewBox="0 0 29.21 43.08"><defs><style>.cls-1{fill:#fff;}</style></defs><g id="Capa_2" data-name="Capa 2"><g id="Línea"><path class="cls-1" d="M28.78,25.58a18.47,18.47,0,0,0-1.39-3.76A40.44,40.44,0,0,0,24,16.37c-1.27-1.79-2.38-3.3-3.24-4.65A16.16,16.16,0,0,1,19,8.15a7.76,7.76,0,0,1-.09-4.61,19.18,19.18,0,0,0,.58-2.26.93.93,0,0,0-.35-.92c-.42-.51-1.2-.85-4.4,1.66A42.9,42.9,0,0,0,8.21,8.66,44.89,44.89,0,0,0,3.9,15,29.9,29.9,0,0,0,.3,24.71c0,.22-.1.46-.14.74s0,.6-.06.94A21.71,21.71,0,0,0,0,28.8a15.66,15.66,0,0,0,1.72,6.52,14.32,14.32,0,0,0,6,6,16.48,16.48,0,0,0,4.44,1.49,19.2,19.2,0,0,0,4.73.17,15.62,15.62,0,0,0,4.76-1.26,12.3,12.3,0,0,0,4.1-3,12.73,12.73,0,0,0,2.53-4.26A16.18,16.18,0,0,0,29.18,30,14.56,14.56,0,0,0,28.78,25.58Zm-3.34,4.26a9.94,9.94,0,0,1-2.58,6.24,9.39,9.39,0,0,1-6.21,2.65,14.62,14.62,0,0,1-3.52-.24,11.29,11.29,0,0,1-3.06-1.13,10.34,10.34,0,0,1-2.35-1.85,10.71,10.71,0,0,1-1.54-2.27,10.78,10.78,0,0,1-1-4.47,6.12,6.12,0,0,1,0-1c0-.31.06-.6.08-.87a6.25,6.25,0,0,1,.18-1.37,26.73,26.73,0,0,1,2.94-8.15A53.19,53.19,0,0,1,12,11.54c1.18-1.66,2.23-3,3.13-4.17a10.68,10.68,0,0,0,.39,2.05c.86,3,3.08,5.91,5.62,9.27C23.14,21.41,25.9,25.24,25.44,29.84Z"/></g></g></svg>