<svg xmlns="http://www.w3.org/2000/svg" viewBox="0 0 36.49 39.18"><defs><style>.cls-1{fill:#fff;}</style></defs><g id="Capa_2" data-name="Capa 2"><g id="Línea"><path class="cls-1" d="M36.49,9.83c0-.73,0-1.47-.05-2.21l0-.57a1.9,1.9,0,0,0,0-.31l0-.44a3.34,3.34,0,0,0-.53-1.7c0-.08-.11-.11-.08-.22l-.15-.16a1.19,1.19,0,0,0-.34-.29,4,4,0,0,0-.77-.49c-.64-.35-.83-.42-1.18-.59-.64-.3-1.25-.58-1.85-.83Q29.64,1.25,28.05.7C27.52.52,27,.36,26.46.22A6.34,6.34,0,0,0,25.55,0a5.94,5.94,0,0,0-1.19,0l-.89.2-.68.19c-.42.14-.81.26-1.15.39-.68.25-1.22.48-1.66.68-.88.38-1.38.63-1.75.82L15.3,3.8q-.66.33-1.26.6l-1,.42s0,0-.06,0a7.88,7.88,0,0,1-.88-.28c-.64-.25-1.27-.53-1.85-.8-2.36-1.11-4-2-5.26-2.41A5.54,5.54,0,0,0,2.5.8a1.05,1.05,0,0,0-.34.09A.5.5,0,0,0,1.88,1a.34.34,0,0,0-.18.14C.6,1.51.1,3.62.2,13.77c0,2.34,0,5.55-.11,9.09C.06,24.64,0,26.5,0,28.38c0,.94,0,1.89,0,2.86l0,.73,0,.37.06.59a5.22,5.22,0,0,0,.23,1.19l.29.5.08.12,0,0c-.08.08,0,0,0,.06l.05.06L1,35.1a5.12,5.12,0,0,0,1,.63l.55.27.38.17c.44.2.86.37,1.28.54.83.34,1.65.64,2.45.94a39.15,39.15,0,0,0,4.68,1.42c.19,0,.44.07.77.11s.65,0,1,0l.68-.14a4.11,4.11,0,0,0,.53-.13c.7-.18,1.29-.39,1.82-.58,1.05-.4,1.83-.76,2.34-1,2.2-1.08,4-2.08,5.46-2.71l.48-.2h0l0,0,.31.08a17.2,17.2,0,0,1,1.77.71c2.34,1.08,4,2,5.25,2.43a5.67,5.67,0,0,0,2.51.57,1.51,1.51,0,0,0,.35-.08.73.73,0,0,0,.28-.15.35.35,0,0,0,.17-.13c1.08-.37,1.57-2.54,1.39-12.51C36.33,21.55,36.51,15.66,36.49,9.83Zm-30.85,23-1.18-.42-.24-.09,0,0-.11,0c-.08,0-.07-.11-.1-.2a.31.31,0,0,1,0-.1l0-.32L3.85,31c-.07-.9-.12-1.82-.16-2.75-.07-1.85-.11-3.71-.14-5.48,0-3.55,0-6.78,0-9.12.13-4.46.11-7.35,0-9.22A35.81,35.81,0,0,0,8.22,7.66c.62.36,1.3.73,2.12,1.11.27.11.54.23.86.35-.55,4-.49,11.05-.49,17,0,3.73,0,6.4.09,8.25C9.94,34.14,9,33.88,8,33.6,7.24,33.37,6.44,33.12,5.64,32.85Zm16.47-2.63C20.21,31,18.34,32,16.31,33c-.44.21-1.1.54-1.93.9l-.15.06c.09-1.83.08-4.38.08-7.85,0-5.76,0-12.59-.45-16.63a2.2,2.2,0,0,0,.43-.09l.53-.19.37-.13c.24-.1.5-.19.74-.3.49-.21,1-.43,1.46-.66,1-.47,2-1,3-1.49l1.54-.77c.37-.18.81-.38,1.34-.59-.41,4-.36,10.15-.36,15.41a82.55,82.55,0,0,0,.22,9.22l-.23.07Zm6.37,1a15.72,15.72,0,0,0-2.24-1.08,73.81,73.81,0,0,0,.26-9.48c0-5.45.05-11.9-.41-15.85l.62.16c.94.25,2,.59,3.17,1,.57.2,1.15.41,1.74.65l.43.17.19.08h0a.67.67,0,0,1,.15.06.84.84,0,0,1,.07.18,1.72,1.72,0,0,1,0,.28l.05.5c.06.67.12,1.38.16,2.09.31,5.72.35,11.72.29,15.43-.1,4.32-.06,7.15.09,9A33.21,33.21,0,0,0,28.48,31.21Z"/></g></g></svg>