<svg xmlns="http://www.w3.org/2000/svg" viewBox="0 0 44.03 44.35"><defs><style>.cls-1{fill:#fff;}</style></defs><g id="Capa_2" data-name="Capa 2"><g id="Línea"><path class="cls-1" d="M43.62,17.29l-.29-1.42-.44-1.42a23.46,23.46,0,0,0-1.15-2.84A20.7,20.7,0,0,0,38,6.37l-.59-.6c-.2-.19-.43-.36-.64-.54L35.41,4.16,34,3.25l-.74-.45-.77-.38A22.93,22.93,0,0,0,25.85.27a21.31,21.31,0,0,0-13.8,2.5,23.83,23.83,0,0,0-9.42,9.69A22.39,22.39,0,0,0,.05,24.39,21.14,21.14,0,0,0,1.1,29.65a18.82,18.82,0,0,0,2,4.23,23.35,23.35,0,0,0,4.12,4.95,23.07,23.07,0,0,0,3.62,2.71,18.35,18.35,0,0,0,3.93,1.87,16.7,16.7,0,0,0,2.07.57l1.05.17c.34.05.65.05,1,.08l1.87.12,1.83-.06a14.4,14.4,0,0,0,1.75-.17c.57-.09,1.14-.15,1.69-.26A25.83,25.83,0,0,0,29.09,43l1.44-.53,1.33-.65a20.78,20.78,0,0,0,2.42-1.41,21.05,21.05,0,0,0,6.31-6.54c.16-.27.33-.53.49-.79s.26-.54.39-.79l.69-1.49c.25-.75.5-1.42.69-2.06.15-.44.29-.89.41-1.35A22.47,22.47,0,0,0,43.62,17.29ZM17.84,38.92a11.72,11.72,0,0,1-1.42-.4A16.9,16.9,0,0,1,10.7,35,16.75,16.75,0,0,1,5,24.24a17.42,17.42,0,0,1,1.66-9.49,19.38,19.38,0,0,1,7.44-8.2A17.14,17.14,0,0,1,25.27,4.2a18.92,18.92,0,0,1,5.58,1.72,8.53,8.53,0,0,1,1.27.68c.4.25.82.46,1.2.73a16.68,16.68,0,0,1,2.11,1.8,16.9,16.9,0,0,1,4.69,9.1,17.89,17.89,0,0,1-.49,8.48l0,.1-.08.21c-.24.64-.63,1.32-1,2.09l-.7,1.14-.37.62-.46.59a18.28,18.28,0,0,1-5.32,4.91,15.79,15.79,0,0,1-2,1l-1.07.49-1.16.38a22.07,22.07,0,0,1-2.49.64c-.43.08-.89.11-1.34.17a9.36,9.36,0,0,1-1.41.11l-1.46,0-1.51-.12c-.25,0-.52,0-.76-.06Z"/><path class="cls-1" d="M22.54,31.74c.38,0,1.87,0,1.87-2.85,0-3.86.6-11.13-1.87-11.13-2.64,0-1.87,7.27-1.87,11.13C20.67,31.74,22.27,31.74,22.54,31.74Z"/><path class="cls-1" d="M22.52,15.16a1.87,1.87,0,1,0-1.87-1.87A1.87,1.87,0,0,0,22.52,15.16Z"/></g></g></svg>