<svg xmlns="http://www.w3.org/2000/svg" viewBox="0 0 40.77 46.1"><defs><style>.cls-1{fill:#fff;}</style></defs><g id="Capa_2" data-name="Capa 2"><g id="Línea"><path class="cls-1" d="M32,18.88a5.86,5.86,0,0,0,2.1,1,4.93,4.93,0,0,0,1.71.2,5.71,5.71,0,0,0,3-1.07,4.77,4.77,0,0,0,1.92-3.72A5.9,5.9,0,0,0,39,10.89a5.61,5.61,0,0,0-5.12-1.33,5.68,5.68,0,0,0-1.49.58c-.38-.26-.82-.53-1.35-.87C30,8.58,28.83,7.78,27.8,7.21h0a5.7,5.7,0,0,0,0-2.63,5.94,5.94,0,0,0-1.49-2.76A5,5,0,0,0,25,.72,5.63,5.63,0,0,0,21.9,0a4.77,4.77,0,0,0-3.62,2.1,5.81,5.81,0,0,0-.91,4.63A5.62,5.62,0,0,0,21,10.62l.34.1a28.07,28.07,0,0,0,.08,4c0,.42.06.79.08,1.14a7.91,7.91,0,0,0-1.51.46,7.11,7.11,0,0,0-1.43.82,32.74,32.74,0,0,0-2.94-3.08,26.12,26.12,0,0,0-2.05-1.88,3.1,3.1,0,0,0,.15-.85,3.93,3.93,0,0,0-1.18-3A3.8,3.8,0,0,0,9,7.42,3.65,3.65,0,0,0,6.29,10a3.32,3.32,0,0,0,0,2,3.88,3.88,0,0,0,1,1.5,2.78,2.78,0,0,0,.27.21,21.64,21.64,0,0,0-1.37,3c-.17.44-.31.8-.43,1.13A4.76,4.76,0,0,0,4.33,18,5.44,5.44,0,0,0,2,19.22,5.9,5.9,0,0,0,.3,21.89a5.09,5.09,0,0,0-.3,1.7,5.86,5.86,0,0,0,.88,3.06,4.87,4.87,0,0,0,3.57,2.2A5.83,5.83,0,0,0,9,27.41a5.25,5.25,0,0,0,1.51-2.54l1.58,0c1.14,0,2.39,0,3.44-.09a8.67,8.67,0,0,0,.8,2.31,6.94,6.94,0,0,0,2.33,2.69,8.8,8.8,0,0,0,2.58,1.11,22.8,22.8,0,0,0-.16,3.51c0,.49,0,.9,0,1.27a5.51,5.51,0,0,0-2.28,1.22,5.2,5.2,0,0,0-1.5,2.41,4.79,4.79,0,0,0,.06,2.88,5.67,5.67,0,0,0,1.41,2.22,5.89,5.89,0,0,0,2.74,1.52,4.93,4.93,0,0,0,1.71.2,5.6,5.6,0,0,0,3-1.07,4.77,4.77,0,0,0,1.93-3.72,5.87,5.87,0,0,0-1.74-4.39,5.36,5.36,0,0,0-2.13-1.22V34.36c0-1.1,0-2.29,0-3.31a7.38,7.38,0,0,0,2.74-1,25.76,25.76,0,0,0,3.13,3.14c.62.55,1.1,1,1.52,1.33a3.27,3.27,0,0,0,.05,2,3.76,3.76,0,0,0,1,1.5,3.85,3.85,0,0,0,1.63.94,3.41,3.41,0,0,0,1.39.23,3.85,3.85,0,0,0,2-.72A3.34,3.34,0,0,0,39,35.87a4,4,0,0,0-1.18-3A3.8,3.8,0,0,0,34.35,32a3.88,3.88,0,0,0-.63.21c-.38-.38-.87-.81-1.48-1.35-1.05-.94-2.18-2-3.17-2.79l.11-.15a6.46,6.46,0,0,0,.67-1.45,8.16,8.16,0,0,0,.46-2.84,7.46,7.46,0,0,0-.64-3.13l.44-.3C30.76,19.75,31.47,19.32,32,18.88Zm3.86,16a1.22,1.22,0,0,1,.32.85.61.61,0,0,1-.19.45,1.43,1.43,0,0,1-.61.26,1.32,1.32,0,0,1-.27,0,1.49,1.49,0,0,1-.6-.39,1.26,1.26,0,0,1-.26-.46.6.6,0,0,1,0-.35A.92.92,0,0,1,35,34.7,1,1,0,0,1,35.9,34.91ZM34.63,12.68a2.43,2.43,0,0,1,2.19.52,2.73,2.73,0,0,1,.75,2A1.66,1.66,0,0,1,37,16.44a2.92,2.92,0,0,1-1.37.55A2.76,2.76,0,0,1,35,17a3.09,3.09,0,0,1-1.35-.83,2.62,2.62,0,0,1-.61-1,1.56,1.56,0,0,1,0-1,2.06,2.06,0,0,1,.6-.94A2.39,2.39,0,0,1,34.63,12.68Zm-4.42-.17a5.94,5.94,0,0,0-.28.74A4.79,4.79,0,0,0,30,16.13c0,.11.08.2.12.31a17.84,17.84,0,0,0-1.76,1.06l-.33.21a11.33,11.33,0,0,0-1.16-.95,7.31,7.31,0,0,0-2-.85l-.18,0c0-.41-.06-.86-.09-1.39-.09-1.24-.15-2.6-.29-3.75a5.15,5.15,0,0,0,1.92-1A28.21,28.21,0,0,0,29.35,12ZM20.48,6a2.68,2.68,0,0,1,.42-2.05,1.63,1.63,0,0,1,1.21-.76,3.09,3.09,0,0,1,1.45.28,2.37,2.37,0,0,1,.54.34,3,3,0,0,1,.7,1.42,2.8,2.8,0,0,1,0,1.19,1.69,1.69,0,0,1-.54.85,2,2,0,0,1-1,.46A2.24,2.24,0,0,1,22,7.6,2.42,2.42,0,0,1,20.48,6ZM9,10.74a.88.88,0,0,1,.68-.59,1,1,0,0,1,.92.2,1.24,1.24,0,0,1,.32.86c0,.27-.09.37-.19.45a1.57,1.57,0,0,1-.61.26,1.32,1.32,0,0,1-.27,0,1.49,1.49,0,0,1-.6-.39A1.26,1.26,0,0,1,9,11.09.52.52,0,0,1,9,10.74ZM6.83,25.05a2.6,2.6,0,0,1-2,.61,1.69,1.69,0,0,1-1.27-.72,3.22,3.22,0,0,1-.47-1.43,2.79,2.79,0,0,1,0-.66A3.11,3.11,0,0,1,4,21.55,2.55,2.55,0,0,1,5.09,21a1.58,1.58,0,0,1,1,.08,2.29,2.29,0,0,1,1.38,1.79A2.47,2.47,0,0,1,6.83,25.05ZM12,21.64l-1.53,0A5.68,5.68,0,0,0,8.72,19c.14-.33.28-.7.45-1.14.42-1.08.93-2.26,1.22-3.25a3.73,3.73,0,0,0,1-.22,23,23,0,0,0,1.95,2c1,1,2.14,2.11,3.13,3a7.13,7.13,0,0,0-.62,1.27,6.22,6.22,0,0,0-.34,1.16A24.14,24.14,0,0,0,12,21.64Zm12.3,20.82A2.93,2.93,0,0,1,23,43a2.77,2.77,0,0,1-.64,0A3.06,3.06,0,0,1,21,42.19a2.6,2.6,0,0,1-.6-1,1.63,1.63,0,0,1,0-1,2,2,0,0,1,.61-.94,2.48,2.48,0,0,1,3.22,0,2.65,2.65,0,0,1,.75,2A1.6,1.6,0,0,1,24.32,42.46Zm-1.9-15.07a5.05,5.05,0,0,1-1.79-.71,3.34,3.34,0,0,1-1.09-1.29A5,5,0,0,1,19,23.57a3.45,3.45,0,0,1,.25-1.72,3.87,3.87,0,0,1,2.13-2.23A4.25,4.25,0,0,1,24,19.39a4,4,0,0,1,1,.38c.25.22.56.34.73.61.1.11.21.21.31.31l.22.38.22.35.14.39c.05.11.1.22.14.33a5.15,5.15,0,0,1,.1,1.39,5.33,5.33,0,0,1-.36,1.71,3.11,3.11,0,0,1-.87,1.31A3.67,3.67,0,0,1,22.42,27.39Z"/></g></g></svg>