<svg xmlns="http://www.w3.org/2000/svg" viewBox="0 0 40.75 36.31"><defs><style>.cls-1{fill:#fff;}</style></defs><g id="Capa_2" data-name="Capa 2"><g id="Línea"><path class="cls-1" d="M40.11,16a6.6,6.6,0,0,0-.78-.91l-.45-.43-.43-.36c-.43-.36-.87-.68-1.31-1-.89-.62-1.8-1.2-2.74-1.75-1.87-1.12-3.83-2.17-5.86-3.18s-4.17-2-6.33-2.79S18,3.93,15.79,3.13,11.47,1.56,9.25.93C8.69.77,8.13.62,7.56.48L6.7.29C6.38.23,6.2.19,5.64.11A9.52,9.52,0,0,0,2.82.1,4.08,4.08,0,0,0,.72,1.16c-1,1.24-.85,2.72,0,4.24.23.37.42.76.69,1.12s.54.78.66.92c.31.41.63.8.94,1.17,1.26,1.51,2.51,2.86,3.68,4.15s2.29,2.51,3.21,3.66q.35.43.63.84c.1.14.17.26.25.39l.1.16a0,0,0,0,0,0,0c0,.07,0,0-.06.17a23.07,23.07,0,0,1-2,2.91c-.74.94-1.47,1.81-2.13,2.61C5.29,25.1,4.22,26.4,3.5,27.34L3,28l-.38.53c-.16.21-.31.43-.45.65A13,13,0,0,0,.72,31.74a4,4,0,0,0-.23,2.1c.05.15.07.3.13.46l.09.23.16.21L1,35s.11,0,0,.14l.08.1a3.8,3.8,0,0,0,.34.35,4.91,4.91,0,0,0,1,.54,4,4,0,0,0,1.27.23,11.51,11.51,0,0,0,3.09-.4c.28-.06.52-.13.77-.2l.63-.17.82-.26c.54-.17,1.06-.35,1.58-.53,2-.72,3.88-1.47,5.59-2.21,3.41-1.47,6.29-2.86,8.76-4.11,4.11-2.1,7.06-3.81,9.2-5.19.82-.44,1.66-.92,2.55-1.45.39-.23.79-.48,1.19-.74l.8-.54c.31-.23.61-.46.89-.71a4.6,4.6,0,0,0,.72-.82,2,2,0,0,0,.37-.94A3,3,0,0,0,40.11,16ZM9.92,9.89C8.7,8.61,7.43,7.3,6.23,5.93c-.3-.34-.59-.68-.87-1l-.27-.34c-.07-.08-.2-.24-.1-.35a.67.67,0,0,1,.43-.08l.2,0L6,4.22l.75.14,1.53.36c2.08.55,4.21,1.24,6.35,2S18.92,8.24,21.07,9a64.21,64.21,0,0,1,6.14,2.6c2,.95,3.9,1.95,5.69,3,.89.52,1.75,1.06,2.54,1.61l.05,0c-3.44-.55-9.2-.52-14.06-.54-2.87,0-5-.05-6.55,0l-.21-.35c-.14-.24-.27-.41-.4-.61-.27-.38-.55-.73-.83-1.07C12.33,12.41,11.14,11.17,9.92,9.89ZM6.74,31h0l.09-.12.47-.62,2.88-3.63c.64-.8,1.35-1.69,2.13-2.71a29.43,29.43,0,0,0,2.45-3.65l.16-.32.14-.31c1.53.08,3.6.07,6.35.09,4.24,0,9.17.09,12.65-.25l-.3.17c-2.31,1.07-5.68,2.68-10.6,4.89-2.48,1.11-5.35,2.38-8.69,3.73-1.67.67-3.46,1.36-5.36,2l-1.44.47L6.93,31l-.16,0h0a0,0,0,0,1,0,0Z"/></g></g></svg>