<svg xmlns="http://www.w3.org/2000/svg" viewBox="0 0 44.16 44.34"><defs><style>.cls-1{fill:#fff;}</style></defs><g id="Capa_2" data-name="Capa 2"><g id="Línea"><path class="cls-1" d="M41.21,11.19a23,23,0,0,0-6.4-7A22.51,22.51,0,0,0,24,.12a21.13,21.13,0,0,0-6.33.29,22.85,22.85,0,0,0-6.2,2.11L10,3.31l-1.38,1A19.81,19.81,0,0,0,6.07,6.5,13.56,13.56,0,0,0,5,7.77a14.75,14.75,0,0,0-1,1.33A21.11,21.11,0,0,0,2.24,12,22.6,22.6,0,0,0,.18,24.6,24.7,24.7,0,0,0,4.23,35.32a21.73,21.73,0,0,0,6.91,6.27,20.47,20.47,0,0,0,5.72,2.27,18.73,18.73,0,0,0,4.36.48,21.55,21.55,0,0,0,4-.43A24.94,24.94,0,0,0,32,41.45a24.14,24.14,0,0,0,8.7-7.74,19.7,19.7,0,0,0,3.18-8,19.54,19.54,0,0,0,.2-2.42A20.75,20.75,0,0,0,41.21,11.19ZM39.69,24.87A17,17,0,0,1,36.8,31a20.94,20.94,0,0,1-12.56,7.87,14.56,14.56,0,0,1-6.23,0,16.48,16.48,0,0,1-4.2-1.57,17.17,17.17,0,0,1-5.47-4.58A20.11,20.11,0,0,1,4.79,24.2l-.12-.62,0-.63-.09-1.28c0-.86.06-1.73.11-2.6.08-.43.15-.87.23-1.31L5,17.11l.18-.64.38-1.29c.14-.43.35-.83.52-1.25a15.69,15.69,0,0,1,1.28-2.39,7.93,7.93,0,0,1,.8-1.1A9.8,9.8,0,0,1,9,9.38a16,16,0,0,1,2-1.84l1.1-.83L13.34,6a18.51,18.51,0,0,1,5.15-1.88,17.37,17.37,0,0,1,5.31-.31,21.17,21.17,0,0,1,2.55.4A20.19,20.19,0,0,1,28.74,5a19,19,0,0,1,4.18,2.26,18.5,18.5,0,0,1,5.27,6,18,18,0,0,1,2,6c0,.26,0,.52,0,.81A20.59,20.59,0,0,1,39.69,24.87Z"/><path class="cls-1" d="M24.82,17.08c-1.65-1-4.17-3-5.39-3-2.64,0-2.37,3.17-2.45,4.89q0,.93,0,1.86c0,1.81.1,3.62.19,5.43.14,3.06,1.26,4.19,3.64,3.12a30.05,30.05,0,0,0,4.31-2.68,20.68,20.68,0,0,0,4-3.3,2.2,2.2,0,0,0,.63-1.65v0a.41.41,0,0,1,0-.11C29.58,19.68,26.46,18.05,24.82,17.08Z"/></g></g></svg>