<svg width="41" height="40" viewBox="0 0 41 40" fill="none" xmlns="http://www.w3.org/2000/svg">
<path d="M17.8565 15.3433C17.6674 17.688 17.5996 20.0407 17.6534 22.3923C17.6534 27.1731 17.4955 28.7741 19.9098 28.7741C22.3241 28.7741 22.1661 27.1731 22.1661 22.3923C22.1661 20.0797 22.1661 17.4558 21.9743 15.3544C26.2727 15.3544 27.7393 15.4545 27.7393 13.1308C27.7393 10.807 26.1937 10.9071 21.5908 10.9071C16.9878 10.9071 11.0762 10.7515 11.0762 13.1308C11.0762 14.8986 14.314 15.2655 17.8565 15.3433Z" fill="#F2EEE7"/>
<path d="M40.6668 2.63502V2.02352C40.6668 1.86786 40.5427 1.72333 40.4863 1.56767C40.3741 1.2426 40.14 0.972115 39.832 0.811632C39.1255 0.481562 38.3572 0.299825 37.5756 0.277956L36.5603 0.211247H35.8157L34.3603 0.111182C30.4794 0 26.6436 0 22.8981 0L12.1015 0.100064L7.14877 0.166774L4.81345 0.200128C4.15911 0.200128 3.34683 0.200128 2.66992 0.277956C2.3785 0.323773 2.09983 0.428398 1.85134 0.585277C1.60285 0.742156 1.38991 0.94791 1.22586 1.18965C0.880421 1.72072 0.674903 2.32834 0.627925 2.95745C0.627925 3.27988 0.548953 3.62455 0.503826 3.94698V4.60295C0.413572 5.29228 0.379727 5.95938 0.345881 6.67095C0.289473 7.89395 0.255627 9.06137 0.199219 10.1398C0.199219 12.2301 0.199219 13.9867 0.199219 15.1764C0.199219 19.4903 0.300754 23.3483 0.391008 26.9395C0.515108 30.8087 0.627925 34.2775 0.729461 37.3907C0.730456 37.6956 0.795067 37.997 0.919278 38.2762C1.04349 38.5555 1.22465 38.8066 1.45149 39.0139C1.93445 39.4066 2.53032 39.6399 3.15504 39.681C3.49349 39.681 3.83194 39.7477 4.17039 39.77H5.07293H6.13342C7.53235 39.77 8.80719 39.77 10.0143 39.7144C12.4174 39.7144 14.527 39.5698 16.2757 39.4698L19.6602 39.2696H20.4048L28.6292 39.2029C29.4528 39.0827 30.2304 38.7531 30.8856 38.2468C31.3932 37.8799 31.8671 37.4907 32.3409 37.1349C33.2999 36.3233 34.2927 35.4338 35.5224 34.2775C36.1316 33.6994 36.7972 33.0545 37.5418 32.3096L38.7038 31.1311L39.3469 30.4417L39.5274 30.2416L39.7643 29.9414C39.9264 29.7346 40.077 29.5193 40.2156 29.2966C40.3058 29.0186 40.3284 28.7295 40.3961 28.4405C40.4133 28.2927 40.4133 28.1435 40.3961 27.9957V27.6955C40.3961 27.3286 40.3961 26.9506 40.3961 26.5837C40.3961 25.8388 40.3961 25.0828 40.3961 24.3045C40.3961 22.7479 40.3961 21.1247 40.4525 19.4569C40.4525 16.1215 40.5202 12.5525 40.554 8.89459C40.554 7.97178 40.554 7.04897 40.554 6.12615V3.9025L40.6668 2.63502ZM4.71192 7.03785C4.71192 6.17062 4.79089 4.70302 4.80217 4.43618C4.80217 4.43618 4.80217 4.43618 4.86986 4.43618L6.87801 4.35835L11.8081 4.16934L22.5822 3.83579C26.3165 3.73573 30.1635 3.64678 33.9768 3.68014C34.9132 3.68014 35.8947 3.68014 36.7746 3.75797H37.068C37.068 3.75797 37.1808 3.75797 37.2033 3.75797V5.85931V8.64999C37.2033 12.3412 37.2033 15.9324 37.2598 19.3013V24.1822C37.2598 24.9605 37.2598 25.7276 37.2598 26.4725V26.9061C35.4418 26.7271 33.6148 26.6528 31.7881 26.6838H30.6599C30.3203 26.6923 29.9814 26.7182 29.6446 26.7616C29.34 26.8316 29.0447 26.936 28.7646 27.0729C28.46 27.1507 28.3133 27.4621 28.1554 27.6955C27.9844 27.9588 27.8586 28.2481 27.7831 28.5516C27.7831 28.8852 27.6816 29.2299 27.6477 29.5745V30.2194C27.58 31.6536 27.6477 33.0101 27.6477 34.1886C27.6477 34.9002 27.7492 35.545 27.8395 36.1009H21.4089C20.0212 36.0231 18.3403 35.9564 16.2983 35.9119L9.99178 35.8007L6.22367 35.7007H5.2196H5.02781C5.02781 35.7007 4.96012 35.7007 5.02781 35.6117C4.90371 30.086 4.82473 23.3483 4.71192 15.1542C4.71192 14.0423 4.71192 12.4413 4.71192 10.3956C4.71192 9.37268 4.71192 8.24974 4.71192 7.03785Z" fill="#F2EEE7"/>
</svg>
