<svg xmlns="http://www.w3.org/2000/svg" viewBox="0 0 19.46 37.44"><defs><style>.cls-1{fill:#fff;}</style></defs><g id="Capa_2" data-name="Capa 2"><g id="Línea"><path class="cls-1" d="M10.88,32.79a2.49,2.49,0,0,0-.58-.33,2.74,2.74,0,0,0-.67-.17,2.45,2.45,0,0,0-1.4.26,2.6,2.6,0,0,0-1.37,1.76,2.56,2.56,0,0,0,0,1.23,2.52,2.52,0,0,0,.64,1.17,2.4,2.4,0,0,0,1.36.7,2.23,2.23,0,0,0,1.81-.54l.12-.11a2.56,2.56,0,0,0,.94-1.44,2.29,2.29,0,0,0,0-1.09A2.34,2.34,0,0,0,10.88,32.79Z"/><path class="cls-1" d="M19.43,9.27a11,11,0,0,0-1.27-4.58,8.93,8.93,0,0,0-3.62-3.61A9.71,9.71,0,0,0,9.84,0L8.75.08C8.38.13,8,.19,7.64.27a10.68,10.68,0,0,0-4.8,2.67A9,9,0,0,0,.11,8a7,7,0,0,0,.16,3.16c.48,1.35,1,1.42,1.62,1.3.75-.16,1.2-.54,1.4-1.61.12-.53.2-1.24.43-2.16A7.44,7.44,0,0,1,5.46,5.5,5.64,5.64,0,0,1,9.87,3.74a5.31,5.31,0,0,1,2.71.8,4.6,4.6,0,0,1,1.75,2.07,7,7,0,0,1,0,5.15,8.12,8.12,0,0,1-1.93,2.63,15.34,15.34,0,0,1-1.54,1.35c-.56.45-1.16.92-1.74,1.48A9.18,9.18,0,0,0,7.57,19.1a7,7,0,0,0-.88,2.14,9.88,9.88,0,0,0-.2,3,10.49,10.49,0,0,0,.3,1.84c.52,1.85,1.16,1.95,1.88,2s1.34-.2,1.78-2c.11-.45.21-1,.33-1.59a11.49,11.49,0,0,1,.51-1.89,2.63,2.63,0,0,1,.42-.73,5.61,5.61,0,0,1,.85-.85c.38-.33.89-.7,1.49-1.16a17.6,17.6,0,0,0,2-1.75,12.58,12.58,0,0,0,1.32-1.57,11,11,0,0,0,2-7.23Z"/></g></g></svg>