<svg xmlns="http://www.w3.org/2000/svg" viewBox="0 0 66.65 37.16"><defs><style>.cls-1{fill:#fff;}</style></defs><g id="Capa_2" data-name="Capa 2"><g id="Línea"><path class="cls-1" d="M20.85,2.6C20.85-.19,16.18,0,10.42,0S0-.19,0,2.6C0,5.05,3.58,5.2,8.35,5.21c-.6,4.68-.53,12-.53,18.13,0,3.74,0,6.56.09,8.62C3.37,32,0,32.19,0,34.56c0,2.79,4.67,2.6,10.42,2.6s10.43.19,10.43-2.6c0-2.37-3.37-2.59-7.91-2.6.11-2.06.08-4.88.08-8.62,0-6.18.07-13.45-.52-18.13C17.26,5.2,20.85,5.05,20.85,2.6Z"/><path class="cls-1" d="M43.75,2.6C43.75-.19,39.08,0,33.32,0S22.9-.19,22.9,2.6c0,2.45,3.58,2.6,8.35,2.61-.6,4.68-.53,12-.53,18.13,0,3.74,0,6.56.09,8.62-4.54,0-7.91.23-7.91,2.6,0,2.79,4.67,2.6,10.42,2.6s10.43.19,10.43-2.6c0-2.37-3.37-2.59-7.91-2.6.11-2.06.08-4.88.08-8.62,0-6.18.07-13.45-.52-18.13C40.16,5.2,43.75,5.05,43.75,2.6Z"/><path class="cls-1" d="M58.74,32c.11-2.06.08-4.88.08-8.62,0-6.18.07-13.45-.52-18.13,4.76,0,8.35-.16,8.35-2.61C66.65-.19,62,0,56.22,0S45.8-.19,45.8,2.6c0,2.45,3.58,2.6,8.35,2.61-.6,4.68-.53,12-.53,18.13,0,3.74,0,6.56.09,8.62-4.54,0-7.91.23-7.91,2.6,0,2.79,4.67,2.6,10.42,2.6s10.43.19,10.43-2.6C66.65,32.19,63.28,32,58.74,32Z"/></g></g></svg>