<svg xmlns="http://www.w3.org/2000/svg" viewBox="0 0 50.57 37.43"><defs><style>.cls-1{fill:#fff;}</style></defs><g id="Capa_2" data-name="Capa 2"><g id="Línea"><path class="cls-1" d="M50,.09C48.59-.34,46.3,5.94,43.5,14.61c-1.42,4.32-3,9.32-4.8,14.16l-.36.89-.18.42h0l-.59-1.38c-.49-1.17-1-2.37-1.41-3.55-3.53-9.5-5.5-16.09-7.1-20s-2.7-5.43-4-5-1.45,2.26-.43,6.45A205.4,205.4,0,0,0,31.29,27c.46,1.21.94,2.45,1.47,3.71l.4,1L33.77,33a14.52,14.52,0,0,0,1.92,3.23,4,4,0,0,0,1.15.89,6.64,6.64,0,0,0,1.29.3,4.33,4.33,0,0,0,1.33-.31,4,4,0,0,0,1.15-.86A12.59,12.59,0,0,0,42.53,33l.4-.92.21-.51.38-1A146.88,146.88,0,0,0,48,15.91C50.26,7,51.26.46,50,.09Z"/><path class="cls-1" d="M20.85,2.6C20.85-.19,16.18,0,10.42,0S0-.19,0,2.6C0,5.05,3.58,5.2,8.35,5.21c-.6,4.68-.53,12-.53,18.13,0,3.74,0,6.56.09,8.62C3.37,32,0,32.19,0,34.56c0,2.79,4.67,2.6,10.42,2.6s10.43.19,10.43-2.6c0-2.37-3.37-2.59-7.91-2.6.11-2.06.08-4.88.08-8.62,0-6.18.07-13.45-.52-18.13C17.26,5.2,20.85,5.05,20.85,2.6Z"/></g></g></svg>