<svg xmlns="http://www.w3.org/2000/svg" viewBox="0 0 44.37 29.52"><defs><style>.cls-1{fill:#fff;}</style></defs><g id="Capa_2" data-name="Capa 2"><g id="Línea"><path class="cls-1" d="M27,7.83a8.79,8.79,0,0,0-2.9-1A8,8,0,0,0,20.42,7a7,7,0,0,0-2.49.89,7.14,7.14,0,0,0-2.85,3.24,8.2,8.2,0,0,0-.45,5.17,7.89,7.89,0,0,0,3.71,5,7.63,7.63,0,0,0,3.34,1.06A8.92,8.92,0,0,0,25.16,22,7.23,7.23,0,0,0,28.34,20a9,9,0,0,0,1.85-3,7.56,7.56,0,0,0-.7-6.9A6.93,6.93,0,0,0,27,7.83ZM27.34,16a6.22,6.22,0,0,1-1.23,2,4.41,4.41,0,0,1-1.86,1.1,5.38,5.38,0,0,1-4.4-.38,4.87,4.87,0,0,1-2.29-3.11,5.33,5.33,0,0,1,.25-3.28,4.61,4.61,0,0,1,3.6-2.72c.2,0,.39-.06.59-.08a6.19,6.19,0,0,1,1.52.14,6.65,6.65,0,0,1,2,.76A4,4,0,0,1,27,11.79,4.59,4.59,0,0,1,27.34,16Z"/><path class="cls-1" d="M44.07,13.42a2.74,2.74,0,0,0-.23-.53l-.24-.45c-.11-.23-.25-.43-.37-.64a20.9,20.9,0,0,0-1.66-2.31A24.78,24.78,0,0,0,37.7,5.63a25.14,25.14,0,0,0-8.86-4.58,28.91,28.91,0,0,0-8-1c-.42,0-.83,0-1.24,0a17.92,17.92,0,0,0-3,.37A10.35,10.35,0,0,0,15,.8c-.54.17-1.11.33-1.67.54l-1.75.77c-.61.27-1.18.65-1.81,1A26.37,26.37,0,0,0,2.38,9.71,19.73,19.73,0,0,0,.69,12.28,5.63,5.63,0,0,0,0,14.87a6.71,6.71,0,0,0,.4,1.35,2.81,2.81,0,0,0,.29.63l.23.4a26,26,0,0,0,4.47,5.39,27.61,27.61,0,0,0,3.85,3,24.6,24.6,0,0,0,7.15,3.16,21.79,21.79,0,0,0,9.92.24,25.08,25.08,0,0,0,10-4.63,31.18,31.18,0,0,0,4.21-3.75c.64-.69,1.26-1.41,1.85-2.16.3-.37.57-.78.85-1.17A3.53,3.53,0,0,0,43.4,17l.25-.4a4.21,4.21,0,0,0,.47-1,2.46,2.46,0,0,0,.24-1.08A7,7,0,0,0,44.07,13.42Zm-3.55,1.27-.09.14-.27.4c-.25.31-.46.64-.74.95-.51.63-1.06,1.23-1.64,1.82a28.69,28.69,0,0,1-3.73,3.17,21.42,21.42,0,0,1-8.36,3.68,17.51,17.51,0,0,1-7.89-.34,20.05,20.05,0,0,1-5.8-2.7,27.53,27.53,0,0,1-3.31-2.67A22.58,22.58,0,0,1,5,14.81l-.14-.24,0,0h0s0,0,0,0a17.42,17.42,0,0,1,1.25-2,23.77,23.77,0,0,1,6-5.68c.5-.31,1-.66,1.44-.9l1.39-.72c.45-.2.9-.36,1.32-.53a6.54,6.54,0,0,1,1.24-.43,24.66,24.66,0,0,1,4.08-.85l.39,0a23.18,23.18,0,0,1,6.17.93,21.09,21.09,0,0,1,7.48,4.08,20.08,20.08,0,0,1,3.22,3.35c.24.31.48.63.69,1a10.33,10.33,0,0,1,.63,1c.1.16.2.33.28.49l.09.2A.29.29,0,0,1,40.52,14.69Z"/></g></g></svg>