<svg xmlns="http://www.w3.org/2000/svg" viewBox="0 0 35.9 35.81"><defs><style>.cls-1{fill:#fff;}</style></defs><g id="Capa_2" data-name="Capa 2"><g id="Línea"><path class="cls-1" d="M15.65,13.8a62.29,62.29,0,0,0-.18,6.34c0,4.3-.14,5.74,2,5.74s2-1.44,2-5.74c0-2.08,0-4.44-.17-6.33,3.81,0,5.11.09,5.11-2s-1.37-2-5.45-2-9.32-.14-9.32,2C9.64,13.4,12.51,13.73,15.65,13.8Z"/><path class="cls-1" d="M35.87,2.37l0-.55c0-.14-.11-.27-.16-.41a1.21,1.21,0,0,0-.58-.68,5,5,0,0,0-2-.48L32.23.19l-.66,0L30.28.1C26.84,0,23.44,0,20.12,0L10.55.09,6.16.15,4.09.18c-.58,0-1.3,0-1.9.07a1.9,1.9,0,0,0-1.28.82A3.41,3.41,0,0,0,.38,2.66c0,.29-.07.6-.11.89l0,.59C.19,4.76.16,5.36.13,6,.08,7.1.05,8.15,0,9.12,0,11,0,12.58,0,13.65,0,17.53.09,21,.17,24.23c.11,3.48.21,6.6.3,9.4a2,2,0,0,0,.64,1.46,2.65,2.65,0,0,0,1.51.6c.3,0,.6.06.9.08l.8,0h.94c1.24,0,2.37,0,3.44-.05,2.13,0,4-.13,5.55-.22l3-.18h.66l7.29-.06a4.25,4.25,0,0,0,2-.86c.45-.33.87-.68,1.29-1,.85-.73,1.73-1.53,2.82-2.57.54-.52,1.13-1.1,1.79-1.77L34.13,28l.57-.62.16-.18.21-.27a6.55,6.55,0,0,0,.4-.58c.08-.25.1-.51.16-.77a1.75,1.75,0,0,0,0-.4v-.27c0-.33,0-.67,0-1,0-.67,0-1.35,0-2.05,0-1.4,0-2.86.05-4.36,0-3,.06-6.21.09-9.5,0-.83,0-1.66,0-2.49v-2ZM4,6.33c0-.78.07-2.1.08-2.34,0,0,0,0,.06,0l1.78-.07,4.37-.17,9.55-.3c3.31-.09,6.72-.17,10.1-.14.83,0,1.7,0,2.48.07h.26s.1,0,.12,0V5.27l0,2.51c0,3.32,0,6.55.05,9.58v4.39c0,.7,0,1.39,0,2.06v.39A41.57,41.57,0,0,0,28,24H27a8.64,8.64,0,0,0-.9.07,3.59,3.59,0,0,0-.78.28c-.27.07-.4.35-.54.56a2.56,2.56,0,0,0-.33.77c0,.3-.09.61-.12.92l0,.58c-.06,1.29,0,2.51,0,3.57,0,.64.09,1.22.17,1.72l-5.7,0c-1.23-.07-2.72-.13-4.53-.17L8.68,32.2l-3.34-.09-.89,0H4.28s-.06,0,0-.08C4.17,27.06,4.1,21,4,13.63c0-1,0-2.44,0-4.28C4,8.43,4,7.42,4,6.33Z"/></g></g></svg>