<?xml version="1.0" encoding="UTF-8"?>
<svg id="Capa_2" data-name="Capa 2" xmlns="http://www.w3.org/2000/svg" viewBox="0 0 700.25 685.17">
  <defs>
    <style>
      .cls-1 {
        fill: #3c80a6;
      }

      .cls-2 {
        fill: #2b8e3a;
      }

      .cls-3 {
        fill: #aa7613;
      }

      .cls-4 {
        fill: #97c226;
      }

      .cls-5 {
        fill: #5f3021;
      }

      .cls-6 {
        fill: #fcc415;
      }
    </style>
  </defs>
  <g id="Signo_marcario" data-name="Signo marcario">
    <g>
      <g>
        <path class="cls-4" d="M369.38,108.69c-9.3,4.29-23.37-.13-32.42-2.65-9.05-2.52-22.19-9.39-25.42-10.81-5.53-2.43-12.66-5.99-26.43-1.88-3.55.76-12.87,1.82-10.73-2.01,2.15-3.83,49.01-18.55,78.96-9.42,21.13,6.44,25.34,22.5,16.04,26.78Z"/>
        <path class="cls-2" d="M85.47,362.18c0-50.79,60.36-159.44,133.78-159.44,13.76-.01,15.91,7.91,15.5,13.83-.41,5.92-6.67,10.48-14.38,12.08s-20.42,4.79-26.37,11.5c-7.35,8.3-4.83,17.68,5.92,21.04,24.82,6.93,48.69-37.83,80.08-39.95,39.03-1.97,62.5,30.11,57.82,42.01-4.68,11.9-21.05-4.49-51.11-4.49s-59.26,16.36-73.68,20.33c-25.44,9.37-61.7-2.08-92.33,36.18-3.02,4.77-6.18,11.73-5.21,17.55,1.23,7.36,6.43,9.4,12.98,5.1,6.55-4.3,14.51-27.01,36.5-37.64,7.43-4.31,30.34-8.73,36.79-2.28,6.31,6.62-4.33,15.17-7.97,17.85-11.97,8.78-42.12,11.2-55.79,39.85-13.67,28.65-11.3,64.38-27.3,64.38s-23.9-14.09-25.22-57.89Z"/>
        <path class="cls-4" d="M374.86,235.79c-14.08,6.85-31.83-4.38-39.32-11.81-12-11.89-47.98-35.45-71.37-39.53-23.39-4.08-58.68,3.21-77.45,6.28-11.24,1.83-29.19,7.28-40.42,5.59-3.72-.56-8.27-3.58-9.18-8.35-.87-4.53,28.46-46.12,81.53-48.69,17.5,0,20.52,6.04,30.38,6.04,9.86,0,13.52-3.74,34.6-2.88,21.09.87,24.96,10.52,32.8,12.53,7.84,2.01,19.08-.51,30.16,4.29,11.08,4.8,29,20.26,39.04,44.96,2.81,12.71,3.31,24.72-10.77,31.57Z"/>
        <path class="cls-4" d="M377.24,152.76c-6.98,3.16-13.89-3.29-24.65-6.87-10.76-3.58-14.26.44-29.53-4.1-15.26-4.53-18.95-12.56-34.02-13.98-15.07-1.42-25.27,5.44-39.08,4.66-13.82-.78-15.77-9.99-41.22-2.69-9.79,2.08-13.63.8-13.63-2.1s35.61-23.98,46.17-23.98,9.95,3.59,18.4,3.99c8.45.4,18.4-4.56,37.51-3.93,15.6.51,23.52,11.11,34.25,14.63,10.73,3.53,15.03,1.74,30.59,5.67,15.57,3.94,22.17,25.54,15.2,28.7Z"/>
        <path class="cls-2" d="M129.56,234.74c-3.51,3.96-11.31,3.74-15.23,1.94-3.7-1.7-3.58-5.79-2.45-9.62,1.84-6.21,9.56-16.47,14.61-15.77,5.05.7,7.39,18.58,3.06,23.45Z"/>
        <path class="cls-3" d="M292.01,280.46c43.39,0,58.5,22.91,49.74,34.8s-29.09-7.07-55.22-6.29c-76.28,0-124.43,96.94-130.41,121.52-5.99,24.58-1.98,44.53,10.43,44.53,13.35,0,17.71-17.3,21.79-38.65,3.41-15.91,10.11-32.04,16.79-47.02,5.74-12.88,14.34-25.89,24.95-35.36,16.77-14.97,34.72-24.56,55.95-24.56,29.34,0,41.05,11.85,41.05,26.05,0,12.21-18.13,17.92-27.54,19.87-9.26,1.92-40.15,2.34-61.16,23.36-32.95,32.95-29.69,70.92-33.56,88.51-3.88,17.59-21.76,37.09-38.87,37.09-31.25,0-42.8-40.19-44.06-57.54,0-87.04,102.2-186.32,170.12-186.32Z"/>
        <path class="cls-5" d="M338.59,584.93c9.3-4.29,23.37.13,32.42,2.65,9.05,2.52,22.19,9.39,25.42,10.81,5.53,2.43,12.66,5.99,26.43,1.88,3.55-.76,12.87-1.82,10.73,2.01s-49.01,18.55-78.96,9.42c-21.13-6.44-25.34-22.5-16.04-26.78Z"/>
        <path class="cls-1" d="M622.5,331.44c0,50.79-60.36,159.44-133.78,159.44-13.76.01-15.91-7.91-15.5-13.83.41-5.92,6.67-10.48,14.38-12.08,7.71-1.6,20.42-4.79,26.37-11.5,7.35-8.3,4.83-17.68-5.92-21.04-24.82-6.93-48.69,37.83-80.08,39.95-39.03,1.97-62.5-30.11-57.82-42.01,4.68-11.9,21.05,4.49,51.11,4.49s59.26-16.36,73.68-20.33c25.44-9.37,61.7,2.08,92.33-36.18,3.02-4.77,6.18-11.73,5.21-17.55-1.23-7.36-6.43-9.4-12.98-5.1s-14.51,27.01-36.5,37.64c-7.43,4.31-30.34,8.73-36.79,2.28-6.31-6.62,4.33-15.17,7.97-17.85,11.97-8.78,42.12-11.2,55.79-39.85,13.67-28.65,11.3-64.38,27.3-64.38s23.9,14.09,25.22,57.89Z"/>
        <path class="cls-5" d="M333.11,457.82c14.08-6.85,31.83,4.38,39.32,11.81,12,11.89,47.98,35.45,71.37,39.53,23.39,4.08,58.68-3.21,77.45-6.28,11.24-1.83,29.19-7.28,40.42-5.59,3.72.56,8.27,3.58,9.18,8.35.87,4.53-28.46,46.12-81.53,48.69-17.5,0-20.52-6.04-30.38-6.04-9.86,0-13.52,3.74-34.6,2.88-21.09-.87-24.96-10.52-32.8-12.53-7.84-2.01-19.08.51-30.16-4.29-11.08-4.8-29-20.26-39.04-44.96-2.81-12.71-3.31-24.72,10.77-31.57Z"/>
        <path class="cls-5" d="M330.73,540.85c6.98-3.16,13.89,3.29,24.65,6.87,10.76,3.58,14.26-.44,29.53,4.1,15.26,4.53,18.95,12.56,34.02,13.98,15.07,1.42,25.27-5.44,39.08-4.66,13.82.78,15.77,9.99,41.22,2.69,9.79-2.08,13.63-.8,13.63,2.1s-35.61,23.98-46.17,23.98-9.95-3.59-18.4-3.99c-8.45-.4-18.4,4.56-37.51,3.93-15.6-.51-23.52-11.11-34.25-14.63-10.73-3.53-15.03-1.74-30.59-5.67-15.57-3.94-22.17-25.54-15.2-28.7Z"/>
        <path class="cls-1" d="M578.41,458.87c3.51-3.96,11.31-3.74,15.23-1.94,3.7,1.7,3.58,5.79,2.45,9.62-1.84,6.21-9.56,16.47-14.61,15.77-5.05-.7-7.39-18.58-3.06-23.45Z"/>
        <path class="cls-1" d="M415.97,413.16c-43.39,0-58.5-22.91-49.74-34.8,8.77-11.89,29.09,7.07,55.22,6.29,76.28,0,124.43-96.94,130.41-121.52,5.99-24.58,1.98-44.53-10.43-44.53-13.35,0-17.71,17.3-21.79,38.65-3.41,15.91-10.11,32.04-16.79,47.02-5.74,12.88-14.34,25.89-24.95,35.36-16.77,14.97-34.72,24.56-55.95,24.56-29.34,0-41.05-11.85-41.05-26.05,0-12.21,18.13-17.92,27.54-19.87,9.26-1.92,40.15-2.34,61.16-23.36,32.95-32.95,29.69-70.92,33.56-88.51,3.88-17.59,21.76-37.09,38.87-37.09,31.25,0,42.8,40.19,44.06,57.54,0,87.04-102.2,186.32-170.12,186.32Z"/>
        <path class="cls-6" d="M449.04,149.6c-4.23-3.27-3.55-16.17-.24-25.58,1.68-4.78,4.31-9.1,7.13-13.37,3.09-4.69,7.46-7.5,12.73-7.32,5.89.2,9.9,3.66,11.67,9.05,2.41,7.33.4,14.79-2.25,22.08-2.42,6.66-5.56,12.96-11.61,17.64-6.44,4.99-13.2.77-17.43-2.51Z"/>
        <path class="cls-6" d="M371.21,281.48c0,34.35,91.4,15.83,91.4-27.67,0-22.11-9.84-32.38,3.82-52.88,13.66-20.51,55.3-36.49,59.08-48.8,3.79-12.31-3.64-22.95-17.21-21.25-13.57,1.7-40.42,57.46-58.29,49.74-17.88-7.72-22.27-23.87-22.54-43.99,1.17-24.88,4.69-51.03-11.38-53.14-7.24-.44-11.52,2.33-13.03,3.69-29.44,29.44,22.57,100.53,22.57,126.88,0,34.58-54.44,25.69-54.44,67.44Z"/>
        <path class="cls-3" d="M259.97,544.28c4.23,3.27,3.55,16.17.24,25.58-1.68,4.78-4.31,9.1-7.13,13.37-3.09,4.69-7.46,7.5-12.73,7.32-5.89-.2-9.9-3.66-11.67-9.05-2.41-7.33-.4-14.79,2.25-22.08,2.42-6.66,5.56-12.96,11.61-17.64,6.44-4.99,13.2-.77,17.43,2.51Z"/>
        <path class="cls-3" d="M337.81,412.4c0-34.35-91.4-15.83-91.4,27.67,0,22.11,9.84,32.38-3.82,52.88-13.66,20.51-55.3,36.49-59.08,48.8-3.79,12.31,3.64,22.95,17.21,21.25,13.57-1.7,40.42-57.46,58.29-49.74,17.88,7.72,22.27,23.87,22.54,43.99-1.17,24.88-4.69,51.03,11.38,53.14,7.24.44,11.52-2.33,13.03-3.69,29.44-29.44-22.57-100.53-22.57-126.88,0-34.58,54.44-25.69,54.44-67.44Z"/>
      </g>
      <g>
        <path class="cls-2" d="M36.77,274.91c3.3.53,6.16,1.68,8.6,3.44,2.43,1.76,4.2,4.12,5.3,7.06,1.1,2.94,1.31,6.47.64,10.59-.95,5.84-3.29,10.03-7.02,12.56-3.73,2.53-8.24,3.37-13.54,2.51l-30.75-4.94,1.52-9.32,29.21,4.69c3.92.63,6.8.33,8.65-.89,1.85-1.22,3.01-3.3,3.48-6.22.5-3.05-.01-5.4-1.53-7.06-1.51-1.66-4.12-2.78-7.82-3.38l-29.14-4.68,1.52-9.32,30.88,4.96Z"/>
        <path class="cls-2" d="M25.56,239.7c1.09-3.51,2.99-6,5.69-7.48,2.7-1.48,6.32-1.53,10.85-.14l23.03,7.07-2.77,8.9-20.64-6.33c-2.54-.78-4.58-.95-6.11-.5-1.53.45-2.58,1.59-3.15,3.42-.84,2.71-.42,4.87,1.28,6.48,1.7,1.61,4.42,2.99,8.17,4.14l16.63,5.1-2.77,8.9-35.32-10.84,2.12-6.81,4.9.19.15-.48c-1.49-1.59-2.36-3.42-2.62-5.48-.25-2.06-.07-4.11.56-6.14Z"/>
        <path class="cls-2" d="M49.39,183.36c.2-.41.47-.89.79-1.43.32-.54.61-.96.85-1.26l8.18,4.8c-.21.22-.47.57-.79,1.04-.31.47-.56.9-.75,1.27-.71,1.42-1.12,2.92-1.22,4.49-.11,1.58.24,3.07,1.06,4.47.81,1.4,2.27,2.62,4.37,3.66l16.86,8.31-4.17,8.35-33.12-16.32,3.16-6.33,6.2,1.52.19-.39c-1.25-1.73-2.09-3.68-2.52-5.85-.43-2.17-.13-4.28.9-6.33Z"/>
        <path class="cls-2" d="M52.51,151.31c.24.82.51,1.87.79,3.16.28,1.28.57,2.65.86,4.1.29,1.45.54,2.86.75,4.22.21,1.36.37,2.53.47,3.51l-3.18,5.33-.76-.45c-.4-1.01-.86-2.19-1.39-3.54-.53-1.35-1.1-2.72-1.72-4.1-.62-1.38-1.2-2.57-1.76-3.58l5.36-8.98.58.34ZM92.14,184.6l-4.78,8.02-31.8-18.72,4.78-8.02,31.8,18.72Z"/>
        <path class="cls-2" d="M99.85,141.1c4.98,3.57,7.94,7.54,8.89,11.9.95,4.36-.09,8.62-3.11,12.78-1.87,2.57-4.14,4.43-6.81,5.57-2.67,1.14-5.58,1.46-8.74.94-3.16-.52-6.4-1.97-9.73-4.36-4.97-3.57-7.93-7.51-8.85-11.83-.92-4.32.14-8.57,3.18-12.76,1.89-2.6,4.17-4.47,6.83-5.59,2.66-1.13,5.55-1.44,8.67-.95,3.12.49,6.35,1.93,9.68,4.32ZM85.95,160.21c2.96,2.13,5.53,3.29,7.7,3.48,2.17.2,3.99-.72,5.47-2.75,1.45-1.99,1.74-3.98.88-5.97-.87-1.98-2.78-4.04-5.75-6.17-2.96-2.13-5.51-3.27-7.64-3.44-2.13-.17-3.94.76-5.41,2.79-1.45,2-1.76,3.97-.93,5.93.83,1.96,2.73,4,5.69,6.13Z"/>
        <path class="cls-2" d="M115.43,92.78c-2.62,2.53-3.59,5.51-2.93,8.93.66,3.43,2.77,6.95,6.33,10.58,3.59,3.66,7.01,5.88,10.25,6.65,3.25.77,6.28-.21,9.11-2.94,1.32-1.28,2.48-2.71,3.48-4.3.99-1.59,1.97-3.41,2.94-5.47l6,6.12c-.82,1.98-1.77,3.78-2.87,5.41-1.1,1.63-2.51,3.27-4.22,4.93-3.31,3.2-6.75,5.11-10.34,5.73-3.58.62-7.19.1-10.8-1.57-3.62-1.66-7.16-4.26-10.63-7.79-3.4-3.47-5.82-7.1-7.26-10.91-1.44-3.8-1.78-7.54-1.02-11.22.76-3.68,2.77-7.09,6.01-10.23,1.59-1.54,3.41-2.87,5.44-4,2.03-1.12,4.15-2.03,6.35-2.71l3.6,8.07c-1.8.55-3.53,1.19-5.19,1.92-1.66.73-3.07,1.66-4.25,2.79Z"/>
        <path class="cls-2" d="M145.92,70.66c3.67-2.78,7.14-4.06,10.39-3.85s6.22,2.07,8.9,5.57l14.94,19.47-5.21,3.94-4.49-2.86-.2.15c.03,2.45-.33,4.53-1.08,6.23-.76,1.7-2.27,3.41-4.54,5.13-2.44,1.84-5.04,2.62-7.8,2.31-2.77-.3-5.35-2.02-7.76-5.16-2.38-3.1-3.12-6.16-2.22-9.19.9-3.02,3.33-6.14,7.3-9.37l4.63-3.76-.99-1.28c-1.18-1.53-2.41-2.37-3.71-2.52s-2.62.29-3.95,1.3c-1.34,1.01-2.48,2.2-3.43,3.57-.95,1.37-1.83,2.84-2.64,4.41l-6.6-3.55c.84-1.93,1.97-3.81,3.4-5.62,1.43-1.81,3.11-3.46,5.05-4.92ZM159.53,86.23c-2.35,1.89-3.66,3.62-3.94,5.18-.28,1.56.12,3.04,1.18,4.43.93,1.21,1.93,1.83,2.99,1.84,1.06.01,2.13-.39,3.2-1.2,1.6-1.21,2.56-2.74,2.89-4.59.32-1.85-.23-3.7-1.65-5.56l-1.85-2.41-2.82,2.31Z"/>
        <path class="cls-2" d="M195.63,39.7l18.61,31.73-6.2,3.59-3.47-3.44-.44.25c.01,2.17-.59,4.11-1.81,5.8-1.22,1.69-2.75,3.07-4.6,4.14-3.19,1.85-6.29,2.41-9.29,1.68-3-.73-5.7-3.13-8.08-7.19l-12.13-20.69,8.11-4.69,10.87,18.54c1.32,2.25,2.7,3.73,4.14,4.45,1.44.72,3,.6,4.67-.37,2.47-1.43,3.63-3.3,3.47-5.63-.15-2.33-1.21-5.17-3.19-8.54l-8.76-14.93,8.11-4.69Z"/>
        <path class="cls-2" d="M235,62.89c-4.69,2.04-8.93,2.23-12.71.57-3.78-1.66-6.98-5.47-9.6-11.43-1.81-4.11-2.63-7.74-2.46-10.9.17-3.16,1.14-5.86,2.93-8.1,1.78-2.24,4.2-4.02,7.23-5.35,2.15-.94,4.13-1.52,5.92-1.77,1.79-.24,3.42-.31,4.89-.22l.58,8.19c-1.6.01-3.07.08-4.4.23-1.34.14-2.58.46-3.73.96-4.46,1.94-5.2,6.3-2.22,13.07,1.48,3.37,3.16,5.6,5.04,6.69,1.88,1.09,3.88,1.18,5.99.26,1.81-.79,3.29-1.73,4.45-2.85,1.16-1.11,2.19-2.41,3.1-3.88l3.45,7.82c-.91,1.47-2,2.72-3.27,3.73-1.27,1.02-3,2-5.19,2.95Z"/>
        <path class="cls-2" d="M252.76,15.82c4.41-1.36,8.1-1.39,11.09-.09,2.98,1.31,5.13,4.06,6.45,8.25l7.33,23.37-6.25,1.94-3.23-4.21-.24.07c-.81,2.32-1.86,4.15-3.16,5.49-1.29,1.34-3.3,2.43-6.03,3.28-2.93.91-5.64.75-8.13-.48-2.49-1.22-4.33-3.72-5.52-7.48-1.17-3.72-.81-6.85,1.08-9.39,1.89-2.53,5.25-4.64,10.08-6.33l5.65-1.96-.48-1.54c-.58-1.84-1.45-3.05-2.62-3.63-1.17-.58-2.56-.62-4.16-.12-1.6.5-3.09,1.23-4.46,2.19-1.37.96-2.7,2.05-4,3.24l-4.98-5.57c1.45-1.53,3.17-2.9,5.14-4.13,1.97-1.22,4.12-2.19,6.44-2.91ZM260.19,35.08c-2.86.98-4.69,2.16-5.49,3.53-.8,1.38-.94,2.9-.41,4.57.46,1.46,1.18,2.37,2.18,2.74,1,.37,2.13.36,3.42-.04,1.92-.6,3.36-1.71,4.29-3.34.94-1.63,1.06-3.56.36-5.78l-.91-2.89-3.45,1.21Z"/>
        <path class="cls-2" d="M293.54,36.76c-.02,2.44-.23,5.14-.6,8.11-.38,2.97-.82,5.77-1.31,8.41l-6.58,1.42c0-2.71-.02-5.59-.09-8.65-.07-3.06-.21-5.76-.42-8.1l8.43-1.82.59.63Z"/>
        <path class="cls-2" d="M356.61.02c3.9-.16,6.89.79,8.97,2.84,2.08,2.05,3.21,5.42,3.4,10.13l.97,23.92-9.37.38-.87-21.44c-.22-5.29-2.04-7.86-5.48-7.72-2.47.1-4.2,1.11-5.17,3.03-.97,1.92-1.39,4.66-1.24,8.19l.75,18.41-9.37.38-.87-21.44c-.22-5.29-2.04-7.86-5.48-7.72-2.6.1-4.35,1.22-5.25,3.34-.9,2.12-1.27,5.13-1.11,9.03l.7,17.27-9.37.38-1.49-36.69,7.17-.29,1.45,4.65.5-.02c.97-1.92,2.35-3.35,4.14-4.27,1.79-.92,3.67-1.43,5.64-1.5,2.52-.1,4.67.25,6.47,1.05,1.8.8,3.19,2.1,4.19,3.9l.82-.03c.97-1.92,2.38-3.35,4.21-4.27,1.83-.92,3.73-1.43,5.7-1.51Z"/>
        <path class="cls-2" d="M413.49,5.32l-4.4,36.46-7.13-.85-.69-4.82-.5-.06c-1.31,1.74-2.96,2.92-4.96,3.54-2,.62-4.06.8-6.19.55-3.67-.44-6.48-1.84-8.43-4.22-1.95-2.38-2.65-5.9-2.08-10.58l2.87-23.77,9.31,1.11-2.57,21.3c-.31,2.58-.11,4.59.6,6.03.72,1.44,2.03,2.27,3.95,2.5,2.83.34,4.9-.47,6.19-2.41,1.29-1.95,2.17-4.85,2.64-8.73l2.07-17.16,9.32,1.11Z"/>
        <path class="cls-2" d="M430.84,47.4c-4.98-1.18-8.48-3.57-10.48-7.16-2.01-3.59-2.25-8.54-.73-14.87,1.05-4.36,2.6-7.75,4.65-10.17,2.05-2.42,4.47-3.99,7.25-4.71,2.78-.72,5.79-.7,9.01.06,2.29.54,4.22,1.25,5.8,2.14,1.58.88,2.92,1.8,4.03,2.75l-4.5,6.88c-1.28-.95-2.5-1.77-3.65-2.46-1.15-.69-2.34-1.18-3.56-1.47-4.74-1.12-7.97,1.91-9.7,9.11-.86,3.58-.87,6.36-.03,8.36.83,2,2.38,3.26,4.62,3.79,1.92.45,3.68.59,5.28.39,1.6-.2,3.21-.61,4.83-1.24l-2,8.31c-1.62.63-3.24.97-4.87,1.02-1.63.05-3.61-.2-5.94-.75Z"/>
        <path class="cls-2" d="M470.43,15.89c-.62,1.68-1.26,3.29-1.94,4.81-.67,1.52-1.16,2.59-1.47,3.19l.47.17c1.67-1.4,3.47-2.2,5.38-2.42,1.91-.21,3.85.04,5.82.75,3.51,1.27,5.95,3.29,7.32,6.06,1.37,2.77,1.25,6.36-.38,10.78l-8.27,22.49-8.81-3.2,7.41-20.15c1.83-4.97,1.01-8.08-2.46-9.34-2.64-.96-4.83-.64-6.55.95-1.73,1.59-3.26,4.22-4.61,7.89l-5.97,16.24-8.81-3.2,17.66-48.01,8.81,3.2-3.6,9.79Z"/>
        <path class="cls-2" d="M521.07,62.89c-2.81,5.42-6.32,8.92-10.52,10.51-4.2,1.58-8.59,1.2-13.18-1.15-2.84-1.45-5.02-3.4-6.56-5.85-1.54-2.45-2.29-5.27-2.24-8.45.04-3.18,1.01-6.58,2.89-10.21,2.81-5.42,6.3-8.91,10.46-10.46,4.16-1.55,8.55-1.15,13.18,1.22,2.87,1.47,5.07,3.43,6.59,5.87,1.52,2.44,2.27,5.23,2.24,8.37-.02,3.14-.98,6.52-2.86,10.15ZM499.97,52.09c-1.67,3.23-2.45,5.92-2.31,8.08.13,2.16,1.31,3.81,3.55,4.96,2.2,1.13,4.22,1.12,6.07-.03,1.85-1.15,3.61-3.34,5.28-6.56,1.67-3.23,2.44-5.9,2.29-8.02-.15-2.12-1.35-3.75-3.59-4.9-2.2-1.13-4.22-1.14-6.04-.03-1.83,1.11-3.58,3.28-5.25,6.5Z"/>
        <path class="cls-2" d="M544.07,86.9c-2.07,3.1-4.68,4.81-7.84,5.13-3.16.32-6.76-.86-10.82-3.54-1.99-1.31-3.62-2.58-4.86-3.81-1.25-1.22-2.38-2.63-3.39-4.21l4.6-6.89c1.04,1.76,2.29,3.47,3.75,5.13,1.46,1.66,2.87,2.94,4.24,3.84,1.54,1.01,2.79,1.49,3.77,1.43.97-.06,1.72-.48,2.24-1.27.35-.52.53-1.08.54-1.66.01-.58-.24-1.42-.77-2.52-.53-1.1-1.44-2.67-2.75-4.71-1.24-2-2.16-3.78-2.78-5.34-.62-1.56-.83-3.1-.63-4.61.2-1.51.88-3.12,2.02-4.84,1.9-2.84,4.35-4.29,7.36-4.35,3.01-.06,6.23,1.04,9.66,3.3,1.78,1.17,3.36,2.48,4.72,3.91,1.36,1.43,2.61,3.14,3.75,5.13l-6.36,4.44c-.98-1.56-1.95-2.96-2.92-4.22-.97-1.26-2.11-2.32-3.4-3.17-2.31-1.52-3.91-1.61-4.81-.26-.32.49-.47,1.02-.43,1.61.03.59.33,1.39.89,2.4.56,1.01,1.43,2.45,2.61,4.3,1.17,1.79,2.1,3.46,2.77,5.01.68,1.55.96,3.11.85,4.67-.11,1.57-.78,3.27-2,5.1Z"/>
        <path class="cls-2" d="M610.61,110.12c2.77,2.73,4.12,5.55,4.02,8.45-.09,2.91-1.8,6.03-5.14,9.38l-16.96,17.01-6.67-6.56,15.2-15.25c3.75-3.76,4.4-6.84,1.95-9.25-1.76-1.73-3.68-2.29-5.76-1.69-2.08.6-4.37,2.17-6.88,4.68l-13.05,13.09-6.67-6.56,15.2-15.25c3.75-3.76,4.4-6.84,1.95-9.25-1.85-1.82-3.86-2.33-6.04-1.54-2.18.79-4.65,2.57-7.41,5.35l-12.24,12.28-6.67-6.56,26.01-26.09,5.1,5.02-2.44,4.23.36.35c2.08-.61,4.07-.57,5.97.1,1.9.67,3.55,1.69,4.95,3.07,1.79,1.76,3,3.57,3.64,5.42.63,1.85.63,3.76-.02,5.71l.58.57c2.08-.61,4.09-.56,6.02.14,1.93.7,3.6,1.74,5,3.12Z"/>
        <path class="cls-2" d="M645.5,155.09l-29.86,21.65-4.23-5.76,3.09-3.79-.3-.4c-2.17.23-4.17-.16-5.99-1.19-1.82-1.03-3.36-2.4-4.62-4.12-2.18-2.96-3.06-5.97-2.64-9.01.42-3.04,2.54-5.95,6.37-8.72l19.47-14.11,5.53,7.53-17.45,12.65c-2.11,1.53-3.46,3.05-4.03,4.55-.57,1.5-.29,3.03.85,4.57,1.68,2.29,3.68,3.24,6,2.86,2.31-.39,5.06-1.73,8.23-4.03l14.05-10.19,5.53,7.53Z"/>
        <path class="cls-2" d="M662.52,182.76c1.78,3.22,2.26,6.31,1.45,9.27-.81,2.96-3.29,5.57-7.45,7.84l-21.13,11.52-4.51-8.17,18.93-10.32c2.33-1.27,3.87-2.61,4.62-4.01.74-1.4.65-2.95-.28-4.63-1.37-2.49-3.23-3.68-5.58-3.59-2.35.09-5.24,1.07-8.68,2.95l-15.26,8.31-4.51-8.17,32.41-17.66,3.45,6.25-3.55,3.36.24.44c2.19.04,4.11.69,5.79,1.95,1.67,1.25,3.02,2.81,4.05,4.68Z"/>
        <path class="cls-2" d="M642.17,229.07c-1.4-3.53-1.04-7,1.08-10.4,2.12-3.4,6.1-6.25,11.94-8.53,5.88-2.3,10.78-2.91,14.7-1.84,3.91,1.07,6.59,3.43,8.04,7.07.91,2.29,1.17,4.36.79,6.21-.38,1.85-1.12,3.48-2.21,4.9l.12.29c.63-.38,1.55-.9,2.77-1.55,1.22-.66,2.5-1.25,3.85-1.77l11.03-4.31,3.43,8.67-47.88,18.71-2.63-6.64,3.8-3.44-.14-.35c-1.77-.3-3.43-.97-4.98-2.02-1.56-1.05-2.79-2.72-3.69-5.01ZM650.86,229.17c.95,2.41,2.39,3.79,4.3,4.16,1.92.37,4.42-.02,7.5-1.18l1.01-.39c3.36-1.31,5.73-2.79,7.12-4.43,1.39-1.64,1.57-3.74.56-6.3-.75-1.9-2.24-3.05-4.45-3.44-2.22-.39-5,.07-8.36,1.39-3.36,1.31-5.68,2.84-6.95,4.6-1.27,1.75-1.51,3.62-.73,5.6Z"/>
        <path class="cls-2" d="M678.1,279.93c-5.95,1.52-10.91,1.24-14.89-.82-3.98-2.06-6.61-5.58-7.9-10.55-.79-3.07-.78-5.99.04-8.76.82-2.77,2.44-5.2,4.86-7.28,2.42-2.08,5.62-3.63,9.6-4.64,5.94-1.52,10.88-1.25,14.82.81,3.93,2.05,6.55,5.58,7.84,10.59.8,3.11.79,6.04-.03,8.79-.83,2.75-2.43,5.16-4.81,7.23-2.38,2.07-5.56,3.61-9.53,4.63ZM672.2,257.09c-3.54.9-6.08,2.12-7.62,3.65-1.54,1.53-1.99,3.51-1.37,5.93.62,2.38,1.97,3.88,4.06,4.49,2.09.61,4.91.46,8.45-.44,3.54-.9,6.06-2.12,7.55-3.64,1.49-1.52,1.93-3.49,1.3-5.92-.62-2.38-1.95-3.88-4-4.5-2.05-.62-4.84-.48-8.38.43Z"/>
        <path class="cls-2" d="M675.31,312.93c-3.71.52-6.73-.28-9.07-2.42-2.33-2.13-3.84-5.6-4.53-10.38-.34-2.35-.46-4.4-.37-6.14.09-1.74.4-3.51.92-5.31l8.24-1.17c-.63,1.94-1.09,4.01-1.37,6.2-.28,2.19-.3,4.09-.07,5.7.26,1.82.74,3.06,1.43,3.75.69.68,1.5.96,2.44.82.63-.09,1.16-.32,1.61-.7.45-.38.91-1.13,1.39-2.25.48-1.12,1.05-2.84,1.72-5.17.68-2.24,1.4-4.11,2.17-5.61.76-1.5,1.78-2.67,3.05-3.53,1.27-.85,2.93-1.43,4.99-1.72,3.4-.48,6.12.38,8.16,2.57,2.05,2.2,3.36,5.32,3.94,9.36.3,2.11.36,4.14.19,6.1-.17,1.96-.63,4.03-1.37,6.2l-7.57-1.77c.52-1.76.94-3.42,1.24-4.98.3-1.56.34-3.1.13-4.63-.39-2.72-1.39-3.97-3-3.75-.58.08-1.08.33-1.5.75-.42.42-.82,1.17-1.22,2.26-.39,1.09-.89,2.68-1.5,4.79-.57,2.06-1.22,3.86-1.93,5.39-.72,1.53-1.7,2.78-2.95,3.73-1.25.96-2.97,1.59-5.16,1.9Z"/>
      </g>
      <g>
        <path class="cls-2" d="M22.77,404.47l-1.08-5.89,27.17-5.27-1.73-9.44,4.84-.94,4.55,24.77-4.84.94-1.73-9.44-27.17,5.27Z"/>
        <path class="cls-2" d="M53.21,424.28c.1.39.19.83.28,1.3.09.48.13.89.13,1.25l-5.29.88c-.02-.32-.06-.69-.12-1.13-.06-.44-.14-.82-.22-1.15-.31-1.21-.83-2.28-1.59-3.21-.75-.93-1.72-1.58-2.9-1.96-1.18-.38-2.54-.37-4.07.04l-12.41,3.3-1.44-5.72,23.94-6.37,1.11,4.4-3.95,1.92.07.27c1.45.39,2.78,1.1,4,2.13,1.22,1.03,2.04,2.38,2.46,4.04Z"/>
        <path class="cls-2" d="M58.08,440.16c1.02,3.11,1.14,5.7.35,7.77-.79,2.07-2.57,3.59-5.34,4.55l-15.73,5.47-1.3-3.95,2.87-2.24-.06-.18c-1.61-.59-2.9-1.37-3.87-2.31-.97-.95-1.78-2.41-2.44-4.4-.71-2.16-.71-4.16,0-5.99.71-1.83,2.31-3.18,4.79-4.04,2.42-.84,4.53-.56,6.34.84,1.81,1.4,3.4,3.92,4.76,7.57l1.51,4.13,1.17-.41c1.47-.51,2.41-1.25,2.81-2.21.4-.96.39-2.11-.05-3.45-.4-1.21-.96-2.31-1.67-3.3-.71-.99-1.48-1.95-2.3-2.89l3.22-3.1c.99.97,1.93,2.16,2.81,3.55.88,1.39,1.59,2.92,2.13,4.58ZM45.54,445.66c-.9-2.43-1.87-3.98-2.91-4.68-1.05-.69-2.19-.82-3.43-.39-1.12.39-1.81,1-2.07,1.83-.26.83-.2,1.79.16,2.89.54,1.63,1.44,2.85,2.72,3.65,1.28.81,2.81.9,4.6.28l1.99-.69-1.05-2.9Z"/>
        <path class="cls-2" d="M69.25,469.27c1.12,2.6,1.35,4.93.67,7-.67,2.07-2.47,3.76-5.39,5.09l-14.72,6.71-2.33-5.4,13.68-6.23c3.39-1.54,4.47-3.75,3.24-6.6-.94-2.17-2.25-3.35-3.93-3.54-1.68-.19-3.76.28-6.23,1.4l-11.05,5.03-2.33-5.4,22.6-10.3,1.8,4.16-2.63,2.12.13.3c1.49.21,2.78.84,3.89,1.9,1.1,1.05,1.97,2.31,2.6,3.76Z"/>
        <path class="cls-2" d="M68.55,508.42c-2.19,1.23-4.28,1.36-6.26.39-1.99-.97-3.78-2.94-5.37-5.93-.83-1.56-1.44-2.96-1.81-4.19-.38-1.23-.62-2.49-.72-3.79l4.28-2.41c.08,1.38.29,2.83.66,4.36.36,1.52.86,2.88,1.48,4.05.76,1.42,1.52,2.33,2.28,2.72.76.39,1.5.38,2.23-.02.43-.24.74-.58.94-1.01.2-.43.31-1.13.32-2.08.01-.95-.07-2.3-.24-4.06-.23-1.72-.3-3.22-.23-4.49.07-1.27.36-2.36.88-3.27.52-.91,1.39-1.72,2.62-2.41,1.95-1.09,3.84-1.14,5.68-.12,1.84,1.01,3.46,2.84,4.86,5.47.73,1.37,1.29,2.74,1.67,4.11.38,1.37.64,2.82.76,4.35l-4.6.45c-.13-1.28-.31-2.5-.54-3.65-.23-1.15-.63-2.25-1.18-3.29-1.21-2.28-2.45-3.06-3.7-2.35-.45.26-.76.62-.93,1.08-.17.47-.24,1.17-.21,2.09s.14,2.21.35,3.83c.19,1.6.27,3.03.24,4.3-.04,1.27-.32,2.38-.84,3.36-.52.97-1.4,1.8-2.63,2.49Z"/>
        <path class="cls-2" d="M90,509.68l-20.98,13.44-3.04-5.01,20.98-13.44,3.04,5.01ZM96.57,501.99c.47.77.68,1.54.63,2.33-.04.78-.54,1.48-1.5,2.09-.96.61-1.79.77-2.51.47-.72-.3-1.31-.83-1.78-1.6-.47-.77-.67-1.55-.61-2.34.06-.79.56-1.49,1.52-2.1.96-.61,1.78-.77,2.49-.46.7.3,1.29.84,1.76,1.61Z"/>
        <path class="cls-2" d="M82.67,536.3c.4.59.85,1.13,1.35,1.63.5.5.99.93,1.47,1.32l-3.52,2.52c-.57-.35-1.22-.88-1.94-1.59-.72-.7-1.38-1.51-1.99-2.4-.8-1.18-1.34-2.39-1.61-3.65-.27-1.25-.13-2.5.44-3.74.57-1.24,1.7-2.47,3.4-3.68l10.56-7.55-1.9-2.81,2.06-1.47,3.73,1.9,5.35-1.54,2.06,3.04-4.46,3.19,4.02,5.92-3.56,2.54-4.02-5.92-10.52,7.52c-.95.68-1.48,1.44-1.59,2.28-.11.84.11,1.67.66,2.5Z"/>
        <path class="cls-2" d="M111.45,539.45c2.01,2.55,2.99,4.94,2.95,7.16-.04,2.23-1.2,4.29-3.47,6.17l-12.9,10.74-2.56-3.24,1.94-3.12-.11-.15c-1.71.02-3.18-.25-4.41-.79-1.23-.54-2.49-1.63-3.77-3.26-1.4-1.77-2.07-3.64-2.02-5.62.05-1.97,1.09-3.8,3.12-5.49,1.99-1.65,4.06-2.14,6.23-1.48,2.17.67,4.51,2.47,7.02,5.41l2.81,3.33.96-.8c1.21-1,1.83-2.03,1.89-3.08.05-1.05-.35-2.12-1.21-3.21-.79-1-1.68-1.83-2.68-2.51-1-.67-2.05-1.3-3.13-1.89l1.97-4.05c1.26.56,2.54,1.33,3.83,2.33,1.29.99,2.48,2.17,3.55,3.53ZM101.55,549.08c-1.66-1.96-3.1-3.07-4.31-3.35-1.21-.28-2.33.01-3.35.86-.92.77-1.36,1.59-1.32,2.46.04.87.42,1.76,1.12,2.65,1.05,1.33,2.31,2.15,3.79,2.46,1.47.3,2.94-.15,4.41-1.37l1.63-1.36-1.97-2.34Z"/>
        <path class="cls-2" d="M131.73,562.76c1.93,2.04,2.92,4.15,2.99,6.33.06,2.18-1.05,4.41-3.34,6.69l-11.56,11.52-4-4.24,10.74-10.71c2.66-2.65,2.93-5.1.82-7.35-1.61-1.7-3.24-2.35-4.88-1.93-1.64.42-3.43,1.59-5.37,3.53l-8.68,8.65-4-4.24,17.75-17.69,3.08,3.26-1.75,2.92.22.24c1.47-.33,2.89-.2,4.28.4,1.39.59,2.62,1.46,3.7,2.61Z"/>
        <path class="cls-2" d="M132.89,599.98c-2.19-1.93-3.26-4.33-3.2-7.19.06-2.86,1.46-5.93,4.19-9.21,2.77-3.32,5.54-5.23,8.31-5.71,2.77-.49,5.26.24,7.48,2.19,1.39,1.22,2.3,2.49,2.73,3.82.43,1.33.59,2.62.47,3.87l.21.18c.21-.39.56-.96,1.07-1.71.5-.75,1-1.42,1.5-2.01l5.64-6.76,4.37,3.84-22.55,27.06-3.4-2.99,1.31-3.23-.17-.15c-1.2.34-2.48.4-3.82.19-1.34-.22-2.72-.94-4.13-2.18ZM137.23,597.51c1.62,1.42,3.15,1.95,4.6,1.58,1.45-.37,2.99-1.51,4.61-3.41l.47-.57c1.72-2.07,2.72-3.93,3.01-5.59.28-1.66-.44-3.25-2.17-4.78-1.34-1.18-2.83-1.51-4.48-1.01-1.65.51-3.32,1.78-5.02,3.82-1.7,2.04-2.64,3.91-2.81,5.61-.17,1.7.42,3.15,1.78,4.34Z"/>
        <path class="cls-2" d="M176.07,617.3c-2.38,3.44-5.08,5.46-8.11,6.07-3.03.61-6.03-.18-9.01-2.35-1.84-1.34-3.18-2.95-4.04-4.84-.86-1.89-1.14-3.94-.85-6.14.29-2.2,1.23-4.45,2.81-6.74,2.38-3.44,5.07-5.45,8.07-6.04,3-.59,5.99.2,8.97,2.37,1.86,1.36,3.22,2.97,4.09,4.85.86,1.88,1.16,3.91.88,6.1-.28,2.19-1.22,4.43-2.8,6.72ZM161.67,606.8c-1.51,2.19-2.31,4.16-2.38,5.91-.07,1.75.74,3.24,2.42,4.47,1.69,1.23,3.32,1.52,4.9.88,1.58-.65,3.13-2.06,4.65-4.25,1.51-2.19,2.3-4.15,2.35-5.87.05-1.72-.78-3.21-2.49-4.46-1.66-1.21-3.28-1.51-4.84-.89s-3.11,2.03-4.62,4.22Z"/>
        <path class="cls-2" d="M191.66,641.6l-5.01-2.9,17.02-31.03,5.01,2.9-17.02,31.03Z"/>
        <path class="cls-2" d="M219.41,627.2c2.88,1.42,4.76,3.15,5.64,5.19.89,2.03.7,4.4-.57,7.1l-7.21,15.37-3.66-1.81.46-3.68-.16-.08c-1.54.76-2.98,1.17-4.32,1.22-1.34.05-2.93-.38-4.76-1.29-2-.99-3.39-2.39-4.16-4.19-.77-1.8-.59-3.92.54-6.34,1.11-2.36,2.78-3.72,5.02-4.07,2.24-.35,5.11.26,8.6,1.81l3.92,1.79.53-1.14c.67-1.44.82-2.64.43-3.61-.39-.97-1.2-1.76-2.43-2.37-1.12-.56-2.28-.92-3.46-1.09-1.18-.17-2.39-.28-3.62-.33l.1-4.53c1.37-.05,2.85.09,4.43.43,1.58.33,3.14.88,4.68,1.64ZM214.45,640.25c-2.31-1.04-4.08-1.42-5.29-1.14-1.21.28-2.1,1.03-2.67,2.24-.51,1.1-.57,2.03-.17,2.8.4.77,1.1,1.41,2.12,1.91,1.51.75,2.99.93,4.45.56,1.46-.37,2.59-1.43,3.41-3.17l.91-1.94-2.75-1.26Z"/>
        <path class="cls-2" d="M258.59,643.33c2.74.94,4.61,2.74,5.61,5.4,1,2.66.83,6.05-.5,10.17-1.33,4.12-3.2,6.95-5.61,8.48-2.4,1.53-4.98,1.83-7.72.9-1.73-.59-3.03-1.4-3.88-2.41-.86-1.02-1.47-2.06-1.82-3.14l-.35-.12c-.1.59-.21,1.24-.36,1.93s-.31,1.32-.49,1.88l-3.17,9.78-5.46-1.86,11.25-34.78,4.42,1.51-.26,3.47.26.09c.96-.79,2.1-1.36,3.43-1.69,1.33-.34,2.87-.21,4.63.4ZM255.57,647.34c-1.93-.66-3.49-.53-4.67.38-1.18.91-2.17,2.57-2.97,4.96l-.23.71c-.83,2.58-1.09,4.69-.77,6.33.32,1.64,1.52,2.81,3.6,3.52,1.7.58,3.2.29,4.49-.86,1.29-1.16,2.34-2.98,3.14-5.47.81-2.49,1.02-4.56.64-6.2-.38-1.64-1.45-2.77-3.21-3.37Z"/>
        <path class="cls-2" d="M283.26,650.39c3.11.75,5.31,2.02,6.6,3.81,1.29,1.79,1.6,4.14.93,7.06l-3.81,16.6-3.95-.96-.32-3.69-.18-.04c-1.34,1.09-2.66,1.8-3.96,2.15-1.3.34-2.94.28-4.92-.2-2.16-.52-3.81-1.58-4.95-3.17-1.13-1.59-1.4-3.69-.8-6.31.59-2.55,1.94-4.25,4.05-5.09,2.11-.84,5.04-.88,8.77-.14l4.21.87.28-1.23c.36-1.55.24-2.76-.34-3.62-.58-.86-1.54-1.46-2.87-1.78-1.21-.29-2.42-.39-3.61-.3-1.2.1-2.4.26-3.6.48l-.86-4.44c1.33-.35,2.8-.54,4.42-.57,1.62-.03,3.25.16,4.91.56ZM281.16,664.23c-2.48-.5-4.28-.48-5.41.06-1.13.55-1.84,1.47-2.14,2.78-.27,1.19-.13,2.11.42,2.77.55.66,1.37,1.13,2.47,1.39,1.63.39,3.11.25,4.46-.44,1.34-.68,2.23-1.97,2.67-3.86l.48-2.1-2.95-.62Z"/>
        <path class="cls-2" d="M312.8,682.22l-18.76-2.96.53-3.57,14.55-15.2-11.32-1.79.67-4.45,17.72,2.8-.59,3.94-14.27,14.82,12.13,1.92-.67,4.49Z"/>
        <path class="cls-2" d="M342.43,680.31c.7.04,1.39,0,2.08-.1.69-.11,1.33-.24,1.91-.39l-.21,4.4c-.62.25-1.42.45-2.4.6-.98.15-2,.2-3.07.15-1.4-.07-2.66-.38-3.79-.92-1.13-.54-2-1.42-2.61-2.64-.61-1.22-.86-2.89-.76-5.01l.64-13.2-3.33-.17.12-2.57,3.75-1.87,2.08-5.29,3.6.18-.27,5.57,7.02.36-.21,4.45-7.02-.36-.64,13.15c-.06,1.19.2,2.08.78,2.69.58.61,1.35.94,2.33.99Z"/>
        <path class="cls-2" d="M362.57,658.85c3.31-.07,5.96.88,7.93,2.87,1.97,1.99,3,4.79,3.07,8.42l.06,3-16.33.36c.11,2.31.77,4.08,1.98,5.32,1.21,1.24,2.87,1.83,4.97,1.79,1.58-.04,3.01-.23,4.28-.59,1.27-.36,2.57-.86,3.89-1.51l.1,4.73c-1.21.62-2.46,1.09-3.76,1.4-1.3.31-2.86.48-4.69.52-2.4.05-4.55-.38-6.44-1.29-1.89-.91-3.38-2.32-4.47-4.24-1.09-1.91-1.66-4.31-1.72-7.18-.09-4.34.89-7.68,2.94-10,2.05-2.33,4.78-3.53,8.18-3.6ZM362.66,663.21c-1.55.03-2.8.57-3.73,1.61-.94,1.04-1.46,2.56-1.57,4.56l10.63-.23c-.07-1.75-.53-3.18-1.39-4.3-.86-1.12-2.17-1.66-3.94-1.63Z"/>
        <path class="cls-2" d="M392.17,656.81c.39-.04.83-.06,1.3-.08.47-.01.88,0,1.22.07v5.51c-.3-.03-.67-.05-1.1-.06-.43,0-.81,0-1.14.04-1.21.12-2.32.49-3.33,1.1-1.01.62-1.79,1.49-2.34,2.63-.55,1.14-.75,2.51-.6,4.13l1.22,13.11-5.72.56-2.35-25.28,4.41-.43,1.23,4.3.27-.03c.6-1.41,1.5-2.65,2.68-3.72,1.18-1.07,2.61-1.69,4.27-1.86Z"/>
        <path class="cls-2" d="M412.11,653.75c.39-.06.82-.12,1.29-.17.47-.05.88-.05,1.22-.01l.35,5.49c-.31-.01-.68,0-1.11.02-.43.02-.81.06-1.14.12-1.2.2-2.29.64-3.26,1.32-.97.68-1.7,1.61-2.18,2.78-.48,1.17-.59,2.56-.34,4.16l2.04,13-5.68.94-3.93-25.08,4.37-.72,1.49,4.22.27-.04c.51-1.44,1.33-2.74,2.44-3.89,1.12-1.15,2.5-1.86,4.15-2.13Z"/>
        <path class="cls-2" d="M420.15,642.52c.86-.19,1.64-.13,2.35.17.7.31,1.17,1.03,1.41,2.16.24,1.13.1,1.99-.41,2.58-.51.59-1.2.99-2.06,1.18-.86.19-1.65.13-2.35-.2-.71-.32-1.18-1.05-1.42-2.18-.24-1.13-.1-1.98.42-2.56.52-.58,1.21-.96,2.07-1.16ZM424.98,651.47l5.23,24.82-5.62,1.25-5.23-24.82,5.62-1.25Z"/>
        <path class="cls-2" d="M446.89,667.55c.67-.19,1.33-.44,1.95-.76.63-.32,1.19-.65,1.7-.98l1.12,4.25c-.52.44-1.22.88-2.11,1.34-.89.46-1.85.83-2.87,1.11-1.35.37-2.64.48-3.88.33-1.24-.16-2.33-.72-3.28-1.69-.95-.97-1.69-2.47-2.23-4.53l-3.36-12.76-3.22.89-.66-2.49,3-2.97.39-5.69,3.48-.97,1.42,5.38,6.78-1.89,1.13,4.3-6.78,1.89,3.35,12.71c.3,1.15.82,1.92,1.55,2.31.74.39,1.57.46,2.51.2Z"/>
        <path class="cls-2" d="M475.22,648.97c1.37,3.98,1.42,7.41.16,10.31-1.26,2.89-3.62,4.96-7.06,6.21-2.12.77-4.18.97-6.18.6-2-.37-3.79-1.31-5.37-2.82-1.59-1.51-2.83-3.59-3.75-6.25-1.37-3.98-1.42-7.39-.16-10.25,1.26-2.86,3.61-4.91,7.05-6.16,2.15-.78,4.22-.99,6.22-.64,1.99.35,3.78,1.28,5.36,2.78,1.58,1.5,2.83,3.57,3.74,6.22ZM458.57,655.01c.87,2.53,1.98,4.33,3.33,5.4,1.35,1.07,3,1.25,4.95.54,1.95-.71,3.12-1.91,3.52-3.61.4-1.7.16-3.82-.71-6.35-.87-2.53-1.98-4.32-3.32-5.36-1.34-1.04-3-1.2-4.98-.48-1.92.7-3.09,1.88-3.5,3.55-.41,1.67-.18,3.78.69,6.31Z"/>
        <path class="cls-2" d="M488.51,628.64c.36-.16.76-.33,1.21-.5.44-.17.83-.28,1.18-.33l1.7,5.22c-.3.07-.66.17-1.07.31-.41.13-.77.27-1.07.41-1.11.51-2.05,1.22-2.82,2.13-.77.91-1.24,2-1.41,3.26-.17,1.26.06,2.63.7,4.11l5.2,12.04-5.26,2.39-10.02-23.22,4.05-1.84,2.49,3.68.25-.11c.14-1.53.6-3,1.39-4.4.79-1.4,1.95-2.45,3.48-3.15Z"/>
        <path class="cls-2" d="M493.39,615.73c.78-.41,1.56-.56,2.31-.45.76.11,1.39.68,1.9,1.71.51,1.03.59,1.9.24,2.61-.35.71-.92,1.27-1.7,1.68-.79.41-1.56.55-2.32.43-.76-.13-1.4-.71-1.91-1.74-.51-1.03-.59-1.89-.23-2.59.36-.69.93-1.25,1.71-1.66ZM500.28,623.12l11.21,22.64-5.12,2.68-11.21-22.64,5.12-2.68Z"/>
        <path class="cls-2" d="M515.27,614c2.75-1.67,5.19-2.32,7.33-1.96,2.14.37,3.95,1.84,5.44,4.42l8.47,14.67-3.49,2.13-2.73-2.43-.16.1c-.23,1.74-.7,3.2-1.4,4.37s-1.93,2.29-3.68,3.36c-1.91,1.16-3.81,1.58-5.7,1.24-1.89-.34-3.5-1.66-4.84-3.97-1.3-2.26-1.48-4.44-.52-6.55.96-2.11,3.03-4.22,6.23-6.35l3.62-2.37-.63-1.09c-.79-1.37-1.69-2.16-2.69-2.37-1-.21-2.09.05-3.27.77-1.07.65-2.01,1.44-2.8,2.36s-1.55,1.89-2.27,2.91l-3.62-2.59c.72-1.2,1.66-2.39,2.8-3.56,1.15-1.17,2.45-2.2,3.92-3.09ZM523.1,625.47c-2.13,1.4-3.41,2.7-3.85,3.9-.44,1.2-.33,2.37.34,3.53.6,1.05,1.33,1.62,2.17,1.7.85.08,1.75-.17,2.72-.76,1.44-.88,2.41-2.04,2.92-3.49.51-1.45.28-3.01-.68-4.68l-1.07-1.85-2.54,1.66Z"/>
        <path class="cls-2" d="M548.69,622.68l-4.75,3.33-19.55-29.41,4.75-3.33,19.55,29.41Z"/>
        <path class="cls-2" d="M560.16,580.84c2.2-1.92,4.67-2.63,7.4-2.12,2.73.51,5.47,2.41,8.2,5.73,2.74,3.31,4.12,6.42,4.14,9.33.03,2.91-1.06,5.32-3.26,7.24-1.39,1.21-2.73,1.93-4.02,2.16s-2.48.21-3.56-.03l-.28.24c.44.39.91.83,1.42,1.32.5.49.94.95,1.31,1.41l6.5,7.86-4.38,3.82-23.09-27.94,3.55-3.09,2.75,2.03.21-.18c-.16-1.25-.04-2.55.37-3.89.41-1.34,1.32-2.63,2.73-3.86ZM561.92,585.58c-1.55,1.35-2.26,2.79-2.11,4.29.15,1.51,1.01,3.24,2.58,5.19l.47.57c1.71,2.07,3.33,3.39,4.86,3.97,1.53.57,3.13.13,4.8-1.33,1.37-1.19,1.91-2.65,1.61-4.39-.29-1.73-1.27-3.6-2.92-5.6-1.65-2-3.26-3.26-4.83-3.78-1.56-.52-3.06-.16-4.47,1.07Z"/>
        <path class="cls-2" d="M593.44,584.5l-4.13,4.11-24.14-25.57,4.13-4.11,24.14,25.57Z"/>
        <path class="cls-2" d="M596.37,544.09l18.38,16.99-3.02,3.45-2.89-1.6-.18.21c.4,1.5.35,2.98-.14,4.44-.5,1.45-1.26,2.77-2.3,3.96-1.85,2.11-3.83,3.28-5.94,3.49-2.11.21-4.34-.77-6.69-2.94l-12-11.1,3.85-4.39,11.16,10.31c2.73,2.53,5.12,2.63,7.15.31,1.55-1.76,2.07-3.47,1.58-5.13-.49-1.65-1.76-3.42-3.79-5.3l-8.99-8.31,3.85-4.39Z"/>
        <path class="cls-2" d="M608.59,527.14c.24-.32.52-.67.83-1.03.31-.36.6-.66.88-.87l3.93,3.75c-.23.21-.5.47-.79.79-.3.32-.55.61-.75.89-.74.99-1.23,2.08-1.48,3.26-.25,1.18-.16,2.37.28,3.55.44,1.19,1.28,2.28,2.53,3.27l10.18,8.01-3.5,4.69-19.62-15.45,2.69-3.61,3.9,2.01.17-.22c-.59-1.41-.87-2.93-.83-4.55.04-1.62.57-3.11,1.59-4.48Z"/>
        <path class="cls-2" d="M606.9,513.34c.5-.75,1.11-1.26,1.82-1.53.72-.27,1.54-.08,2.47.57.93.65,1.4,1.38,1.43,2.17.02.79-.21,1.56-.71,2.31-.5.75-1.11,1.25-1.84,1.52-.73.26-1.56.07-2.48-.59-.93-.65-1.4-1.37-1.41-2.16-.01-.78.23-1.55.73-2.3ZM616.39,516.44l20.4,14.36-3.25,4.87-20.4-14.36,3.25-4.87Z"/>
        <path class="cls-2" d="M644.74,518.08l-26.04-4.78,3.12-5.35,14.78,3.2c.91.2,1.89.46,2.94.8,1.05.33,1.9.67,2.56,1l.09-.16c-.6-.48-1.29-1.12-2.05-1.92-.76-.8-1.44-1.56-2.04-2.29l-9.72-11.88,3.12-5.35,16.38,21.34-3.14,5.39Z"/>
        <path class="cls-2" d="M637.28,478.35c1.46-3.06,3.51-5.03,6.14-5.91,2.63-.88,5.52-.53,8.69,1.07l2.62,1.32-7.21,15.05c2.05.96,3.88,1.18,5.51.64,1.63-.54,2.91-1.77,3.83-3.7.7-1.46,1.19-2.85,1.46-4.17.28-1.32.44-2.74.48-4.25l4.13,2.09c-.02,1.38-.19,2.74-.52,4.07-.33,1.33-.9,2.84-1.71,4.52-1.06,2.21-2.42,3.97-4.08,5.28-1.66,1.3-3.56,2.01-5.72,2.12s-4.49-.47-7-1.74c-3.79-1.92-6.22-4.35-7.29-7.29-1.07-2.94-.85-5.98.66-9.12ZM641.08,480.28c-.69,1.43-.8,2.81-.33,4.14.47,1.33,1.54,2.51,3.22,3.53l4.69-9.8c-1.54-.74-2.99-.98-4.36-.72-1.37.27-2.44,1.21-3.22,2.84Z"/>
        <path class="cls-2" d="M649.15,450.34c.15-.38.32-.78.53-1.22.2-.44.41-.8.62-1.08l4.77,2.52c-.17.27-.36.59-.56.98-.2.39-.36.74-.49,1.06-.45,1.16-.65,2.34-.58,3.55.07,1.21.47,2.32,1.2,3.35.73,1.03,1.83,1.84,3.3,2.45l11.9,4.91-2.14,5.48-22.95-9.47,1.65-4.22,4.28.86.1-.26c-.94-1.2-1.61-2.58-1.99-4.15-.38-1.57-.26-3.16.36-4.75Z"/>
        <path class="cls-2" d="M673.98,432.6c2.37.79,3.9,2.26,4.58,4.41.68,2.15.51,4.84-.51,8.08-.53,1.69-1.11,3.1-1.72,4.23-.61,1.13-1.34,2.17-2.19,3.14l-4.64-1.54c.93-1.01,1.8-2.17,2.63-3.48.83-1.32,1.45-2.61,1.85-3.89.49-1.54.61-2.74.36-3.57-.25-.84-.76-1.39-1.54-1.65-.46-.15-.92-.16-1.36-.01-.45.15-1.01.54-1.69,1.19-.68.64-1.59,1.63-2.71,2.96-1.07,1.35-2.07,2.44-3.02,3.26-.95.82-1.92,1.35-2.92,1.59-1,.24-2.17.14-3.5-.3-2.11-.7-3.44-2.09-3.99-4.16-.55-2.07-.37-4.53.53-7.39.47-1.49,1.06-2.84,1.76-4.07.71-1.23,1.56-2.41,2.56-3.56l3.47,3.13c-.82.98-1.56,1.94-2.21,2.91-.66.96-1.16,2.01-1.52,3.14-.78,2.47-.49,3.93.87,4.38.49.16.96.15,1.41-.05.45-.2.99-.62,1.63-1.28.64-.66,1.46-1.62,2.47-2.9,1-1.24,1.96-2.29,2.88-3.13.92-.84,1.9-1.4,2.95-1.68,1.05-.28,2.23-.19,3.57.25Z"/>
        <path class="cls-2" d="M660.67,411.43c.74-3.19,1.98-5.45,3.73-6.77,1.75-1.32,4.04-1.64,6.88-.94l16.15,3.95-.94,4.06-3.59.33-.04.18c1.05,1.38,1.75,2.74,2.08,4.07.33,1.33.26,3.02-.21,5.05-.51,2.22-1.55,3.91-3.1,5.07-1.55,1.16-3.6,1.43-6.14.81-2.48-.61-4.13-2-4.94-4.17-.81-2.17-.85-5.18-.11-9.01l.86-4.32-1.2-.29c-1.51-.37-2.68-.25-3.53.34-.84.6-1.42,1.58-1.74,2.95-.29,1.25-.39,2.48-.3,3.71.09,1.23.24,2.46.45,3.7l-4.33.87c-.34-1.37-.52-2.88-.54-4.54-.02-1.66.17-3.34.56-5.04ZM674.14,413.62c-.5,2.54-.48,4.39.05,5.55.53,1.16,1.43,1.89,2.7,2.2,1.15.28,2.05.14,2.7-.42.65-.56,1.1-1.41,1.36-2.53.39-1.67.25-3.2-.41-4.58-.66-1.38-1.91-2.3-3.75-2.75l-2.04-.5-.61,3.03Z"/>
        <path class="cls-2" d="M689.99,392.7l-.97,5.82-34.18-6,.97-5.82,34.18,6Z"/>
      </g>
    </g>
  </g>
</svg>