<svg version="1.2" xmlns="http://www.w3.org/2000/svg" viewBox="0 0 23 35" width="20" height="30">
	<title>image</title>
	<style>
		.s0 { fill: #f2eee7 } 
	</style>
	<path class="s0" d="m22.7 20.8q-0.4-1.6-1.1-3.1-1.2-2.3-2.7-4.4c-1-1.4-1.9-2.7-2.6-3.8q-0.8-1.3-1.3-2.9c-0.4-1.2-0.5-2.5-0.1-3.7q0.3-0.9 0.4-1.9 0.1-0.2 0-0.4-0.1-0.2-0.2-0.3c-0.4-0.4-1-0.7-3.5 1.3q-2.8 2.5-5.1 5.4-1.9 2.5-3.4 5.2c-1.4 2.4-2.4 5.1-2.9 7.9 0 0.2 0 0.4-0.1 0.6 0 0.2 0 0.5 0 0.8q-0.1 0.9-0.1 1.9c0.1 1.9 0.5 3.7 1.4 5.3 1 2.1 2.7 3.8 4.7 4.9q1.6 0.9 3.5 1.2 1.8 0.3 3.7 0.1 2-0.2 3.7-1c1.3-0.6 2.4-1.4 3.3-2.4 0.9-1 1.5-2.2 2-3.5q0.6-1.7 0.7-3.6 0.1-1.8-0.3-3.6zm-2.7 3.5c-0.1 1.8-0.8 3.6-2 5-1.3 1.4-3.1 2.1-4.9 2.2q-1.4 0.1-2.8-0.2-1.2-0.3-2.4-0.9-1-0.6-1.8-1.5-0.7-0.9-1.2-1.9c-0.5-1.1-0.8-2.4-0.8-3.6q-0.1-0.4 0-0.8c0-0.3 0-0.5 0-0.7q0.1-0.6 0.2-1.1c0.4-2.4 1.2-4.6 2.3-6.7q1.3-2.4 2.9-4.7c0.9-1.4 1.7-2.5 2.4-3.4q0.1 0.8 0.3 1.7c0.7 2.4 2.4 4.8 4.4 7.5 1.6 2.2 3.8 5.3 3.4 9.1z"/>
</svg>