<svg width="125px" height="98px" viewBox="0 0 245 104" fill="none" xmlns="http://www.w3.org/2000/svg">
<path d="M231.15 87.144C231.439 86.9976 231.66 86.8841 231.929 86.7496C232.051 86.9797 232.15 87.1769 232.26 87.3651C232.562 87.879 232.819 87.9866 233.398 87.8461C233.535 87.8133 233.675 87.7774 233.81 87.7296C233.944 87.6818 234.072 87.622 234.234 87.5563C234.765 88.0553 235.389 88.0344 236.07 87.9089C237.022 87.7326 237.948 87.8163 238.742 88.4915C238.951 88.6708 239.247 88.7544 239.509 88.862C239.865 89.0114 240.13 89.2235 240.295 89.6C240.545 90.1796 240.718 90.1976 241.253 89.7972C241.319 89.7494 241.39 89.7046 241.468 89.6508C241.629 89.7135 241.787 89.7733 241.958 89.839C242.178 89.7255 242.405 89.609 242.647 89.4835C242.755 89.5432 242.853 89.5881 242.946 89.6508C243.441 89.9795 243.45 89.9795 243.964 89.5671C244.003 89.5343 244.065 89.5313 244.149 89.5044C244.218 89.839 244.292 90.1438 244.059 90.4635C243.934 90.6368 243.97 90.6637 244.113 91.2254C243.877 91.5511 243.582 91.8797 243.65 92.3608C243.707 92.7582 243.507 93.0121 243.149 93.1615C243.047 93.2063 242.958 93.281 242.844 93.3527C242.805 93.544 242.796 93.7501 242.719 93.9294C242.519 94.3895 242.211 94.7451 241.734 94.9542C241.396 95.1006 241.071 95.2889 240.769 95.504C240.65 95.5906 240.536 95.7908 240.545 95.9342C240.569 96.4093 240.42 96.8425 240.277 97.2728C240.136 97.6941 240.157 98.0616 240.462 98.3902C240.623 98.5635 240.73 98.7458 240.751 98.9938C240.763 99.1223 240.847 99.2687 240.939 99.3643C241.169 99.6063 241.271 99.8901 241.298 100.21C241.208 100.383 241.056 100.305 240.921 100.317C240.527 100.347 240.354 100.562 240.426 100.936C240.465 101.133 240.53 101.321 240.572 101.519C240.689 102.077 240.653 102.678 240.465 103.234C240.336 103.201 240.193 103.195 240.077 103.132C239.551 102.842 239.035 102.555 238.62 102.092C238.321 101.761 237.915 101.522 237.539 101.271C237.41 101.184 237.213 101.163 237.049 101.175C236.855 101.187 236.667 101.268 236.434 101.33C235.995 100.661 235.27 100.577 234.577 100.413C234.344 100.356 234.132 100.377 233.905 100.452C233.637 100.539 233.359 100.622 233.081 100.646C232.702 100.679 232.347 100.748 232.054 101.049C231.878 100.981 231.72 100.924 231.568 100.855C231.209 100.697 230.863 100.64 230.511 100.885C230.311 101.026 230.093 101.014 229.86 100.909C229.684 100.831 229.472 100.837 229.287 100.772C228.839 100.613 228.451 100.401 228.442 99.8274C228.439 99.6362 228.394 99.4091 228.28 99.2657C228.125 99.0685 228.059 98.8773 228.059 98.6382C228.059 98.5247 228.045 98.4052 228.006 98.3006C227.892 97.9899 227.716 97.7329 227.346 97.712C226.331 97.6552 225.572 97.1742 225.023 96.3316C224.951 96.2211 224.811 96.1523 224.692 96.0806C224.402 95.9014 224.089 95.758 223.817 95.5548C223.241 95.1215 222.906 94.5389 222.885 93.8069C222.876 93.538 222.778 93.3736 222.482 93.293C222.384 93.4095 222.291 93.5559 222.169 93.6635C221.912 93.8876 221.59 93.786 221.497 93.4723C221.488 93.4454 221.488 93.4155 221.482 93.3886C221.33 92.7671 221.288 92.7223 220.697 92.8C220.228 92.8627 219.789 92.8239 219.359 92.6267C219.24 92.5729 219.094 92.5729 218.956 92.549C218.909 92.6626 218.861 92.7343 218.843 92.8149C218.679 93.529 218.386 94.1595 217.777 94.6196C217.526 94.8078 217.32 95.0468 217.269 95.3904C217.225 95.7072 216.998 95.8655 216.711 95.982C216.239 96.1763 215.78 96.4003 215.224 96.6513C214.881 96.5199 214.469 96.2808 214.033 96.2151C213.519 96.1374 213.373 95.5757 212.824 95.4861C212.71 95.5637 212.537 95.6564 212.394 95.7819C211.919 96.2061 211.403 96.5587 210.788 96.741C210.573 96.8067 210.343 96.8425 210.119 96.8605C209.838 96.8844 209.617 96.7469 209.483 96.5019C209.292 96.1523 209.065 95.8117 209.265 95.3755C209.334 95.2261 209.322 95.0379 209.34 94.8706C209.369 94.6315 209.295 94.4403 209.128 94.2491C208.462 93.5021 208.417 93.4782 207.423 93.7173C207.285 93.7501 207.148 93.774 206.996 93.8039C206.856 93.6814 206.727 93.5708 206.602 93.4573C206.1 93.0121 206.1 93.0121 205.354 93.1705C205.1 93.0211 204.834 92.8597 204.542 92.6864C204.079 92.9105 203.622 93.1346 203.1 93.1824C202.87 93.2033 202.661 93.1974 202.431 93.1496C201.902 93.039 201.356 93.0241 200.857 92.7791C200.771 92.7372 200.639 92.791 200.526 92.803C200.216 92.8329 199.902 92.8597 199.592 92.8956C199.347 92.9225 199.144 92.8508 198.971 92.6715C198.705 92.3996 198.358 92.2831 198.021 92.1247C197.421 91.8439 196.845 91.572 196.167 91.6108C195.558 91.2583 195.089 91.4584 194.656 91.9484C194.414 92.2233 194.116 92.4534 193.826 92.6835C193.435 92.9942 192.969 92.8896 192.766 92.4295C192.617 92.0919 192.519 91.7303 192.39 91.3658C192.086 91.1537 191.775 90.9415 191.399 91.2642C191.339 91.315 191.214 91.3658 191.169 91.3359C190.757 91.0611 190.33 91.3419 189.918 91.2822C189.891 91.2792 189.867 91.2612 189.79 91.2314C189.766 91.067 189.709 90.8758 189.712 90.6846C189.721 90.1049 189.399 89.7942 188.903 89.606C188.796 89.5641 188.685 89.5253 188.575 89.5074C187.622 89.3371 186.921 88.7634 186.288 88.0792C186.058 87.8312 185.893 87.5115 185.487 87.389C185.398 87.4488 185.264 87.5055 185.171 87.6041C184.977 87.8073 184.747 87.879 184.478 87.885C183.923 87.8999 183.398 87.9985 183.003 88.4467C182.935 88.5244 182.8 88.6021 182.702 88.5931C182.161 88.5453 181.842 89.0024 181.391 89.1578C181.212 89.2206 181.108 89.4924 181 89.6299C180.442 89.4297 179.982 89.2863 179.543 89.0921C179.409 89.0323 179.295 88.8531 179.245 88.7037C179.152 88.4347 179.143 88.136 179.047 87.87C178.955 87.6041 178.844 87.3233 178.665 87.1141C178.373 86.7705 177.973 86.5195 177.808 86.0624C177.779 85.9757 177.638 85.8891 177.537 85.8742C176.883 85.7905 176.456 85.2437 175.793 85.0973C175.811 84.927 175.787 84.7716 175.847 84.6641C176.247 83.944 176.596 83.1881 177.346 82.722C177.922 82.3634 178.041 81.7659 178.014 81.1384C177.985 80.4542 177.922 79.77 177.877 79.0858C177.862 78.8707 177.773 78.7033 177.59 78.5868C177.035 78.2193 176.465 77.9265 175.766 77.9145C175.286 77.9086 174.805 77.795 174.327 77.7203C174.22 77.7024 174.106 77.6516 174.017 77.5859C173.461 77.1765 172.846 77.1795 172.21 77.299C172.043 77.3319 171.87 77.3648 171.706 77.3439C171.622 77.3319 171.53 77.2124 171.491 77.1198C171.467 77.066 171.524 76.9375 171.58 76.8987C171.724 76.809 171.906 76.7762 172.04 76.6746C172.264 76.5043 172.506 76.331 172.658 76.1039C172.903 75.7334 172.802 75.4197 172.431 75.1538C172.133 74.9357 171.837 74.7116 171.542 74.4935C171.485 74.4905 171.416 74.4636 171.371 74.4875C170.771 74.8072 170.276 74.6548 169.846 74.1648C169.771 74.0811 169.676 74.0154 169.592 73.9377C169.571 73.9198 169.565 73.8899 169.589 73.9347C169.589 73.2684 169.631 72.6709 169.574 72.0793C169.538 71.7118 169.649 71.4817 169.9 71.2546C170.109 71.0664 170.285 70.8423 170.491 70.6212C170.386 70.4061 170.303 70.2328 170.198 70.0206C170.234 69.9191 170.288 69.7876 170.323 69.6531C170.446 69.1811 170.312 68.9122 169.867 68.8195C168.938 68.6253 168.048 68.6642 167.269 69.3006C167.227 69.3364 167.171 69.3544 167.102 69.3932C166.98 69.3693 166.839 69.3424 166.699 69.3185C166.457 69.2767 166.26 69.1751 166.185 68.9241C166.078 68.5566 165.791 68.3833 165.463 68.4789C164.896 68.6432 164.328 68.3803 163.77 68.5476C163.594 68.6014 163.415 68.4879 163.358 68.3146C163.254 68.0098 163.11 67.7439 162.868 67.5228C162.794 67.4571 162.788 67.3166 162.749 67.2091C162.624 66.8625 162.51 66.5099 162.37 66.1693C162.298 65.99 162.116 65.9154 161.949 66.0349C161.641 66.256 161.31 66.247 160.907 66.235C160.701 66.0349 160.489 65.7958 160.143 65.6674C159.701 65.503 159.324 65.1624 158.924 64.8905C158.479 64.5887 157.987 64.3408 157.676 63.8926C157.572 63.4085 157.461 62.9335 157.372 62.4584C157.312 62.1417 157.151 61.9445 156.84 61.8579C156.73 61.828 156.631 61.7563 156.521 61.7354C155.96 61.6308 155.643 61.2692 155.416 60.7733C155.324 60.5731 155.157 60.4028 154.998 60.2444C154.834 60.0771 154.721 59.9008 154.646 59.6707C154.485 59.1867 154.416 59.1658 153.894 59.2614C153.837 59.2704 153.783 59.2793 153.676 59.2973C153.377 59.0015 153.019 58.7266 152.562 58.628C152.523 58.619 151.233 57.385 151.221 57.3492C151.189 57.2416 151.165 57.1281 151.126 57.0205C150.992 56.653 150.765 56.3811 150.377 56.2497C150.227 56.1989 150.102 56.0734 149.941 55.9628C150.036 55.8075 150.102 55.679 150.185 55.5714C150.338 55.3772 150.532 55.2607 150.783 55.3802C151.159 55.5565 151.377 55.3802 151.55 55.0665C151.702 54.7916 151.863 54.5257 152.004 54.2777C151.834 53.8684 151.696 53.4979 151.526 53.1393C151.395 52.8615 150.962 52.6553 150.651 52.727C150.26 52.8196 149.875 52.8883 149.469 52.8913C149.23 52.8913 148.988 53.0467 148.731 53.1363C148.522 52.9869 148.319 52.7509 148.072 52.6882C147.818 52.6224 147.519 52.724 147.182 52.7599C147.143 52.6404 147.071 52.5178 147.065 52.3924C147.059 52.1653 147.116 51.9352 147.095 51.7081C147.083 51.5856 146.994 51.4213 146.889 51.3616C146.238 51 145.588 50.6295 144.793 50.7461C144.68 50.764 144.564 50.755 144.45 50.749C144.193 50.7341 144.011 50.6176 143.969 50.3487C143.892 49.8736 143.566 49.6107 143.184 49.3926C142.686 49.1087 142.079 49.1864 141.694 49.6047C141.611 49.6943 141.566 49.8646 141.581 49.9901C141.623 50.3546 141.563 50.6684 141.294 50.9373C141.091 51.1405 141.124 51.4064 141.133 51.6663C141.154 52.3117 140.993 52.5358 140.381 52.715C140.243 52.7569 140.103 52.7868 139.963 52.8047C138.685 52.969 138.401 54.3584 138.703 55.1651C138.765 55.3354 138.93 55.5087 139.091 55.5894C139.458 55.7746 139.658 56.0435 139.721 56.4469C139.763 56.7128 139.939 56.895 140.148 57.0653C140.458 57.3133 140.745 57.5912 141.035 57.8661C141.112 57.9408 141.16 58.0484 141.232 58.1589C140.957 58.5772 140.646 58.861 140.127 58.882C139.751 58.8969 139.422 59.0463 139.118 59.3003C138.685 59.6588 138.13 59.8291 137.589 59.7604C136.867 59.6678 136.237 59.8918 135.586 60.104C135.368 60.1757 135.15 60.2564 134.953 60.3669C134.651 60.5342 134.38 60.7045 133.994 60.594C133.797 60.5372 133.547 60.6448 133.326 60.6986C133.057 60.7613 132.893 60.9495 132.767 61.1916C132.433 61.828 131.731 62.0849 131.134 61.7324C130.597 61.4156 130.047 61.2424 129.429 61.2692C129.188 61.2812 128.988 61.1856 128.826 61.0003C128.641 60.7852 128.42 60.7613 128.131 60.8181C127.501 60.9406 126.883 60.827 126.28 60.6179C125.623 60.3878 125.596 60.4028 125.118 60.9525C125.044 61.0392 124.978 61.1318 124.936 61.1856C124.446 61.1497 124.022 61.1079 123.598 61.096C123.3 61.087 123.055 61.0213 122.831 60.7972C122.35 60.3191 121.795 60.0233 121.073 60.0472C120.658 60.0622 120.213 60.0024 119.992 59.5154C119.914 59.3481 119.672 59.3152 119.532 59.3989C119.102 59.6528 118.81 59.4945 118.469 59.2046C118.09 58.879 117.618 58.7475 117.102 58.8581C116.964 58.8879 116.824 58.8939 116.657 58.9148C116.585 58.7744 116.487 58.6579 116.463 58.5264C116.373 58.0394 116.072 57.7854 115.606 57.6868C114.854 57.5255 114.116 57.2835 113.331 57.3133C113.044 57.3253 112.779 57.2775 112.51 57.1281C111.964 56.8203 111.11 57.2058 110.925 57.8093C110.874 57.9737 110.874 58.1529 110.82 58.3143C110.745 58.5384 110.504 58.6907 110.274 58.6131C109.897 58.4876 109.563 58.5025 109.199 58.6698C108.936 58.7893 108.638 58.6967 108.342 58.5653C108.297 58.374 108.249 58.1858 108.214 57.9916C108.112 57.4687 107.775 57.2147 107.27 57.1371C107.019 57.0982 106.769 57.0444 106.467 56.9877C106.145 57.1729 105.909 57.4866 105.759 57.8661C105.261 59.124 104.855 58.8401 103.971 58.5204C103.571 58.377 103.326 58.0633 103.135 57.654C101.935 57.5046 100.869 57.7197 100.039 58.6609C99.5821 58.6758 99.2448 58.4816 98.9372 58.2097C98.6148 57.9258 98.2774 57.6599 97.9609 57.3731C97.5429 56.9966 97.0772 56.7725 96.5069 56.7188C96.1158 56.6799 95.7337 56.5455 95.3455 56.4528C95.2888 56.4409 95.2351 56.4259 95.1783 56.417C94.8977 56.3722 94.6469 56.6052 94.3394 56.4797C94.1095 56.3871 93.8408 56.3871 93.5571 56.3423C93.2884 56.1063 92.9899 55.8403 92.6883 55.5804C92.2285 55.186 91.7479 54.9978 91.1179 55.2099C90.5327 55.4101 90.2013 55.1531 90.0849 54.5317C90.058 54.3912 90.046 54.2478 90.0341 54.1044C90.0102 53.8086 89.8788 53.5965 89.6579 53.3754C89.222 52.9391 88.6876 52.5985 88.3831 52.0189C88.18 51.6334 87.8098 51.4123 87.3112 51.4482C87.0037 51.4691 86.6872 51.3765 86.3708 51.3347C85.9438 50.9253 85.4661 50.5728 85.1168 50.0708C84.6988 49.4673 84.0002 49.4284 83.3553 49.4105C82.8626 49.3955 82.4088 49.3388 81.9371 49.1774C81.4027 48.9952 80.8205 48.9115 80.2562 48.8757C79.7934 48.8458 79.3486 48.8129 78.9156 48.6366C78.7634 48.5769 78.5842 48.5829 78.3753 48.556C78.0528 48.1795 77.7094 47.7702 77.3512 47.3728C77.2616 47.2742 77.1183 47.2174 76.9959 47.1487C76.8466 47.068 76.6615 47.0262 76.551 46.9127C76.357 46.7095 76.1659 46.5959 75.8733 46.6318C75.7539 46.6467 75.6076 46.5571 75.4941 46.4824C75.2344 46.3091 74.9657 46.1358 74.7388 45.9207C74.3088 45.5203 73.858 45.1917 73.2758 45.2215C73.019 44.8839 72.8101 44.5821 72.5742 44.2983C72.1353 43.7724 71.6725 43.2764 70.9142 43.1928C70.8485 43.2197 70.7679 43.2436 70.6932 43.2854C70.0782 43.6469 70.0275 43.6529 69.5288 43.1569C69.1497 42.7805 68.6929 42.4548 68.6332 41.8931C68.2659 41.7198 67.9375 41.6839 67.5912 41.7855C67.3583 41.8512 67.1224 41.8094 66.9702 41.6032C66.7761 41.3403 66.5014 41.3194 66.2148 41.2716C65.967 41.2298 65.7192 41.1491 65.4923 41.0415C65.3788 40.9878 65.2385 40.8413 65.2355 40.7308C65.2176 40.3603 64.9997 40.1721 64.716 40.0047C64.5936 39.933 64.4742 39.8434 64.3816 39.7388C64.1338 39.461 63.8383 39.3713 63.468 39.3653C62.7903 39.3564 62.1544 39.1921 61.808 38.5168C61.6349 38.1762 61.2915 38.0597 60.9989 37.9192C60.4645 37.6593 59.8853 37.486 59.2643 37.2559C58.9836 36.8675 58.6552 36.4612 58.2044 36.1325C57.7774 35.8248 57.4222 35.7052 56.9534 35.9323C56.8549 35.9801 56.7355 35.9831 56.6489 36.001C56.2189 35.5499 55.8129 35.1196 55.38 34.6655C55.0366 34.6595 54.6754 34.8179 54.3111 34.6386C54.1947 34.5818 53.9857 34.6864 53.8275 34.7432C53.6364 34.8119 53.4453 34.7999 53.2482 34.8089C52.2451 34.8567 51.4628 34.3547 50.6776 33.8498C50.4865 33.7273 50.3074 33.5839 50.0805 33.4165C49.6147 33.5749 49.1699 33.5092 48.7549 33.1715C48.4593 32.9325 48.0921 32.8489 47.704 32.8787C47.2531 32.9146 46.7844 32.7114 46.3515 33.0192C45.9424 32.7443 45.5424 32.4754 45.1512 32.2125C44.8616 32.2543 44.6437 32.4814 44.3183 32.4126C44.1749 32.3828 43.9749 32.571 43.8167 32.6845C43.5659 32.8608 43.2584 32.9953 43.0165 32.819C42.5717 32.4933 42.1507 32.6547 41.7118 32.7592C41.6312 32.7772 41.5476 32.7951 41.467 32.813C41.3894 32.7592 41.3117 32.7234 41.249 32.6636C40.9893 32.4186 40.7295 32.2662 40.3295 32.335C39.9503 32.4037 39.8338 32.2483 39.804 31.8539C39.7891 31.6597 39.7712 31.4625 39.7532 31.2414C39.3203 31.089 38.9262 30.9605 38.5261 31.2773C38.4485 31.34 38.3112 31.3818 38.2186 31.3609C37.9917 31.3101 37.8454 31.4326 37.6693 31.5312C37.5289 31.6089 37.3498 31.6328 37.1856 31.6477C36.9647 31.6657 36.8034 31.5551 36.7139 31.349C36.6452 31.1906 36.5915 31.0263 36.5108 30.8769C36.4153 30.7006 36.3616 30.6916 35.8779 30.6737C35.8361 30.7544 35.7824 30.85 35.7376 30.9486C35.4002 31.7284 34.7016 32.0362 33.9253 31.6836C33.4924 31.4864 33.0117 31.3579 32.6803 30.9576C32.5639 30.8171 32.3459 30.7215 32.1578 30.6857C31.8891 30.6319 31.6801 30.5243 31.5129 30.3122C31.3995 30.1688 31.2382 30.103 31.0531 30.1419C30.8591 30.1837 30.665 30.2913 30.4799 30.2733C30.2022 30.2435 29.9365 30.1269 29.635 30.0373C29.5902 29.8162 29.5454 29.5981 29.4857 29.3142C29.2856 29.1947 29.0587 29.0155 28.802 28.9228C28.4586 28.7973 28.3123 28.5523 28.2466 28.2267C28.2347 28.1699 28.2377 28.1131 28.2287 28.0564C28.1153 27.3423 28.1153 27.3423 27.5062 26.8313C27.5271 26.7447 27.554 26.6371 27.5809 26.5326C27.7421 25.92 27.7361 25.9051 27.1599 25.6272C27.0554 25.5764 26.936 25.5436 26.8583 25.4689C26.4553 25.0864 25.9597 24.9042 25.4491 24.704C24.8341 24.462 24.2549 24.1572 23.5592 24.2618C23.4577 24.2767 23.3263 24.2349 23.2368 24.1751C22.8576 23.9301 22.6038 24.0855 22.362 24.3992C22.0246 24.8384 21.6096 24.955 21.0871 24.707C20.7856 24.5636 20.6632 24.6353 20.4183 24.8922C20.0033 25.3225 19.6331 25.7796 19.4211 26.3503C19.4122 26.3712 19.3764 26.3802 19.3167 26.419C19.239 26.3951 19.1286 26.3772 19.03 26.3294C18.4687 26.0515 17.9104 25.8991 17.3163 26.2487C17.1312 26.3593 16.9401 26.3204 16.749 26.2039C16.4743 26.0336 16.2683 26.1591 16.0892 26.3891C15.9698 26.5445 15.8294 26.679 15.716 26.8074C15.2801 26.7059 14.8979 26.6102 14.5098 26.5296C14.044 26.431 13.8768 26.0575 13.7425 25.681C13.5604 25.1731 13.423 24.6472 13.2767 24.1692C12.9185 23.8525 12.5303 23.5955 12.2616 23.2489C12.0019 22.9143 11.7063 22.6962 11.3032 22.5856C11.2883 22.4153 11.2883 22.2719 11.2614 22.1374C11.1749 21.7132 11.0823 21.6474 10.6285 21.6474C10.515 21.6474 10.3896 21.6743 10.2941 21.6325C9.89403 21.4592 9.51187 21.5518 9.07596 21.7042C8.57737 21.3098 8.06981 20.9064 7.54434 20.4911C7.29355 20.6047 7.06365 20.7122 6.85168 20.8108C6.13513 20.5778 5.43948 20.3328 4.73188 20.1266C4.11386 19.9444 3.65706 19.6157 3.45105 18.9823C3.43612 18.9345 3.37044 18.9046 3.3167 18.8508C2.62403 18.6207 1.93436 18.7432 1.21781 19.0361C0.972985 18.6028 0.740106 18.1935 0.486328 17.7393C0.749063 17.5541 0.978956 17.3927 1.22079 17.2224C1.32529 16.8878 1.45964 16.5442 1.53727 16.1856C1.59698 15.9108 1.59698 15.6209 1.59997 15.3371C1.60295 15.0533 1.71043 14.8501 1.96421 14.7067C2.25979 14.5423 2.51357 14.3003 2.90468 14.5095C3.01216 14.5662 3.22116 14.4467 3.3794 14.3989C3.54062 14.3481 3.7317 14.1928 3.84814 14.2376C4.41242 14.4646 5.04537 14.1898 5.6007 14.5304C5.87538 14.6977 6.13513 14.5364 6.29038 14.2196C6.32919 14.142 6.35606 14.0613 6.37995 13.9776C6.4725 13.6729 6.65164 13.4876 6.98901 13.4697C7.12635 13.4607 7.28758 13.4398 7.39804 13.3651C7.81902 13.0723 8.29672 13.0365 8.78636 13.0006C9.66712 12.9349 10.1597 12.3254 10.0702 11.4439C10.0552 11.3035 10.0015 11.1691 9.97165 11.0286C9.8582 10.5117 9.83431 10.0098 10.1836 9.55861C10.2344 9.49287 10.2822 9.4122 10.306 9.33153C10.6315 8.21109 11.3032 7.29681 11.9899 6.38253C12.2795 5.99709 12.4915 5.55489 12.7483 5.12166C12.6408 4.82287 12.5393 4.53305 12.4228 4.20737C12.6617 3.85182 12.8946 3.49328 13.1394 3.1437C13.2021 3.05108 13.2797 2.9465 13.3753 2.90467C14.0829 2.59991 14.262 1.99039 14.3187 1.30618C14.3247 1.24941 14.3366 1.19264 14.3545 1.08209C14.4501 1.00142 14.5785 0.890866 14.7068 0.783304C15.101 0.448665 15.4652 0.367993 15.925 0.741474C16.1638 0.935684 16.5908 0.887878 16.8744 1.04922C17.1342 1.19563 17.2416 1.57209 17.5671 1.65874C18.1343 1.80813 18.624 2.22643 19.2749 2.10393C19.445 2.07107 19.669 2.18162 19.8332 2.2832C20.2452 2.53717 20.696 2.72242 21.0513 3.08096C21.2424 3.27517 21.5409 3.46639 21.7917 3.46639C22.1769 3.46938 22.4336 3.64267 22.7143 3.83688C22.8307 3.91755 22.974 3.9564 23.1054 4.01316C23.4398 4.15658 23.7593 4.15957 24.0877 3.96237C24.425 3.7592 24.7624 3.55602 25.1804 3.49926C25.4103 3.46639 25.6133 3.24529 25.8492 3.0959C25.8581 2.75229 25.8731 2.44455 25.891 2.14277C26.0731 1.95155 26.2493 1.99338 26.4254 2.12783C26.4702 2.1607 26.5001 2.21448 26.5359 2.25631C26.921 2.68955 26.921 2.68955 27.5301 2.47741C27.554 2.46845 27.5868 2.48339 27.6644 2.49235C27.7391 2.55211 27.8436 2.65071 27.957 2.73138C28.3362 2.9973 28.7184 3.22139 29.2229 3.16163C29.4737 3.13175 29.7395 3.17657 29.9902 3.23334C30.2381 3.29011 30.5306 3.3409 30.6949 3.50523C30.9815 3.78908 31.2502 4.04603 31.6622 4.12969C31.7757 4.15359 31.8533 4.32988 31.9578 4.42848C32.1638 4.62268 32.3489 4.87964 32.5937 4.98421C32.9938 5.15452 33.361 5.3577 33.7073 5.61465C33.9044 5.76105 34.1283 5.79392 34.3582 5.76703C35.0927 5.68038 35.8242 5.58178 36.5735 5.48617C36.8482 5.72819 37.0901 6.07179 37.4125 6.18234C37.7618 6.30484 38.0902 6.46917 38.4336 6.59168C38.5142 6.62155 38.5918 6.65741 38.6665 6.69924C38.8964 6.82473 39.1083 6.82473 39.2666 6.59168C39.3741 6.43332 39.5054 6.39149 39.7025 6.40045C40.225 6.42436 40.7176 6.54387 41.2371 6.75302C41.4909 7.39839 42.0014 7.75096 42.6971 7.87645C42.8881 7.9123 43.0553 8.04676 43.2404 8.11846C43.4226 8.19017 43.6107 8.27383 43.7988 8.28877C44.0257 8.30969 44.163 8.4292 44.3003 8.58158C44.5123 8.81463 44.7392 9.03275 44.9273 9.28372C45.1811 9.62733 45.5065 9.82452 45.9215 9.89026C46.035 9.90818 46.1455 9.93507 46.2559 9.96495C46.7874 10.1084 47.277 10.1412 47.6084 9.57354C47.6562 9.49287 47.7995 9.46598 47.9338 9.39427C48.2085 9.60044 48.4742 9.80062 48.7429 10.0038C48.7967 10.207 48.8833 10.3982 48.8952 10.5924C48.931 11.178 49.2326 11.5724 49.6774 11.928C49.9073 12.1102 50.1044 12.2955 50.4 12.3433C51.0508 12.4449 51.5494 12.7586 51.9614 13.2994C52.3854 13.8551 52.9915 14.1868 53.6842 14.3631C54.0633 14.4587 54.4246 14.635 54.7888 14.7873C54.8635 14.8172 54.9351 14.8859 54.9769 14.9547C55.3382 15.5253 55.8995 15.7883 56.5145 15.9556C56.8907 16.0572 57.2042 16.2155 57.4251 16.5472C57.5177 16.6876 57.6371 16.8579 57.7804 16.9117C58.2283 17.076 58.4403 17.4346 58.6492 17.814C58.7179 17.9365 58.8194 18.0441 58.906 18.1576C59.1508 18.4833 59.4494 18.6446 59.8704 18.5072C60.0286 18.4564 60.2107 18.4773 60.3809 18.4504C60.5959 18.4176 60.7601 18.4803 60.9243 18.6267C61.4856 19.1317 62.2081 19.2392 62.9097 19.3259C63.1993 19.3617 63.5128 19.1854 63.8562 19.0958C64.2622 19.4812 64.7757 19.4394 65.2743 19.2661C65.546 19.1735 65.752 19.2093 66.0058 19.3139C66.4925 19.5141 66.9314 19.7561 67.2508 20.1864C67.2986 20.2491 67.3911 20.282 67.4777 20.3388C67.5733 20.285 67.7017 20.2551 67.7673 20.1744C68.0928 19.7681 68.5167 19.7681 68.9377 19.9234C69.3049 20.0579 69.6692 20.028 70.0394 20.037C70.323 20.043 70.538 19.9294 70.6604 19.6635C70.7679 19.4304 70.735 19.2004 70.5499 19.0331C70.1499 18.6715 70.1439 18.2502 70.2991 17.7812C70.3768 17.5421 70.4216 17.2912 70.4783 17.0521C70.8545 16.9954 71.1291 17.1418 71.377 17.3419C72.0129 17.8469 72.7772 18.1218 73.4997 18.4504C74.2252 18.7791 75.0284 18.9016 75.8375 18.5699C76.2137 18.4146 76.2316 18.4534 76.8138 18.7761C76.9033 19.1137 76.972 19.4753 76.8914 19.8487C76.8018 20.2611 76.9242 20.5748 77.3034 20.7899C77.4467 20.8706 77.5632 20.9991 77.6676 21.0857C77.6676 21.1933 77.6856 21.256 77.6647 21.3008C77.5602 21.5279 77.3452 21.7132 77.4676 22.009C77.605 22.3406 77.808 22.6095 78.1424 22.7499C78.3782 22.8485 78.626 22.9173 78.8918 23.0039C78.9992 23.3027 79.0858 23.6015 79.2082 23.8853C79.4142 24.3544 79.6083 24.4112 80.077 24.1751C80.2024 24.1124 80.3249 24.0467 80.4682 23.975C80.6174 24.0945 80.7637 24.1841 80.8772 24.3066C81.0235 24.465 81.1847 24.5576 81.4027 24.5486C81.6773 24.5367 81.9341 24.6293 82.0804 24.8534C82.3909 25.3255 82.8507 25.6123 83.3344 25.923C83.3523 26.171 83.3612 26.425 83.3881 26.676C83.4299 27.1152 83.4687 27.1481 83.9673 27.2526C84.024 27.2646 84.0778 27.2765 84.1315 27.2915C84.1584 27.3004 84.1823 27.3154 84.2092 27.3273C84.6719 27.8681 84.7645 28.6479 85.3915 29.1469C85.6781 29.0543 85.9707 28.9467 86.2692 28.8661C86.7648 28.7286 87.2067 28.7675 87.6217 29.1439C88.1651 29.6339 88.4786 29.616 89.0429 29.1738C89.3385 28.9437 89.6131 28.9198 89.8908 29.1141C89.9833 29.1798 90.058 29.2664 90.1386 29.3501C90.7626 30.0164 91.5448 30.4078 92.4047 30.6707C92.5122 30.7036 92.6764 30.6976 92.7242 30.7693C93.2048 31.4774 93.996 31.2414 94.5961 31.4595C94.8768 31.3131 94.9395 31.095 94.9932 30.8709C95.0261 30.7335 95.032 30.5393 95.1216 30.4795C95.5217 30.2076 95.7486 29.7266 96.2203 29.5652C96.9428 29.8879 97.6325 30.1688 98.4446 29.9208C98.7909 29.8162 99.2059 29.9985 99.4746 30.2345C99.8896 30.602 100.317 30.6588 100.791 30.4825C101.093 31.1428 101.093 31.1398 101.69 31.34C102.156 31.4954 102.642 31.5611 103.12 31.5163C103.449 31.4864 103.762 31.3131 104.183 31.1697C104.323 31.1936 104.571 31.2623 104.822 31.2743C105.189 31.2922 105.467 31.4177 105.7 31.7195C105.977 32.081 106.422 32.2125 106.84 32.2423C107.252 32.2722 107.616 32.3798 107.99 32.5262C108.225 32.6188 108.479 32.6666 108.742 32.7413C108.817 33.1208 108.954 33.4434 109.178 33.7572C109.39 34.05 109.479 34.4324 109.614 34.776C109.832 35.3288 110.19 35.5708 110.796 35.5469C110.939 35.5409 111.083 35.517 111.223 35.514C111.647 35.4991 111.853 35.6694 111.91 36.0966C111.94 36.3237 111.931 36.5538 111.961 36.7809C111.996 37.0647 112.164 37.2589 112.441 37.3217C112.662 37.3695 112.892 37.3993 113.116 37.4023C113.844 37.4023 114.528 37.5458 115.158 37.9372C115.319 38.0387 115.531 38.1075 115.719 38.1105C116.493 38.1194 116.938 38.6423 117.382 39.1532C117.523 39.3175 117.654 39.4371 117.869 39.452C118.81 39.5177 119.753 39.6014 120.693 39.6432C120.968 39.6552 121.258 39.5715 121.526 39.4879C121.855 39.3863 121.927 39.213 121.822 38.9022C121.795 38.8216 121.747 38.7469 121.712 38.6692C121.562 38.3525 121.616 38.0537 121.819 37.7818C121.921 37.6444 122.034 37.5099 122.162 37.3993C122.443 37.1573 122.601 36.8645 122.548 36.494C122.5 36.1564 122.625 35.8815 122.774 35.5977C122.888 35.3826 123.019 35.2302 123.267 35.1644C123.425 35.1226 123.578 35.024 123.712 34.9224C124.252 34.5191 124.849 34.4653 125.5 34.5549C126.077 34.6326 126.632 34.5878 127.014 34.0261C127.271 33.6496 127.593 33.318 127.847 32.9415C128.14 32.5112 128.45 32.1079 128.931 31.7852C129.032 31.8091 129.188 31.8091 129.295 31.8808C129.838 32.2453 130.489 32.2483 131.089 32.4156C131.239 32.4575 131.436 32.4276 131.582 32.3648C131.863 32.2423 132.119 32.0631 132.391 31.9226C132.537 31.8479 132.699 31.7613 132.857 31.7583C133.135 31.7523 133.332 31.6507 133.535 31.4625C133.968 31.0651 134.475 31.0412 134.932 31.4027C135.221 31.6298 135.496 31.9017 135.696 32.2065C135.911 32.5322 136.192 32.6815 136.547 32.6995C137.282 32.7353 138.034 32.8668 138.706 32.3947C138.807 32.323 138.974 32.335 139.112 32.323C139.246 32.311 139.383 32.32 139.551 32.32C139.619 32.0929 139.661 31.9017 139.733 31.7224C139.813 31.5252 140.034 31.4356 140.231 31.5193C140.572 31.6597 140.903 31.7792 141.049 32.2035C141.118 32.4067 141.405 32.5322 141.661 32.7533C141.608 33.5839 141.951 34.3159 142.697 34.8149C143.68 34.4623 144.611 34.1217 145.617 34.1097C145.922 34.1067 146.149 34.032 146.388 33.8289C146.665 33.5958 146.994 33.4255 147.4 33.4405C147.615 33.4494 147.872 33.3927 148.045 33.2761C148.394 33.0401 148.74 33.07 149.137 33.1656C149.182 33.2552 149.233 33.3538 149.284 33.4554C149.815 34.5489 150.8 34.9314 151.905 35.1286C152.216 35.1854 152.499 35.0808 152.684 34.8627C152.92 34.5848 153.219 34.3547 153.35 33.9813C153.434 33.7482 153.604 33.548 153.756 33.3C154.147 33.3 154.515 33.297 154.882 33.3C155.339 33.306 155.724 33.1715 156.004 32.7891C156.052 32.7204 156.127 32.6696 156.198 32.6218C156.404 32.4843 156.479 32.3051 156.509 32.0511C156.548 31.7284 156.933 31.6089 157.154 31.8449C157.5 32.2154 157.933 32.5411 157.966 33.1178C157.972 33.1954 158.035 33.2701 158.094 33.3927C158.733 33.4136 159.321 33.7213 159.951 33.8856C160.838 34.1187 161.716 34.3189 162.627 34.3786C162.737 34.3846 162.889 34.4055 162.943 34.4772C163.197 34.8149 163.555 34.8328 163.925 34.9015C164.191 34.9493 164.481 35.1017 164.669 35.2929C165.063 35.6873 165.558 35.9024 166.012 36.2102C166.478 35.9532 166.923 35.7052 167.374 35.4662C167.469 35.4154 167.583 35.3766 167.69 35.3616C167.86 35.3407 168.039 35.3766 168.204 35.3407C168.822 35.2152 169.338 35.2929 169.628 35.9383C169.661 36.01 169.75 36.0548 169.822 36.1056C169.914 36.1713 170.013 36.2281 170.123 36.2968C170.291 36.252 170.464 36.2281 170.616 36.1564C171.443 35.771 172.258 35.753 173.076 36.1863C173.357 36.3357 173.652 36.4373 173.984 36.3327C174.088 36.2998 174.217 36.2968 174.321 36.3267C174.647 36.4193 174.877 36.258 175.089 36.0548C175.274 35.8785 175.447 35.6873 175.656 35.4692C176.423 35.8218 177.271 35.6544 178.071 35.8427C178.238 35.8815 178.423 35.8576 178.579 35.9144C178.859 36.016 179.119 36.013 179.412 35.9383C180.021 35.7799 180.618 35.8397 181.087 36.3118C181.358 36.5867 181.705 36.5777 182.081 36.6464C182.338 37.241 182.636 37.8326 183.338 37.9222C183.406 38.0806 183.457 38.1553 183.472 38.2359C183.577 38.7767 183.896 39.0247 184.448 38.971C184.66 38.95 184.84 39.0188 185.007 39.1472C185.096 39.216 185.207 39.2996 185.308 39.2996C185.885 39.2996 186.332 39.6074 186.801 39.8793C186.992 39.9928 187.225 40.0824 187.443 40.0914C187.948 40.1153 188.383 40.3005 188.825 40.5127C189.002 40.5963 189.211 40.692 189.393 40.6681C189.93 40.5993 190.336 40.8025 190.65 41.1879C190.781 41.17 190.865 41.167 190.945 41.1431C191.483 40.9878 191.56 40.9997 191.671 41.4957C191.778 41.9857 192.071 42.2277 192.525 42.3412C192.799 42.41 193.074 42.4906 193.34 42.5892C193.638 42.6998 193.925 42.8641 194.199 42.5683C194.411 42.7655 194.573 42.9179 194.752 43.0822C195.292 42.8342 195.797 42.8342 196.313 43.148C196.513 43.2705 196.806 43.2525 197.057 43.2764C197.239 43.2944 197.409 43.3332 197.481 43.5095C197.555 43.7007 197.412 43.8292 197.299 43.9547C197.221 44.0413 197.137 44.119 197.06 44.2027C197 44.2654 196.943 44.3282 196.884 44.3909C196.483 44.7973 196.352 45.3171 196.719 45.9625C196.803 46.1089 196.904 46.2464 196.985 46.3659C196.773 47.1696 196.567 47.9345 196.355 48.7382C196.48 48.8189 196.588 48.9294 196.71 48.9593C197.475 49.1296 197.824 49.7063 198.057 50.3636C198.158 50.6504 198.299 50.8297 198.579 50.8327C199.033 50.8387 199.508 50.8656 199.938 50.755C200.457 50.6236 200.899 50.755 201.347 50.9433C201.625 51.0598 201.708 51.2898 201.64 51.5826C201.634 51.6095 201.619 51.6364 201.613 51.6633C201.407 52.4133 201.481 52.6164 202.114 52.9899C202.162 53.0198 202.213 53.0497 202.267 53.0646C203.085 53.2977 203.837 53.6831 204.598 54.0506C204.804 54.1492 205.082 54.1014 205.399 54.1283C205.228 54.4599 205.088 54.7348 204.927 55.0486C205.022 55.177 205.091 55.3623 205.219 55.431C205.628 55.6461 205.837 56.0973 206.291 56.2766C206.45 56.3393 206.56 56.6411 206.608 56.8502C206.769 57.5822 207.223 58.0663 207.865 58.392C208.062 58.4935 208.289 58.5503 208.51 58.5951C208.704 58.634 208.91 58.625 209.11 58.6429C209.435 58.6728 209.629 58.861 209.71 59.1688C209.74 59.2793 209.749 59.3959 209.775 59.5064C209.844 59.8052 210.017 59.9964 210.301 60.1369C210.605 60.2862 210.892 60.4834 211.155 60.6986C211.298 60.8151 211.376 61.0123 211.492 61.1796C211.182 61.6457 210.901 62.073 210.346 62.1357C210.128 62.4345 210.083 62.7452 210.086 63.0649C210.092 63.5908 210.349 63.8507 210.883 63.8358C211.062 63.8298 211.224 63.8119 211.367 63.9284C211.633 64.1465 211.904 64.3587 212.152 64.5947C212.379 64.8069 212.328 65.0788 212.057 65.2222C211.88 65.3148 211.686 65.3775 211.519 65.4851C211.307 65.6196 211.268 65.8735 211.397 66.0916C211.427 66.1394 211.444 66.2082 211.489 66.235C211.88 66.4711 211.889 66.8924 212.033 67.2599C212.2 67.6931 212.23 68.0875 212 68.4968C211.985 68.5207 211.985 68.5506 211.973 68.5775C211.758 69.1183 211.63 69.6442 212.236 69.9519C212.262 70.3403 212.006 70.4688 211.85 70.666C211.579 71.0096 211.585 71.2636 211.886 71.5803C212.021 71.7207 212.197 71.8283 212.364 71.9359C212.842 72.2436 212.982 72.4438 212.773 72.9099C212.528 73.4567 212.734 73.8481 213.039 74.2484C213.176 74.4277 213.331 74.5891 213.493 74.7743C213.391 75.0372 213.29 75.2703 213.209 75.5123C213.11 75.8111 213.2 75.9933 213.49 76.1398C213.564 76.1786 213.654 76.1906 213.731 76.2264C213.803 76.2593 213.869 76.3101 213.991 76.3877C213.925 76.4923 213.857 76.576 213.815 76.6686C213.466 77.4484 213.794 78.3358 214.558 78.6764C214.806 78.787 215.066 78.778 215.311 78.6705C215.493 78.5898 215.657 78.4673 215.839 78.3866C216.296 78.1894 216.756 78.052 217.225 78.3836C217.452 78.542 217.699 78.542 217.959 78.4314C218.087 78.3777 218.234 78.3567 218.377 78.3448C218.631 78.3239 218.822 78.4822 218.849 78.7362C218.867 78.9065 218.861 79.0798 218.855 79.2501C218.84 79.6057 219.028 79.8447 219.294 80.0389C219.482 80.1763 219.682 80.2749 219.933 80.1644C220.028 80.1226 220.148 80.1375 220.267 80.1285C220.404 80.6574 220.539 81.1504 220.658 81.6464C220.742 81.9929 220.694 82.3276 220.56 82.6562C220.321 83.2359 220.503 83.7139 220.93 84.1233C221.41 84.5834 221.413 84.5804 221.536 85.1989C221.745 85.2168 221.966 85.2318 222.196 85.2527C222.279 85.4439 222.348 85.6321 222.44 85.8054C222.646 86.1909 222.864 86.2835 223.282 86.1759C223.42 86.1401 223.566 86.1162 223.694 86.0534C224.044 85.8891 224.336 85.8801 224.602 86.2297C224.689 86.3433 224.892 86.4 225.05 86.4179C225.274 86.4448 225.507 86.415 225.737 86.4C226.005 86.3851 226.25 86.4329 226.441 86.642C226.976 87.2336 227.716 87.2097 228.415 87.3053C228.68 87.3412 228.922 87.2456 229.137 87.0812C229.23 87.0125 229.316 86.9378 229.406 86.8661C229.785 86.5763 230.161 86.4747 230.57 86.8303C230.735 86.9528 230.932 87.0245 231.15 87.144Z" fill="#FFFEEE" fill-opacity="0.6"/>
</svg>
