<svg width="23" height="15" viewBox="0 0 23 15" fill="none" xmlns="http://www.w3.org/2000/svg">
<path d="M7.77234 15H0.332344V12.8L2.11234 12.12V3.58L0.332344 2.92V0.719999H7.77234V2.92L5.99234 3.58V12.12L7.77234 12.8V15ZM22.3409 0.719999L17.6609 15H13.1209L8.46094 0.719999H12.8009L14.7409 7.96C14.8076 8.22667 14.8876 8.57333 14.9809 9C15.0743 9.42667 15.1609 9.85333 15.2409 10.28C15.3343 10.7067 15.3876 11.0533 15.4009 11.32C15.4276 11.0533 15.4743 10.7133 15.5409 10.3C15.6209 9.87333 15.7009 9.45333 15.7809 9.04C15.8743 8.61333 15.9609 8.26667 16.0409 8L18.0209 0.719999H22.3409Z" fill="#FFFEEE"/>
</svg>
