<svg width="18" height="22" viewBox="0 0 18 22" fill="none" xmlns="http://www.w3.org/2000/svg">
<path d="M9 11C9.61875 11 10.1484 10.7846 10.5891 10.3538C11.0297 9.92292 11.25 9.405 11.25 8.8C11.25 8.195 11.0297 7.67708 10.5891 7.24625C10.1484 6.81542 9.61875 6.6 9 6.6C8.38125 6.6 7.85156 6.81542 7.41094 7.24625C6.97031 7.67708 6.75 8.195 6.75 8.8C6.75 9.405 6.97031 9.92292 7.41094 10.3538C7.85156 10.7846 8.38125 11 9 11ZM9 19.085C11.2875 17.0317 12.9844 15.1663 14.0906 13.4887C15.1969 11.8112 15.75 10.3217 15.75 9.02C15.75 7.02167 15.0984 5.38542 13.7953 4.11125C12.4922 2.83708 10.8938 2.2 9 2.2C7.10625 2.2 5.50781 2.83708 4.20469 4.11125C2.90156 5.38542 2.25 7.02167 2.25 9.02C2.25 10.3217 2.80312 11.8112 3.90937 13.4887C5.01562 15.1663 6.7125 17.0317 9 19.085ZM9 22C5.98125 19.4883 3.72656 17.1554 2.23594 15.0013C0.745312 12.8471 0 10.8533 0 9.02C0 6.27 0.904687 4.07917 2.71406 2.4475C4.52344 0.815833 6.61875 0 9 0C11.3812 0 13.4766 0.815833 15.2859 2.4475C17.0953 4.07917 18 6.27 18 9.02C18 10.8533 17.2547 12.8471 15.7641 15.0013C14.2734 17.1554 12.0188 19.4883 9 22Z" fill="#FFFEEE"/>
</svg>
