<svg width="18" height="18" viewBox="0 0 18 18" fill="none" xmlns="http://www.w3.org/2000/svg">
<path d="M1.5 17.475C1.08333 17.475 0.729167 17.3292 0.4375 17.0375C0.145833 16.7458 0 16.3917 0 15.975V14.075L4 10.525V17.475H1.5ZM5 17.475V13.475H13V17.475H5ZM14 17.475V9.275L9.725 5.475L12.75 2.8L17.5 7.025C17.6667 7.175 17.7917 7.34583 17.875 7.5375C17.9583 7.72917 18 7.93333 18 8.15V15.975C18 16.3917 17.8542 16.7458 17.5625 17.0375C17.2708 17.3292 16.9167 17.475 16.5 17.475H14ZM0 12.725V8.15C0 7.93333 0.0416667 7.725 0.125 7.525C0.208333 7.325 0.333333 7.15833 0.5 7.025L8 0.375C8.13333 0.241667 8.2875 0.145833 8.4625 0.0875C8.6375 0.0291667 8.81667 0 9 0C9.18333 0 9.3625 0.0291667 9.5375 0.0875C9.7125 0.145833 9.86667 0.241667 10 0.375L12 2.15L0 12.725Z" fill="#FFFEEE"/>
</svg>
