<svg width="22" height="22" viewBox="0 0 22 22" fill="none" xmlns="http://www.w3.org/2000/svg">
<path d="M14.85 9.9C15.3083 9.9 15.6979 9.73958 16.0187 9.41875C16.3396 9.09792 16.5 8.70833 16.5 8.25C16.5 7.79167 16.3396 7.40208 16.0187 7.08125C15.6979 6.76042 15.3083 6.6 14.85 6.6C14.3917 6.6 14.0021 6.76042 13.6812 7.08125C13.3604 7.40208 13.2 7.79167 13.2 8.25C13.2 8.70833 13.3604 9.09792 13.6812 9.41875C14.0021 9.73958 14.3917 9.9 14.85 9.9ZM7.15 9.9C7.60833 9.9 7.99792 9.73958 8.31875 9.41875C8.63958 9.09792 8.8 8.70833 8.8 8.25C8.8 7.79167 8.63958 7.40208 8.31875 7.08125C7.99792 6.76042 7.60833 6.6 7.15 6.6C6.69167 6.6 6.30208 6.76042 5.98125 7.08125C5.66042 7.40208 5.5 7.79167 5.5 8.25C5.5 8.70833 5.66042 9.09792 5.98125 9.41875C6.30208 9.73958 6.69167 9.9 7.15 9.9ZM11 17.05C12.2467 17.05 13.3787 16.6971 14.3962 15.9913C15.4137 15.2854 16.1517 14.355 16.61 13.2H14.795C14.3917 13.8783 13.8554 14.4146 13.1862 14.8088C12.5171 15.2029 11.7883 15.4 11 15.4C10.2117 15.4 9.48292 15.2029 8.81375 14.8088C8.14458 14.4146 7.60833 13.8783 7.205 13.2H5.39C5.84833 14.355 6.58625 15.2854 7.60375 15.9913C8.62125 16.6971 9.75333 17.05 11 17.05ZM11 22C9.47833 22 8.04833 21.7113 6.71 21.1337C5.37167 20.5562 4.2075 19.7725 3.2175 18.7825C2.2275 17.7925 1.44375 16.6283 0.86625 15.29C0.28875 13.9517 0 12.5217 0 11C0 9.47833 0.28875 8.04833 0.86625 6.71C1.44375 5.37167 2.2275 4.2075 3.2175 3.2175C4.2075 2.2275 5.37167 1.44375 6.71 0.86625C8.04833 0.28875 9.47833 0 11 0C12.5217 0 13.9517 0.28875 15.29 0.86625C16.6283 1.44375 17.7925 2.2275 18.7825 3.2175C19.7725 4.2075 20.5562 5.37167 21.1337 6.71C21.7113 8.04833 22 9.47833 22 11C22 12.5217 21.7113 13.9517 21.1337 15.29C20.5562 16.6283 19.7725 17.7925 18.7825 18.7825C17.7925 19.7725 16.6283 20.5562 15.29 21.1337C13.9517 21.7113 12.5217 22 11 22ZM11 19.8C13.4567 19.8 15.5375 18.9475 17.2425 17.2425C18.9475 15.5375 19.8 13.4567 19.8 11C19.8 8.54333 18.9475 6.4625 17.2425 4.7575C15.5375 3.0525 13.4567 2.2 11 2.2C8.54333 2.2 6.4625 3.0525 4.7575 4.7575C3.0525 6.4625 2.2 8.54333 2.2 11C2.2 13.4567 3.0525 15.5375 4.7575 17.2425C6.4625 18.9475 8.54333 19.8 11 19.8Z" fill="#FFFEEE"/>
</svg>
